<svg width="24" height="24" viewBox="0 0 24 24" fill="none" xmlns="http://www.w3.org/2000/svg">
<path d="M24 0.000278473H0V23.9998H24V0.000278473Z" fill="#D80027"/>
<path d="M24 0H0V7.99983H24V0Z" fill="#338AF3"/>
<path d="M24 16.0002H0V24H24V16.0002Z" fill="#6DA544"/>
<path d="M12.25 15.25C10.4551 15.25 9.00001 13.7949 9.00001 12C9.00001 10.2051 10.4551 8.74997 12.25 8.74997C12.8097 8.74997 13.3362 8.89148 13.7961 9.14058C13.0748 8.4353 12.0885 7.99997 11.0001 7.99997C8.79095 7.99997 7.00009 9.79083 7.00009 12C7.00009 14.2092 8.79095 16 11.0001 16C12.0885 16 13.0748 15.5647 13.7961 14.8594C13.3362 15.1085 12.8097 15.25 12.25 15.25Z" fill="#F0F0F0"/>
<path d="M14.75 9.75L15.1805 10.9607L16.3411 10.409L15.7893 11.5695L17 12L15.7893 12.4305L16.3411 13.591L15.1805 13.0393L14.75 14.25L14.3196 13.0393L13.159 13.591L13.7107 12.4305L12.5 12L13.7107 11.5695L13.159 10.409L14.3196 10.9607L14.75 9.75Z" fill="#F0F0F0"/>
</svg>
