<svg width="24" height="24" viewBox="0 0 24 24" fill="none" xmlns="http://www.w3.org/2000/svg">
<g clip-path="url(#clip0_705_10877)">
<path d="M24 0H0V24H24V0Z" fill="#F0F0F0"/>
<path d="M0 14.25H9.75V24H14.25V14.25H24V9.75H14.25V0H9.75V9.75H0V14.25Z" fill="#D80027"/>
<path d="M19.0744 15.6522L24 20.5778V15.6522H19.0744Z" fill="#0052B4"/>
<path d="M15.6522 15.6522L24 24V21.6394L18.0128 15.6522H15.6522Z" fill="#0052B4"/>
<path d="M21.7764 24L15.6522 17.8751V24H21.7764Z" fill="#0052B4"/>
<path d="M15.6522 15.6522L24 24V21.6394L18.0128 15.6522H15.6522Z" fill="#F0F0F0"/>
<path d="M15.6522 15.6522L24 24V21.6394L18.0128 15.6522H15.6522Z" fill="#D80027"/>
<path d="M3.76416 15.6522L0 19.4163V15.6522H3.76416Z" fill="#0052B4"/>
<path d="M8.34768 16.7137V23.9999H1.06209L8.34768 16.7137Z" fill="#0052B4"/>
<path d="M5.98706 15.6523L0 21.6394V24L8.34769 15.6523H5.98706Z" fill="#D80027"/>
<path d="M4.92562 8.34783L0 3.4222V8.34783H4.92562Z" fill="#0052B4"/>
<path d="M8.34783 8.34783L0 0V2.36062L5.9872 8.34783H8.34783Z" fill="#0052B4"/>
<path d="M2.22356 0L8.34782 6.12483V0H2.22356Z" fill="#0052B4"/>
<path d="M8.34783 8.34783L0 0V2.36062L5.9872 8.34783H8.34783Z" fill="#F0F0F0"/>
<path d="M8.34783 8.34783L0 0V2.36062L5.9872 8.34783H8.34783Z" fill="#D80027"/>
<path d="M20.2358 8.34782L24 4.58366V8.34782H20.2358Z" fill="#0052B4"/>
<path d="M15.6523 7.28629V0.000137329H22.9379L15.6523 7.28629Z" fill="#0052B4"/>
<path d="M18.0129 8.34769L24 2.36058V0L15.6523 8.34769H18.0129Z" fill="#D80027"/>
</g>
<defs>
<clipPath id="clip0_705_10877">
<path d="M0 12C0 5.37258 5.37258 0 12 0V0C18.6274 0 24 5.37258 24 12V12C24 18.6274 18.6274 24 12 24V24C5.37258 24 0 18.6274 0 12V12Z" fill="white"/>
</clipPath>
</defs>
</svg>
