<svg width="94" height="48" viewBox="0 0 94 48" fill="none" xmlns="http://www.w3.org/2000/svg">
<g clip-path="url(#clip0_1273_5909)">
<path d="M93.4425 36.8403L82.8056 23.7081C82.7647 23.6576 82.7636 23.5854 82.8046 23.5339L91.9482 12.0142C92.0217 11.9214 91.9545 11.7863 91.8347 11.7863L86.9681 11.776C86.0696 11.7739 85.2142 12.1843 84.6552 12.8844L79.4965 19.3438C79.4387 19.4159 79.3283 19.4159 79.2705 19.3448L73.2238 11.8802C73.1692 11.8131 73.0862 11.7729 72.9979 11.7739L66.6528 11.7874C66.533 11.7874 66.4657 11.9235 66.5403 12.0163L75.9004 23.6731C75.9414 23.7246 75.9414 23.7958 75.9004 23.8473L65.522 36.8414C65.4485 36.9341 65.5147 37.0692 65.6345 37.0692L70.6124 37.0847C71.5151 37.0878 72.3747 36.6743 72.9338 35.9691L79.2043 28.0683C79.2621 27.9962 79.3725 27.9962 79.4303 28.0673L86.5877 36.9805C86.6423 37.0486 86.7264 37.0888 86.8147 37.0878L93.329 37.0682C93.4499 37.0692 93.5171 36.9321 93.4425 36.8403Z" fill="#287AF3"/>
<path d="M64.8851 11.9694L51.2984 46.0995C50.9178 47.0562 49.9923 47.6843 48.9627 47.6843H45.3011C45.2013 47.6843 45.1316 47.5834 45.1691 47.4898L49.0345 37.6569C49.0615 37.5873 49.0605 37.5093 49.0314 37.4407L38.1152 11.9725C38.0747 11.879 38.1444 11.7739 38.2463 11.7739H44.1094C44.1676 11.7739 44.2196 11.8093 44.2415 11.8623L51.6499 29.9984C51.6988 30.118 51.8683 30.1159 51.9141 29.9953L58.2275 13.3951C58.5987 12.4197 59.5336 11.775 60.5777 11.775H64.752C64.8528 11.775 64.9225 11.8758 64.8851 11.9694Z" fill="#287AF3"/>
<path d="M29.7686 36.9464V2.33881C29.7686 1.04715 30.8671 0 32.2221 0H35.574C35.6563 0 35.7223 0.0629322 35.7223 0.14134V34.7489C35.7223 36.0406 34.6238 37.0877 33.2687 37.0877H29.9168C29.8346 37.0877 29.7686 37.0248 29.7686 36.9464Z" fill="#287AF3"/>
<path d="M14.0684 33.02C10.0022 33.02 6.35071 30.625 5.35437 26.3277C5.33338 26.2387 5.40267 26.1548 5.49506 26.1548H26.648C26.7278 26.1548 26.7918 26.0906 26.7918 26.0129L26.7908 24.3137C26.7908 16.7526 21.87 10.5967 13.7544 10.5967C5.49191 10.5967 0 16.9079 0 24.1988C0 30.4003 4.47878 37.6766 13.8185 37.6766C18.8212 37.6766 22.713 35.4016 25.2653 32.2807C25.3167 32.2175 25.3041 32.1243 25.237 32.0767L23.1435 30.5722C22.3172 29.9788 21.1823 30.0151 20.4065 30.6726C18.6038 32.2051 16.5177 33.02 14.0684 33.02ZM13.829 15.4407C18.2196 15.4407 21.028 18.9924 21.4469 21.6712C21.4605 21.7581 21.3923 21.8358 21.3041 21.8358H5.48561C5.39217 21.8358 5.32393 21.7488 5.34598 21.6587C6.36331 17.4795 10.2132 15.4407 13.829 15.4407Z" fill="#287AF3"/>
</g>
<defs>
<clipPath id="clip0_1273_5909">
<rect width="93.4737" height="48" fill="white"/>
</clipPath>
</defs>
</svg>
