<svg width="82" height="40" viewBox="0 0 82 40" fill="none" xmlns="http://www.w3.org/2000/svg">
<path d="M20.8596 21.3551H5.27423C5.39669 23.8859 7.30912 26.0903 10.9306 26.0903C13.0151 26.1595 14.9697 25.0741 16.0173 23.2654L20.4119 23.7551C19.8017 26.5714 16.587 30.5308 10.8902 30.5308C4.54216 30.5389 0.269531 25.7146 0.269531 19.6811C0.269531 13.9259 4.33878 9.06865 10.5643 9.06865C16.9123 9.06865 20.8596 14.1303 20.8596 20.0486V21.3546V21.3551ZM5.27423 17.8859H16.0211C15.8587 15.6 14.0477 13.5184 10.9144 13.5184C7.86262 13.5184 5.39669 15.5103 5.27477 17.8859H5.27423ZM25.9188 30.6124H23.3094V2.4C23.3094 1.07459 24.3813 0 25.7046 0H28.3141V28.2124C28.3141 29.5378 27.2416 30.6124 25.9188 30.6124ZM36.2573 9.06919L42.5885 23.8449L48.5497 9.8C48.7375 9.35676 49.1712 9.06919 49.6513 9.06919H54.3038L41.6175 38.9054C41.3353 39.5692 40.6853 40 39.9651 40H35.7038L39.8016 30.3551L31.1107 9.90432C30.9812 9.59946 31.1226 9.24703 31.4268 9.1173C31.5013 9.08595 31.5811 9.06919 31.6615 9.06919H36.2573ZM65.8641 20.2486L56.7292 9.06919H63.4554L69.2294 16.1346L74.9996 9.06973H80.4655C80.7962 9.06973 81.0644 9.33784 81.0644 9.66973C81.0644 9.80811 81.0163 9.94216 80.9289 10.0497L72.5908 20.2486L81.0099 30.5503H74.288L69.2294 24.3665L64.1551 30.5503H58.7096C58.3789 30.5503 58.1108 30.2816 58.1108 29.9503C58.1108 29.8119 58.1588 29.6778 58.2462 29.5703L65.8641 20.2486Z" fill="#0076FC"/>
</svg>
