<svg width="98" height="48" viewBox="0 0 98 48" fill="none" xmlns="http://www.w3.org/2000/svg">
<path d="M24.9299 25.6262H6.30349C6.44985 28.6631 8.73544 31.3083 13.0636 31.3083C15.5548 31.3913 17.8907 30.0889 19.1428 27.9185L24.3948 28.5062C23.6656 31.8856 19.8236 36.637 13.0152 36.637C5.42858 36.6467 0.322266 30.8575 0.322266 23.6173C0.322266 16.7111 5.18552 10.8824 12.6258 10.8824C20.2124 10.8824 24.9299 16.9563 24.9299 24.0584V25.6255V25.6262ZM6.30349 21.4631H19.1473C18.9532 18.72 16.7888 16.2221 13.0442 16.2221C9.39694 16.2221 6.44984 18.6123 6.30413 21.4631H6.30349ZM30.9763 36.7349H27.8577V2.88C27.8577 1.28951 29.1388 0 30.7203 0H33.8389V33.8549C33.8389 35.4454 32.5572 36.7349 30.9763 36.7349V36.7349ZM43.332 10.883L50.8987 28.6138L58.023 11.76C58.2474 11.2281 58.7657 10.883 59.3395 10.883H64.8998L49.7381 46.6865C49.4009 47.483 48.624 48 47.7633 48H42.6705L47.5679 36.4262L37.1812 11.8852C37.0265 11.5194 37.1954 11.0964 37.559 10.9408C37.648 10.9031 37.7434 10.883 37.8395 10.883H43.332V10.883ZM78.7158 24.2984L67.7985 10.883H75.8371L82.7377 19.3615L89.6338 10.8837H96.1663C96.5615 10.8837 96.8819 11.2054 96.8819 11.6037C96.8819 11.7697 96.8245 11.9306 96.7201 12.0597L86.7551 24.2984L96.8168 36.6603H88.7834L82.7377 29.2398L76.6733 36.6603H70.1653C69.7701 36.6603 69.4497 36.3379 69.4497 35.9403C69.4497 35.7743 69.507 35.6134 69.6115 35.4843L78.7158 24.2984V24.2984Z" fill="white"/>
</svg>
