<svg width="24" height="24" viewBox="0 0 24 24" fill="none" xmlns="http://www.w3.org/2000/svg">
<path d="M12.0001 2C6.47724 2 2 6.49595 2 12.0419C2 17.0159 5.60522 21.1352 10.3322 21.9329V14.1369H7.91994V11.3314H10.3322V9.26274C10.3322 6.86251 11.7921 5.55453 13.9247 5.55453C14.9461 5.55453 15.8238 5.63095 16.0786 5.66461V8.17349L14.5995 8.17421C13.44 8.17421 13.2165 8.7274 13.2165 9.53946V11.33H15.9832L15.6223 14.1354H13.2165V22C18.1642 21.3953 22 17.171 22 12.039C22 6.49595 17.5228 2 12.0001 2Z" fill="black"/>
</svg>
