<svg width="24" height="24" viewBox="0 0 24 24" fill="none" xmlns="http://www.w3.org/2000/svg">
<path d="M20.9903 7.05766C19.8193 7.05766 18.7388 6.68273 17.8712 6.05025C16.8761 5.32519 16.1611 4.26162 15.9086 3.03576C15.8461 2.73288 15.8124 2.42032 15.8092 2.10001H12.464V10.9339L12.46 15.7727C12.46 17.0663 11.5883 18.1632 10.38 18.5489C10.0293 18.6609 9.65062 18.7139 9.25627 18.693C8.75291 18.6663 8.2812 18.5195 7.87122 18.2825C6.99875 17.7782 6.40721 16.8633 6.39118 15.8168C6.36594 14.1812 7.73416 12.8476 9.42539 12.8476C9.75923 12.8476 10.0798 12.9003 10.38 12.996V10.5815V9.71348C10.0634 9.66817 9.7412 9.64454 9.41537 9.64454C7.56423 9.64454 5.83292 10.3882 4.59535 11.7279C3.65996 12.7404 3.09888 14.0321 3.01232 15.3865C2.8989 17.1658 3.57259 18.8572 4.87909 20.1052C5.07106 20.2884 5.27264 20.4584 5.48345 20.6153C6.60359 21.4484 7.97301 21.9 9.41537 21.9C9.7412 21.9 10.0634 21.8768 10.38 21.8314C11.7274 21.6386 12.9706 21.0425 13.9517 20.1052C15.1572 18.9537 15.8232 17.425 15.8305 15.7978L15.8132 8.57206C16.3883 9.00082 17.0171 9.3556 17.692 9.63099C18.7416 10.059 19.8546 10.2759 21 10.2755V7.92796V7.05688C21.0008 7.05766 20.9911 7.05766 20.9903 7.05766V7.05766Z" fill="black"/>
</svg>
