<svg width="24" height="24" viewBox="0 0 24 24" fill="none" xmlns="http://www.w3.org/2000/svg">
<path d="M23 5.11613C22.1819 5.475 21.3101 5.71287 20.4012 5.82837C21.3362 5.27012 22.0499 4.39287 22.3854 3.3355C21.5136 3.85525 20.5511 4.22238 19.5254 4.42725C18.6976 3.54588 17.5179 3 16.2309 3C13.7339 3 11.7236 5.02675 11.7236 7.51138C11.7236 7.86888 11.7539 8.21262 11.8281 8.53987C8.0785 8.357 4.76063 6.55988 2.53175 3.82225C2.14262 4.49738 1.91438 5.27013 1.91438 6.102C1.91438 7.664 2.71875 9.04862 3.91775 9.85025C3.19312 9.8365 2.48225 9.62613 1.88 9.29475C1.88 9.3085 1.88 9.32637 1.88 9.34425C1.88 11.536 3.44337 13.3565 5.4935 13.7759C5.12637 13.8762 4.72625 13.9244 4.311 13.9244C4.02225 13.9244 3.73075 13.9079 3.45712 13.8474C4.0415 15.6335 5.69975 16.9466 7.6715 16.9892C6.137 18.1896 4.18863 18.9129 2.07938 18.9129C1.7095 18.9129 1.35475 18.8964 1 18.851C2.99787 20.1394 5.36563 20.875 7.919 20.875C16.2185 20.875 20.756 14 20.756 8.04075C20.756 7.84137 20.7491 7.64888 20.7395 7.45775C21.6346 6.8225 22.3867 6.02913 23 5.11613Z" fill="black"/>
</svg>
