<svg width="20" height="20" viewBox="0 0 20 20" fill="none" xmlns="http://www.w3.org/2000/svg">
<path fill-rule="evenodd" clip-rule="evenodd" d="M9.99992 19.1666C15.0625 19.1666 19.1666 15.0626 19.1666 9.99998C19.1666 4.93737 15.0625 0.833313 9.99992 0.833313C4.93731 0.833313 0.833252 4.93737 0.833252 9.99998C0.833252 15.0626 4.93731 19.1666 9.99992 19.1666ZM6.8181 13.3333H4.99992V8.33331H6.8181V13.3333ZM14.0908 7.91665C14.5908 7.91665 14.9999 8.29165 14.9999 8.74998V9.58331C14.9999 9.69165 14.9772 9.79165 14.9363 9.88748L13.5636 12.825C13.4272 13.125 13.1045 13.3333 12.7272 13.3333H8.63628C8.13628 13.3333 7.72719 12.9583 7.72719 12.5V8.33331C7.72719 8.10415 7.82719 7.89581 7.99537 7.74581L10.9863 4.99998L11.4681 5.43748C11.5908 5.54998 11.6681 5.70831 11.6681 5.87915L11.6545 6.01248L11.2226 7.91665H14.0908Z" fill="#959CA9"/>
</svg>
