<svg width="32" height="32" viewBox="0 0 32 32" fill="none" xmlns="http://www.w3.org/2000/svg">
<path fill-rule="evenodd" clip-rule="evenodd" d="M6.876 7.9C6.876 8.1387 6.97082 8.36761 7.1396 8.5364C7.30839 8.70518 7.53731 8.8 7.776 8.8H24.224C24.3422 8.8 24.4592 8.77672 24.5684 8.73149C24.6776 8.68626 24.7768 8.61997 24.8604 8.5364C24.944 8.45282 25.0103 8.35361 25.0555 8.24442C25.1007 8.13522 25.124 8.01819 25.124 7.9C25.124 7.78181 25.1007 7.66478 25.0555 7.55558C25.0103 7.44639 24.944 7.34718 24.8604 7.2636C24.7768 7.18003 24.6776 7.11374 24.5684 7.06851C24.4592 7.02328 24.3422 7 24.224 7H7.776C7.53731 7 7.30839 7.09482 7.1396 7.2636C6.97082 7.43239 6.876 7.66131 6.876 7.9ZM4 12.4V22.804C4 23.3875 4.23179 23.9471 4.64437 24.3596C5.05695 24.7722 5.61652 25.004 6.2 25.004H25.8C26.3835 25.004 26.9431 24.7722 27.3556 24.3596C27.7682 23.9471 28 23.3875 28 22.804V12.4C28 11.8165 27.7682 11.2569 27.3556 10.8444C26.9431 10.4318 26.3835 10.2 25.8 10.2H6.2C5.61652 10.2 5.05695 10.4318 4.64437 10.8444C4.23179 11.2569 4 11.8165 4 12.4V12.4ZM7.692 12.23H24.308C24.308 13.22 25.134 14.022 26.154 14.022V21.188C25.134 21.188 24.308 21.99 24.308 22.98H7.692C7.692 21.99 6.866 21.188 5.846 21.188V14.022C6.866 14.022 7.692 13.22 7.692 12.23ZM16 21.05C16.9786 21.05 17.9172 20.6612 18.6092 19.9692C19.3012 19.2772 19.69 18.3386 19.69 17.36C19.69 16.3814 19.3012 15.4428 18.6092 14.7508C17.9172 14.0588 16.9786 13.67 16 13.67C15.0214 13.67 14.0828 14.0588 13.3908 14.7508C12.6988 15.4428 12.31 16.3814 12.31 17.36C12.31 18.3386 12.6988 19.2772 13.3908 19.9692C14.0828 20.6612 15.0214 21.05 16 21.05ZM8.6 16.467C8.103 16.467 7.7 16.868 7.7 17.362C7.7 17.856 8.103 18.257 8.6 18.257C9.097 18.257 9.5 17.857 9.5 17.362C9.49974 17.2441 9.47624 17.1274 9.43086 17.0187C9.38548 16.9099 9.31909 16.8111 9.23551 16.728C9.15192 16.6448 9.05277 16.579 8.94373 16.5342C8.83468 16.4894 8.71788 16.4666 8.6 16.467ZM23.4 16.467C22.903 16.467 22.5 16.868 22.5 17.362C22.5 17.856 22.903 18.257 23.4 18.257C23.897 18.257 24.3 17.857 24.3 17.362C24.2997 17.2441 24.2762 17.1274 24.2309 17.0187C24.1855 16.9099 24.1191 16.8111 24.0355 16.728C23.9519 16.6448 23.8528 16.579 23.7437 16.5342C23.6347 16.4894 23.5179 16.4666 23.4 16.467Z" fill="#7AB209"/>
</svg>
