<svg width="32" height="32" viewBox="0 0 32 32" fill="none" xmlns="http://www.w3.org/2000/svg">
<path d="M28 5H4C1.79086 5 0 6.79086 0 9V23C0 25.2091 1.79086 27 4 27H28C30.2091 27 32 25.2091 32 23V9C32 6.79086 30.2091 5 28 5Z" fill="#EEEEEE"/>
<path d="M18.6619 11.3012H13.3223V20.8644H18.6619V11.3012Z" fill="#FF5A00"/>
<path d="M13.6777 16.0828C13.6777 14.1399 14.594 12.4154 16 11.3012C14.9652 10.4902 13.66 10 12.2362 10C8.86337 10 6.13431 12.7205 6.13431 16.0828C6.13431 19.4451 8.86337 22.1656 12.2362 22.1656C13.66 22.1656 14.9652 21.6754 16 20.8644C14.592 19.766 13.6777 18.0258 13.6777 16.0828Z" fill="#EB001B"/>
<path d="M25.8657 16.0828C25.8657 19.4451 23.1366 22.1656 19.7638 22.1656C18.34 22.1656 17.0347 21.6754 16 20.8644C17.4238 19.7482 18.3223 18.0258 18.3223 16.0828C18.3223 14.1399 17.406 12.4154 16 11.3012C17.0328 10.4902 18.3381 10 19.7618 10C23.1366 10 25.8657 12.7382 25.8657 16.0828Z" fill="#F79E1B"/>
</svg>
