<svg width="32" height="32" viewBox="0 0 32 32" fill="none" xmlns="http://www.w3.org/2000/svg">
<path d="M28 5H4C1.79086 5 0 6.79086 0 9V23C0 25.2091 1.79086 27 4 27H28C30.2091 27 32 25.2091 32 23V9C32 6.79086 30.2091 5 28 5Z" fill="#EEEEEE"/>
<path d="M7.626 16.307L6.89 12.884C6.83341 12.6811 6.70512 12.5056 6.52894 12.3901C6.35276 12.2746 6.14065 12.2269 5.932 12.256H2.526L2.5 12.419C5.148 13.031 6.898 14.514 7.626 16.307ZM10.099 12.331L7.948 17.614L7.726 16.818C7.0146 15.4949 5.96179 14.3865 4.677 13.608L6.641 20.065H8.963L12.42 12.331H10.1H10.099ZM13.313 12.331L11.941 20.081H14.119L15.495 12.331H13.313ZM27.723 12.331H26.016C25.7803 12.299 25.5405 12.3446 25.333 12.461C25.1255 12.5774 24.9616 12.7582 24.866 12.976L21.622 20.073H23.926C23.926 20.073 24.3 19.118 24.387 18.909H27.197C27.262 19.177 27.462 20.065 27.462 20.065H29.5L27.723 12.331ZM25.019 17.325C25.202 16.881 25.889 15.159 25.889 15.159C25.889 15.159 26.073 14.715 26.182 14.422L26.334 15.088L26.839 17.325H25.019ZM19.919 15.435C19.157 15.079 18.687 14.836 18.691 14.476C18.696 14.116 19.088 13.81 19.945 13.81C20.5069 13.7951 21.0659 13.8962 21.587 14.107L21.787 14.195L22.084 12.52C21.4528 12.3002 20.7884 12.191 20.12 12.197C17.942 12.197 16.422 13.244 16.41 14.753C16.41 15.863 17.498 16.487 18.33 16.847C19.162 17.207 19.484 17.472 19.484 17.811C19.484 18.331 18.8 18.569 18.177 18.569C17.4664 18.5851 16.7611 18.442 16.113 18.15L15.83 18.025L15.521 19.759C16.304 20.04 17.133 20.182 17.968 20.179C20.272 20.179 21.77 19.139 21.788 17.53C21.783 16.659 21.2 15.989 19.919 15.436V15.435Z" fill="#273991"/>
<path d="M6.89 12.884C6.83341 12.6811 6.70512 12.5056 6.52894 12.3901C6.35276 12.2746 6.14065 12.2269 5.932 12.256H2.526L2.5 12.419C5.148 13.035 6.898 14.514 7.626 16.311L6.89 12.884Z" fill="#F99F1B"/>
</svg>
