<svg width="64" height="64" viewBox="0 0 64 64" fill="none" xmlns="http://www.w3.org/2000/svg">
<circle cx="32.0001" cy="31.9998" r="13.3333" fill="#0076FC"/>
<g filter="url(#filter0_bi_809_6016)">
<mask id="path-3-inside-1_809_6016" fill="white">
<path fill-rule="evenodd" clip-rule="evenodd" d="M48.0606 10.517C47.4748 9.93119 46.525 9.93119 45.9392 10.517L10.5167 45.9395C9.93095 46.5253 9.93095 47.475 10.5167 48.0608L15.9379 53.4819C16.5237 54.0677 17.4734 54.0677 18.0592 53.4819L53.4817 18.0594C54.0675 17.4737 54.0675 16.5239 53.4817 15.9381L48.0606 10.517ZM26.6666 18.6666C26.6666 23.0849 23.0848 26.6666 18.6666 26.6666C14.2483 26.6666 10.6666 23.0849 10.6666 18.6666C10.6666 14.2483 14.2483 10.6666 18.6666 10.6666C23.0848 10.6666 26.6666 14.2483 26.6666 18.6666ZM53.3332 45.3333C53.3332 49.7515 49.7515 53.3333 45.3332 53.3333C40.9149 53.3333 37.3332 49.7515 37.3332 45.3333C37.3332 40.915 40.9149 37.3333 45.3332 37.3333C49.7515 37.3333 53.3332 40.915 53.3332 45.3333Z"/>
</mask>
<path fill-rule="evenodd" clip-rule="evenodd" d="M48.0606 10.517C47.4748 9.93119 46.525 9.93119 45.9392 10.517L10.5167 45.9395C9.93095 46.5253 9.93095 47.475 10.5167 48.0608L15.9379 53.4819C16.5237 54.0677 17.4734 54.0677 18.0592 53.4819L53.4817 18.0594C54.0675 17.4737 54.0675 16.5239 53.4817 15.9381L48.0606 10.517ZM26.6666 18.6666C26.6666 23.0849 23.0848 26.6666 18.6666 26.6666C14.2483 26.6666 10.6666 23.0849 10.6666 18.6666C10.6666 14.2483 14.2483 10.6666 18.6666 10.6666C23.0848 10.6666 26.6666 14.2483 26.6666 18.6666ZM53.3332 45.3333C53.3332 49.7515 49.7515 53.3333 45.3332 53.3333C40.9149 53.3333 37.3332 49.7515 37.3332 45.3333C37.3332 40.915 40.9149 37.3333 45.3332 37.3333C49.7515 37.3333 53.3332 40.915 53.3332 45.3333Z" fill="#F1F1F1" fill-opacity="0.1"/>
<path fill-rule="evenodd" clip-rule="evenodd" d="M48.0606 10.517C47.4748 9.93119 46.525 9.93119 45.9392 10.517L10.5167 45.9395C9.93095 46.5253 9.93095 47.475 10.5167 48.0608L15.9379 53.4819C16.5237 54.0677 17.4734 54.0677 18.0592 53.4819L53.4817 18.0594C54.0675 17.4737 54.0675 16.5239 53.4817 15.9381L48.0606 10.517ZM26.6666 18.6666C26.6666 23.0849 23.0848 26.6666 18.6666 26.6666C14.2483 26.6666 10.6666 23.0849 10.6666 18.6666C10.6666 14.2483 14.2483 10.6666 18.6666 10.6666C23.0848 10.6666 26.6666 14.2483 26.6666 18.6666ZM53.3332 45.3333C53.3332 49.7515 49.7515 53.3333 45.3332 53.3333C40.9149 53.3333 37.3332 49.7515 37.3332 45.3333C37.3332 40.915 40.9149 37.3333 45.3332 37.3333C49.7515 37.3333 53.3332 40.915 53.3332 45.3333Z" fill="url(#paint0_linear_809_6016)" fill-opacity="0.2"/>
<path d="M45.9392 10.517L46.0806 10.6584V10.6584L45.9392 10.517ZM48.0606 10.517L48.202 10.3756V10.3756L48.0606 10.517ZM10.5167 45.9395L10.6582 46.0809H10.6582L10.5167 45.9395ZM10.5167 48.0608L10.6582 47.9194H10.6582L10.5167 48.0608ZM15.9379 53.4819L16.0793 53.3405H16.0793L15.9379 53.4819ZM18.0592 53.4819L18.2006 53.6234L18.0592 53.4819ZM53.4817 18.0594L53.6231 18.2009V18.2009L53.4817 18.0594ZM53.4817 15.9381L53.6231 15.7967V15.7967L53.4817 15.9381ZM46.0806 10.6584C46.5883 10.1507 47.4114 10.1507 47.9191 10.6584L48.202 10.3756C47.5381 9.71166 46.4617 9.71166 45.7978 10.3756L46.0806 10.6584ZM10.6582 46.0809L46.0806 10.6584L45.7978 10.3756L10.3753 45.798L10.6582 46.0809ZM10.6582 47.9194C10.1505 47.4117 10.1505 46.5886 10.6582 46.0809L10.3753 45.798C9.71142 46.4619 9.71142 47.5383 10.3753 48.2022L10.6582 47.9194ZM16.0793 53.3405L10.6582 47.9194L10.3753 48.2022L15.7965 53.6234L16.0793 53.3405ZM17.9178 53.3405C17.4101 53.8482 16.587 53.8482 16.0793 53.3405L15.7965 53.6234C16.4604 54.2873 17.5367 54.2873 18.2006 53.6234L17.9178 53.3405ZM53.3403 17.918L17.9178 53.3405L18.2006 53.6234L53.6231 18.2009L53.3403 17.918ZM53.3403 16.0795C53.848 16.5872 53.848 17.4103 53.3403 17.918L53.6231 18.2009C54.287 17.537 54.287 16.4606 53.6231 15.7967L53.3403 16.0795ZM47.9191 10.6584L53.3403 16.0795L53.6231 15.7967L48.202 10.3756L47.9191 10.6584ZM18.6666 26.8666C23.1953 26.8666 26.8666 23.1953 26.8666 18.6666H26.4666C26.4666 22.9744 22.9744 26.4666 18.6666 26.4666V26.8666ZM10.4666 18.6666C10.4666 23.1953 14.1378 26.8666 18.6666 26.8666V26.4666C14.3587 26.4666 10.8666 22.9744 10.8666 18.6666H10.4666ZM18.6666 10.4666C14.1378 10.4666 10.4666 14.1379 10.4666 18.6666H10.8666C10.8666 14.3588 14.3587 10.8666 18.6666 10.8666V10.4666ZM26.8666 18.6666C26.8666 14.1379 23.1953 10.4666 18.6666 10.4666V10.8666C22.9744 10.8666 26.4666 14.3588 26.4666 18.6666H26.8666ZM45.3332 53.5333C49.862 53.5333 53.5332 49.862 53.5332 45.3333H53.1332C53.1332 49.6411 49.641 53.1333 45.3332 53.1333V53.5333ZM37.1332 45.3333C37.1332 49.862 40.8045 53.5333 45.3332 53.5333V53.1333C41.0254 53.1333 37.5332 49.6411 37.5332 45.3333H37.1332ZM45.3332 37.1333C40.8045 37.1333 37.1332 40.8045 37.1332 45.3333H37.5332C37.5332 41.0254 41.0254 37.5333 45.3332 37.5333V37.1333ZM53.5332 45.3333C53.5332 40.8045 49.862 37.1333 45.3332 37.1333V37.5333C49.641 37.5333 53.1332 41.0254 53.1332 45.3333H53.5332Z" fill="url(#paint1_linear_809_6016)" fill-opacity="0.1" mask="url(#path-3-inside-1_809_6016)"/>
</g>
<defs>
<filter id="filter0_bi_809_6016" x="7.07739" y="7.07764" width="49.8438" height="49.8438" filterUnits="userSpaceOnUse" color-interpolation-filters="sRGB">
<feFlood flood-opacity="0" result="BackgroundImageFix"/>
<feGaussianBlur in="BackgroundImage" stdDeviation="1.5"/>
<feComposite in2="SourceAlpha" operator="in" result="effect1_backgroundBlur_809_6016"/>
<feBlend mode="normal" in="SourceGraphic" in2="effect1_backgroundBlur_809_6016" result="shape"/>
<feColorMatrix in="SourceAlpha" type="matrix" values="0 0 0 0 0 0 0 0 0 0 0 0 0 0 0 0 0 0 127 0" result="hardAlpha"/>
<feOffset dy="0.5"/>
<feGaussianBlur stdDeviation="1"/>
<feComposite in2="hardAlpha" operator="arithmetic" k2="-1" k3="1"/>
<feColorMatrix type="matrix" values="0 0 0 0 1 0 0 0 0 1 0 0 0 0 1 0 0 0 0.4 0"/>
<feBlend mode="normal" in2="shape" result="effect2_innerShadow_809_6016"/>
</filter>
<linearGradient id="paint0_linear_809_6016" x1="10.0774" y1="10.0776" x2="61.7239" y2="23.1916" gradientUnits="userSpaceOnUse">
<stop stop-color="#287AF3"/>
<stop offset="1" stop-color="#A3CEF5"/>
</linearGradient>
<linearGradient id="paint1_linear_809_6016" x1="11.4475" y1="12.0705" x2="53.921" y2="12.0705" gradientUnits="userSpaceOnUse">
<stop stop-color="#287AF3"/>
<stop offset="1" stop-color="#7AA9ED"/>
</linearGradient>
</defs>
</svg>
