<svg width="64" height="64" viewBox="0 0 64 64" fill="none" xmlns="http://www.w3.org/2000/svg">
<circle cx="22.3047" cy="38.3041" r="12" transform="rotate(45 22.3047 38.3041)" fill="#0076FC"/>
<g filter="url(#filter0_bi_809_6021)">
<path d="M48.9494 13.0879L36.2426 11.2726C33.4284 10.8706 30.5714 10.8706 27.7573 11.2726L15.0504 13.0879C14.0651 13.2286 13.3333 14.0725 13.3333 15.0678V27.9235C13.3333 38.6892 19.1018 48.6295 28.4491 53.9708L31.0076 55.4328C31.6225 55.7842 32.3773 55.7842 32.9922 55.4328L35.5508 53.9708C44.898 48.6295 50.6666 38.6892 50.6666 27.9235V15.0678C50.6666 14.0725 49.9347 13.2286 48.9494 13.0879Z" fill="#F1F1F1" fill-opacity="0.1"/>
<path d="M48.9494 13.0879L36.2426 11.2726C33.4284 10.8706 30.5714 10.8706 27.7573 11.2726L15.0504 13.0879C14.0651 13.2286 13.3333 14.0725 13.3333 15.0678V27.9235C13.3333 38.6892 19.1018 48.6295 28.4491 53.9708L31.0076 55.4328C31.6225 55.7842 32.3773 55.7842 32.9922 55.4328L35.5508 53.9708C44.898 48.6295 50.6666 38.6892 50.6666 27.9235V15.0678C50.6666 14.0725 49.9347 13.2286 48.9494 13.0879Z" fill="url(#paint0_linear_809_6021)" fill-opacity="0.2"/>
<path d="M36.2284 11.3716L48.9353 13.1869C49.8713 13.3206 50.5666 14.1222 50.5666 15.0678V27.9235C50.5666 38.6533 44.8172 48.5605 35.5011 53.884L32.9426 55.346C32.3585 55.6798 31.6414 55.6798 31.0573 55.346L28.4987 53.884C19.1826 48.5605 13.4333 38.6533 13.4333 27.9235V15.0678C13.4333 14.1222 14.1285 13.3206 15.0646 13.1869L27.7714 11.3716C30.5762 10.9709 33.4237 10.9709 36.2284 11.3716Z" stroke="url(#paint1_linear_809_6021)" stroke-opacity="0.1" stroke-width="0.2"/>
</g>
<g filter="url(#filter1_i_809_6021)">
<path d="M41.9306 28.2643C42.9119 27.2888 42.9119 25.7071 41.9306 24.7316C40.9493 23.7561 39.3583 23.7561 38.3771 24.7316L29.0854 33.9686L25.6228 30.5264C24.6415 29.5509 23.0505 29.5509 22.0692 30.5264C21.0879 31.5019 21.0879 33.0835 22.0692 34.059L27.2575 39.2167C27.274 39.2341 27.2908 39.2513 27.3079 39.2683C27.7449 39.7027 28.3028 39.9436 28.8739 39.9912C28.8934 39.9928 28.9129 39.9942 28.9324 39.9953C29.6257 40.0374 30.3332 39.7951 30.863 39.2684C30.8814 39.2501 30.8995 39.2316 30.9172 39.2129L41.9306 28.2643Z" fill="white" fill-opacity="0.16"/>
</g>
<defs>
<filter id="filter0_bi_809_6021" x="10.3333" y="7.97119" width="43.3333" height="50.7251" filterUnits="userSpaceOnUse" color-interpolation-filters="sRGB">
<feFlood flood-opacity="0" result="BackgroundImageFix"/>
<feGaussianBlur in="BackgroundImage" stdDeviation="1.5"/>
<feComposite in2="SourceAlpha" operator="in" result="effect1_backgroundBlur_809_6021"/>
<feBlend mode="normal" in="SourceGraphic" in2="effect1_backgroundBlur_809_6021" result="shape"/>
<feColorMatrix in="SourceAlpha" type="matrix" values="0 0 0 0 0 0 0 0 0 0 0 0 0 0 0 0 0 0 127 0" result="hardAlpha"/>
<feOffset dy="0.5"/>
<feGaussianBlur stdDeviation="1"/>
<feComposite in2="hardAlpha" operator="arithmetic" k2="-1" k3="1"/>
<feColorMatrix type="matrix" values="0 0 0 0 1 0 0 0 0 1 0 0 0 0 1 0 0 0 0.4 0"/>
<feBlend mode="normal" in2="shape" result="effect2_innerShadow_809_6021"/>
</filter>
<filter id="filter1_i_809_6021" x="21.3333" y="24" width="21.3333" height="16.5" filterUnits="userSpaceOnUse" color-interpolation-filters="sRGB">
<feFlood flood-opacity="0" result="BackgroundImageFix"/>
<feBlend mode="normal" in="SourceGraphic" in2="BackgroundImageFix" result="shape"/>
<feColorMatrix in="SourceAlpha" type="matrix" values="0 0 0 0 0 0 0 0 0 0 0 0 0 0 0 0 0 0 127 0" result="hardAlpha"/>
<feOffset dy="0.5"/>
<feGaussianBlur stdDeviation="0.25"/>
<feComposite in2="hardAlpha" operator="arithmetic" k2="-1" k3="1"/>
<feColorMatrix type="matrix" values="0 0 0 0 1 0 0 0 0 1 0 0 0 0 1 0 0 0 0.4 0"/>
<feBlend mode="normal" in2="shape" result="effect1_innerShadow_809_6021"/>
</filter>
<linearGradient id="paint0_linear_809_6021" x1="13.3333" y1="10.6665" x2="58.185" y2="20.0454" gradientUnits="userSpaceOnUse">
<stop stop-color="#287AF3"/>
<stop offset="1" stop-color="#A3CEF5"/>
</linearGradient>
<linearGradient id="paint1_linear_809_6021" x1="14.4999" y1="12.7271" x2="50.6666" y2="12.7271" gradientUnits="userSpaceOnUse">
<stop stop-color="#287AF3"/>
<stop offset="1" stop-color="#7AA9ED"/>
</linearGradient>
</defs>
</svg>
