<svg width="64" height="64" viewBox="0 0 64 64" fill="none" xmlns="http://www.w3.org/2000/svg">
<rect x="5.3335" y="50.6665" width="56" height="8" rx="1" fill="#0076FC"/>
<g filter="url(#filter0_bi_809_6026)">
<mask id="path-3-inside-1_809_6026" fill="white">
<path fill-rule="evenodd" clip-rule="evenodd" d="M26.6667 9.5C26.6667 8.67157 27.3382 8 28.1667 8H38.5C39.3284 8 40 8.67157 40 9.5V54.5C40 55.3284 39.3284 56 38.5 56H28.1667C27.3382 56 26.6667 55.3284 26.6667 54.5V9.5ZM8 25.5C8 24.6716 8.67157 24 9.5 24H19.8333C20.6618 24 21.3333 24.6716 21.3333 25.5V54.5C21.3333 55.3284 20.6618 56 19.8333 56H9.5C8.67157 56 8 55.3284 8 54.5V25.5ZM46.8333 32C46.0049 32 45.3333 32.6716 45.3333 33.5V54.5C45.3333 55.3284 46.0049 56 46.8333 56H57.1667C57.9951 56 58.6667 55.3284 58.6667 54.5V33.5C58.6667 32.6716 57.9951 32 57.1667 32H46.8333Z"/>
</mask>
<path fill-rule="evenodd" clip-rule="evenodd" d="M26.6667 9.5C26.6667 8.67157 27.3382 8 28.1667 8H38.5C39.3284 8 40 8.67157 40 9.5V54.5C40 55.3284 39.3284 56 38.5 56H28.1667C27.3382 56 26.6667 55.3284 26.6667 54.5V9.5ZM8 25.5C8 24.6716 8.67157 24 9.5 24H19.8333C20.6618 24 21.3333 24.6716 21.3333 25.5V54.5C21.3333 55.3284 20.6618 56 19.8333 56H9.5C8.67157 56 8 55.3284 8 54.5V25.5ZM46.8333 32C46.0049 32 45.3333 32.6716 45.3333 33.5V54.5C45.3333 55.3284 46.0049 56 46.8333 56H57.1667C57.9951 56 58.6667 55.3284 58.6667 54.5V33.5C58.6667 32.6716 57.9951 32 57.1667 32H46.8333Z" fill="#F1F1F1" fill-opacity="0.1"/>
<path fill-rule="evenodd" clip-rule="evenodd" d="M26.6667 9.5C26.6667 8.67157 27.3382 8 28.1667 8H38.5C39.3284 8 40 8.67157 40 9.5V54.5C40 55.3284 39.3284 56 38.5 56H28.1667C27.3382 56 26.6667 55.3284 26.6667 54.5V9.5ZM8 25.5C8 24.6716 8.67157 24 9.5 24H19.8333C20.6618 24 21.3333 24.6716 21.3333 25.5V54.5C21.3333 55.3284 20.6618 56 19.8333 56H9.5C8.67157 56 8 55.3284 8 54.5V25.5ZM46.8333 32C46.0049 32 45.3333 32.6716 45.3333 33.5V54.5C45.3333 55.3284 46.0049 56 46.8333 56H57.1667C57.9951 56 58.6667 55.3284 58.6667 54.5V33.5C58.6667 32.6716 57.9951 32 57.1667 32H46.8333Z" fill="url(#paint0_linear_809_6026)" fill-opacity="0.2"/>
<path d="M28.1667 7.8C27.2278 7.8 26.4667 8.56112 26.4667 9.5H26.8667C26.8667 8.78203 27.4487 8.2 28.1667 8.2V7.8ZM38.5 7.8H28.1667V8.2H38.5V7.8ZM40.2 9.5C40.2 8.56112 39.4389 7.8 38.5 7.8V8.2C39.218 8.2 39.8 8.78203 39.8 9.5H40.2ZM40.2 54.5V9.5H39.8V54.5H40.2ZM38.5 56.2C39.4389 56.2 40.2 55.4389 40.2 54.5H39.8C39.8 55.218 39.218 55.8 38.5 55.8V56.2ZM28.1667 56.2H38.5V55.8H28.1667V56.2ZM26.4667 54.5C26.4667 55.4389 27.2278 56.2 28.1667 56.2V55.8C27.4487 55.8 26.8667 55.218 26.8667 54.5H26.4667ZM26.4667 9.5V54.5H26.8667V9.5H26.4667ZM9.5 23.8C8.56112 23.8 7.8 24.5611 7.8 25.5H8.2C8.2 24.782 8.78203 24.2 9.5 24.2V23.8ZM19.8333 23.8H9.5V24.2H19.8333V23.8ZM21.5333 25.5C21.5333 24.5611 20.7722 23.8 19.8333 23.8V24.2C20.5513 24.2 21.1333 24.782 21.1333 25.5H21.5333ZM21.5333 54.5V25.5H21.1333V54.5H21.5333ZM19.8333 56.2C20.7722 56.2 21.5333 55.4389 21.5333 54.5H21.1333C21.1333 55.218 20.5513 55.8 19.8333 55.8V56.2ZM9.5 56.2H19.8333V55.8H9.5V56.2ZM7.8 54.5C7.8 55.4389 8.56111 56.2 9.5 56.2V55.8C8.78203 55.8 8.2 55.218 8.2 54.5H7.8ZM7.8 25.5V54.5H8.2V25.5H7.8ZM45.5333 33.5C45.5333 32.782 46.1154 32.2 46.8333 32.2V31.8C45.8944 31.8 45.1333 32.5611 45.1333 33.5H45.5333ZM45.5333 54.5V33.5H45.1333V54.5H45.5333ZM46.8333 55.8C46.1154 55.8 45.5333 55.218 45.5333 54.5H45.1333C45.1333 55.4389 45.8944 56.2 46.8333 56.2V55.8ZM57.1667 55.8H46.8333V56.2H57.1667V55.8ZM58.4667 54.5C58.4667 55.218 57.8846 55.8 57.1667 55.8V56.2C58.1056 56.2 58.8667 55.4389 58.8667 54.5H58.4667ZM58.4667 33.5V54.5H58.8667V33.5H58.4667ZM57.1667 32.2C57.8846 32.2 58.4667 32.782 58.4667 33.5H58.8667C58.8667 32.5611 58.1056 31.8 57.1667 31.8V32.2ZM46.8333 32.2H57.1667V31.8H46.8333V32.2Z" fill="url(#paint1_linear_809_6026)" fill-opacity="0.1" mask="url(#path-3-inside-1_809_6026)"/>
</g>
<defs>
<filter id="filter0_bi_809_6026" x="5" y="5" width="56.6665" height="54" filterUnits="userSpaceOnUse" color-interpolation-filters="sRGB">
<feFlood flood-opacity="0" result="BackgroundImageFix"/>
<feGaussianBlur in="BackgroundImage" stdDeviation="1.5"/>
<feComposite in2="SourceAlpha" operator="in" result="effect1_backgroundBlur_809_6026"/>
<feBlend mode="normal" in="SourceGraphic" in2="effect1_backgroundBlur_809_6026" result="shape"/>
<feColorMatrix in="SourceAlpha" type="matrix" values="0 0 0 0 0 0 0 0 0 0 0 0 0 0 0 0 0 0 127 0" result="hardAlpha"/>
<feOffset dy="0.5"/>
<feGaussianBlur stdDeviation="1"/>
<feComposite in2="hardAlpha" operator="arithmetic" k2="-1" k3="1"/>
<feColorMatrix type="matrix" values="0 0 0 0 1 0 0 0 0 1 0 0 0 0 1 0 0 0 0.4 0"/>
<feBlend mode="normal" in2="shape" result="effect2_innerShadow_809_6026"/>
</filter>
<linearGradient id="paint0_linear_809_6026" x1="8" y1="8" x2="67.2738" y2="23.8869" gradientUnits="userSpaceOnUse">
<stop stop-color="#287AF3"/>
<stop offset="1" stop-color="#A3CEF5"/>
</linearGradient>
<linearGradient id="paint1_linear_809_6026" x1="9.58333" y1="10.1818" x2="58.6667" y2="10.1818" gradientUnits="userSpaceOnUse">
<stop stop-color="#287AF3"/>
<stop offset="1" stop-color="#7AA9ED"/>
</linearGradient>
</defs>
</svg>
