<svg width="64" height="64" viewBox="0 0 64 64" fill="none" xmlns="http://www.w3.org/2000/svg">
<rect x="16" y="8" width="32" height="8" rx="1" fill="#0076FC"/>
<g filter="url(#filter0_bi_690_10301)">
<path d="M22.605 5.33331C20.7184 5.33331 19.4284 7.23872 20.129 8.99036L23.329 16.9904C23.734 18.0028 24.7146 18.6666 25.805 18.6666H38.1941C39.2845 18.6666 40.2651 18.0028 40.6701 16.9904L43.8701 8.99036C44.5707 7.23872 43.2807 5.33331 41.3941 5.33331H22.605Z" fill="white" fill-opacity="0.16"/>
<path d="M22.605 5.33331C20.7184 5.33331 19.4284 7.23872 20.129 8.99036L23.329 16.9904C23.734 18.0028 24.7146 18.6666 25.805 18.6666H38.1941C39.2845 18.6666 40.2651 18.0028 40.6701 16.9904L43.8701 8.99036C44.5707 7.23872 43.2807 5.33331 41.3941 5.33331H22.605Z" fill="url(#paint0_linear_690_10301)" fill-opacity="0.2"/>
<path d="M26.0363 21.3333C24.8338 21.3333 23.7801 22.1382 23.4636 23.2983L16.5053 48.8123C16.2033 49.9197 16.6437 51.0961 17.5988 51.7328L30.5204 60.3472C31.4161 60.9443 32.583 60.9443 33.4788 60.3472L46.4003 51.7328C47.3554 51.0961 47.7959 49.9197 47.4938 48.8123L40.5355 23.2983C40.2191 22.1382 39.1653 21.3333 37.9628 21.3333H26.0363Z" fill="white" fill-opacity="0.16"/>
<path d="M26.0363 21.3333C24.8338 21.3333 23.7801 22.1382 23.4636 23.2983L16.5053 48.8123C16.2033 49.9197 16.6437 51.0961 17.5988 51.7328L30.5204 60.3472C31.4161 60.9443 32.583 60.9443 33.4788 60.3472L46.4003 51.7328C47.3554 51.0961 47.7959 49.9197 47.4938 48.8123L40.5355 23.2983C40.2191 22.1382 39.1653 21.3333 37.9628 21.3333H26.0363Z" fill="url(#paint1_linear_690_10301)" fill-opacity="0.2"/>
<path d="M20.2219 8.95322C19.5475 7.26727 20.7892 5.43331 22.605 5.43331H41.3941C43.21 5.43331 44.4516 7.26726 43.7772 8.95322L40.5772 16.9532C40.1874 17.9277 39.2437 18.5666 38.1941 18.5666H25.805C24.7555 18.5666 23.8117 17.9277 23.4219 16.9532L20.2219 8.95322ZM23.5601 23.3246C23.8647 22.208 24.8789 21.4333 26.0363 21.4333H37.9628C39.1202 21.4333 40.1345 22.208 40.439 23.3246L47.3974 48.8387C47.688 49.9045 47.2641 51.0368 46.3449 51.6496L33.4233 60.264C32.5611 60.8387 31.438 60.8387 30.5758 60.264L17.6543 51.6496C16.735 51.0368 16.3111 49.9045 16.6018 48.8387L23.5601 23.3246Z" stroke="url(#paint2_linear_690_10301)" stroke-opacity="0.1" stroke-width="0.2"/>
</g>
<defs>
<filter id="filter0_bi_690_10301" x="13.4111" y="2.33331" width="37.1768" height="61.4617" filterUnits="userSpaceOnUse" color-interpolation-filters="sRGB">
<feFlood flood-opacity="0" result="BackgroundImageFix"/>
<feGaussianBlur in="BackgroundImage" stdDeviation="1.5"/>
<feComposite in2="SourceAlpha" operator="in" result="effect1_backgroundBlur_690_10301"/>
<feBlend mode="normal" in="SourceGraphic" in2="effect1_backgroundBlur_690_10301" result="shape"/>
<feColorMatrix in="SourceAlpha" type="matrix" values="0 0 0 0 0 0 0 0 0 0 0 0 0 0 0 0 0 0 127 0" result="hardAlpha"/>
<feOffset dy="0.5"/>
<feGaussianBlur stdDeviation="1"/>
<feComposite in2="hardAlpha" operator="arithmetic" k2="-1" k3="1"/>
<feColorMatrix type="matrix" values="0 0 0 0 1 0 0 0 0 1 0 0 0 0 1 0 0 0 0.4 0"/>
<feBlend mode="normal" in2="shape" result="effect2_innerShadow_690_10301"/>
</filter>
<linearGradient id="paint0_linear_690_10301" x1="16.4111" y1="5.33331" x2="54.7238" y2="10.8019" gradientUnits="userSpaceOnUse">
<stop stop-color="#8AB9FF"/>
<stop offset="1" stop-color="#094CAF"/>
</linearGradient>
<linearGradient id="paint1_linear_690_10301" x1="16.4111" y1="5.33331" x2="54.7238" y2="10.8019" gradientUnits="userSpaceOnUse">
<stop stop-color="#8AB9FF"/>
<stop offset="1" stop-color="#094CAF"/>
</linearGradient>
<linearGradient id="paint2_linear_690_10301" x1="17.3854" y1="7.8543" x2="47.588" y2="7.8543" gradientUnits="userSpaceOnUse">
<stop stop-color="#8AB9FF"/>
<stop offset="1" stop-color="#1662D1"/>
</linearGradient>
</defs>
</svg>
