<svg width="64" height="64" viewBox="0 0 64 64" fill="none" xmlns="http://www.w3.org/2000/svg">
<circle cx="45.3337" cy="21.3334" r="10.6667" fill="#0076FC"/>
<circle cx="21.3337" cy="29.3334" r="2.66667" fill="#0076FC"/>
<circle cx="31.9997" cy="29.3334" r="2.66667" fill="#0076FC"/>
<ellipse cx="42.6667" cy="29.3334" rx="2.66667" ry="2.66667" fill="#0076FC"/>
<g filter="url(#filter0_bi_690_10291)">
<path d="M21.3337 13.3333C15.4426 13.3333 10.667 18.1089 10.667 24V34.6666C10.667 40.5577 15.4426 45.3333 21.3337 45.3333H31.7233C31.9046 45.3333 32.0824 45.3826 32.2378 45.4758L44.5764 52.879C44.9097 53.0789 45.3337 52.8389 45.3337 52.4502V45.3849C45.3337 45.1567 45.4886 44.9587 45.7073 44.8938C50.1171 43.5848 53.3337 39.5013 53.3337 34.6666V24C53.3337 18.1089 48.558 13.3333 42.667 13.3333H21.3337Z" fill="white" fill-opacity="0.16"/>
<path d="M21.3337 13.3333C15.4426 13.3333 10.667 18.1089 10.667 24V34.6666C10.667 40.5577 15.4426 45.3333 21.3337 45.3333H31.7233C31.9046 45.3333 32.0824 45.3826 32.2378 45.4758L44.5764 52.879C44.9097 53.0789 45.3337 52.8389 45.3337 52.4502V45.3849C45.3337 45.1567 45.4886 44.9587 45.7073 44.8938C50.1171 43.5848 53.3337 39.5013 53.3337 34.6666V24C53.3337 18.1089 48.558 13.3333 42.667 13.3333H21.3337Z" fill="url(#paint0_linear_690_10291)" fill-opacity="0.2"/>
<path d="M10.767 24C10.767 18.1642 15.4979 13.4333 21.3337 13.4333H42.667C48.5028 13.4333 53.2337 18.1642 53.2337 24V34.6666C53.2337 39.4559 50.0474 43.5012 45.6789 44.7979C45.4198 44.8748 45.2337 45.1103 45.2337 45.3849V52.4502C45.2337 52.7611 44.8945 52.9532 44.6279 52.7932L32.2893 45.3901C32.1183 45.2875 31.9227 45.2333 31.7233 45.2333H21.3337C15.4979 45.2333 10.767 40.5025 10.767 34.6666V24Z" stroke="url(#paint1_linear_690_10291)" stroke-opacity="0.1" stroke-width="0.2"/>
</g>
<g filter="url(#filter1_i_690_10291)">
<circle cx="21.3337" cy="29.3334" r="2.66667" fill="white" fill-opacity="0.16"/>
</g>
<g filter="url(#filter2_i_690_10291)">
<circle cx="31.9997" cy="29.3334" r="2.66667" fill="white" fill-opacity="0.16"/>
</g>
<g filter="url(#filter3_i_690_10291)">
<ellipse cx="42.6667" cy="29.3334" rx="2.66667" ry="2.66667" fill="white" fill-opacity="0.16"/>
</g>
<defs>
<filter id="filter0_bi_690_10291" x="7.66699" y="10.3333" width="48.667" height="45.6177" filterUnits="userSpaceOnUse" color-interpolation-filters="sRGB">
<feFlood flood-opacity="0" result="BackgroundImageFix"/>
<feGaussianBlur in="BackgroundImage" stdDeviation="1.5"/>
<feComposite in2="SourceAlpha" operator="in" result="effect1_backgroundBlur_690_10291"/>
<feBlend mode="normal" in="SourceGraphic" in2="effect1_backgroundBlur_690_10291" result="shape"/>
<feColorMatrix in="SourceAlpha" type="matrix" values="0 0 0 0 0 0 0 0 0 0 0 0 0 0 0 0 0 0 127 0" result="hardAlpha"/>
<feOffset dy="0.5"/>
<feGaussianBlur stdDeviation="1"/>
<feComposite in2="hardAlpha" operator="arithmetic" k2="-1" k3="1"/>
<feColorMatrix type="matrix" values="0 0 0 0 1 0 0 0 0 1 0 0 0 0 1 0 0 0 0.4 0"/>
<feBlend mode="normal" in2="shape" result="effect2_innerShadow_690_10291"/>
</filter>
<filter id="filter1_i_690_10291" x="18.667" y="26.6667" width="5.33301" height="5.83331" filterUnits="userSpaceOnUse" color-interpolation-filters="sRGB">
<feFlood flood-opacity="0" result="BackgroundImageFix"/>
<feBlend mode="normal" in="SourceGraphic" in2="BackgroundImageFix" result="shape"/>
<feColorMatrix in="SourceAlpha" type="matrix" values="0 0 0 0 0 0 0 0 0 0 0 0 0 0 0 0 0 0 127 0" result="hardAlpha"/>
<feOffset dy="0.5"/>
<feGaussianBlur stdDeviation="0.25"/>
<feComposite in2="hardAlpha" operator="arithmetic" k2="-1" k3="1"/>
<feColorMatrix type="matrix" values="0 0 0 0 1 0 0 0 0 1 0 0 0 0 1 0 0 0 0.4 0"/>
<feBlend mode="normal" in2="shape" result="effect1_innerShadow_690_10291"/>
</filter>
<filter id="filter2_i_690_10291" x="29.333" y="26.6667" width="5.33301" height="5.83331" filterUnits="userSpaceOnUse" color-interpolation-filters="sRGB">
<feFlood flood-opacity="0" result="BackgroundImageFix"/>
<feBlend mode="normal" in="SourceGraphic" in2="BackgroundImageFix" result="shape"/>
<feColorMatrix in="SourceAlpha" type="matrix" values="0 0 0 0 0 0 0 0 0 0 0 0 0 0 0 0 0 0 127 0" result="hardAlpha"/>
<feOffset dy="0.5"/>
<feGaussianBlur stdDeviation="0.25"/>
<feComposite in2="hardAlpha" operator="arithmetic" k2="-1" k3="1"/>
<feColorMatrix type="matrix" values="0 0 0 0 1 0 0 0 0 1 0 0 0 0 1 0 0 0 0.4 0"/>
<feBlend mode="normal" in2="shape" result="effect1_innerShadow_690_10291"/>
</filter>
<filter id="filter3_i_690_10291" x="40" y="26.6667" width="5.33301" height="5.83331" filterUnits="userSpaceOnUse" color-interpolation-filters="sRGB">
<feFlood flood-opacity="0" result="BackgroundImageFix"/>
<feBlend mode="normal" in="SourceGraphic" in2="BackgroundImageFix" result="shape"/>
<feColorMatrix in="SourceAlpha" type="matrix" values="0 0 0 0 0 0 0 0 0 0 0 0 0 0 0 0 0 0 127 0" result="hardAlpha"/>
<feOffset dy="0.5"/>
<feGaussianBlur stdDeviation="0.25"/>
<feComposite in2="hardAlpha" operator="arithmetic" k2="-1" k3="1"/>
<feColorMatrix type="matrix" values="0 0 0 0 1 0 0 0 0 1 0 0 0 0 1 0 0 0 0.4 0"/>
<feBlend mode="normal" in2="shape" result="effect1_innerShadow_690_10291"/>
</filter>
<linearGradient id="paint0_linear_690_10291" x1="10.667" y1="13.3333" x2="60.5111" y2="26.8334" gradientUnits="userSpaceOnUse">
<stop stop-color="#8AB9FF"/>
<stop offset="1" stop-color="#094CAF"/>
</linearGradient>
<linearGradient id="paint1_linear_690_10291" x1="12.0003" y1="15.1515" x2="53.3337" y2="15.1515" gradientUnits="userSpaceOnUse">
<stop stop-color="#8AB9FF"/>
<stop offset="1" stop-color="#1662D1"/>
</linearGradient>
</defs>
</svg>
