<svg width="90" height="41" viewBox="0 0 90 41" fill="none" xmlns="http://www.w3.org/2000/svg">
<path d="M9.59898 8.87668L5.95116 4.23393C5.94723 4.23012 5.94411 4.22557 5.94197 4.22055C5.93984 4.21553 5.93874 4.21014 5.93874 4.20469C5.93874 4.19925 5.93984 4.19386 5.94197 4.18884C5.94411 4.18382 5.94723 4.17927 5.95116 4.17546L9.08463 0.0823501C9.08973 0.0750281 9.09288 0.0665448 9.09377 0.0576934C9.09467 0.048842 9.09328 0.0399124 9.08973 0.0317363C9.08619 0.0235601 9.08061 0.0164052 9.07351 0.0109407C9.06642 0.00547626 9.05803 0.00187998 9.04915 0.000488281H7.376C7.22247 0.00160282 7.07123 0.0374934 6.9339 0.105405C6.79657 0.173317 6.67679 0.271444 6.58377 0.392256L4.81011 2.6727C4.80036 2.68133 4.78773 2.6861 4.77464 2.6861C4.76155 2.6861 4.74892 2.68133 4.73916 2.6727L2.66399 0.0589603C2.65481 0.0476106 2.64309 0.0385309 2.62975 0.0324411C2.6164 0.0263514 2.60181 0.0234206 2.58713 0.023878H0.405529C0.396645 0.0252697 0.388264 0.028866 0.381167 0.0343304C0.37407 0.0397949 0.368489 0.0469476 0.364946 0.0551238C0.361403 0.0632999 0.360013 0.0722317 0.360907 0.0810831C0.3618 0.0899345 0.364948 0.0984178 0.370055 0.10574L3.58037 4.19885C3.58608 4.20862 3.58909 4.21972 3.58909 4.23101C3.58909 4.2423 3.58608 4.25339 3.58037 4.26317L0.00941184 8.87083C0.00430435 8.87816 0.0011568 8.88664 0.000263256 8.89549C-0.000630289 8.90434 0.00075933 8.91327 0.00430229 8.92145C0.00784524 8.92963 0.0134259 8.93678 0.0205229 8.94224C0.0276199 8.94771 0.0360016 8.9513 0.044885 8.9527H1.78307C1.93792 8.95431 2.09097 8.91965 2.22969 8.85156C2.36841 8.78347 2.48886 8.68388 2.58121 8.56093L4.73916 5.77177C4.74413 5.76664 4.7501 5.76256 4.7567 5.75977C4.76331 5.75698 4.77041 5.75554 4.77759 5.75554C4.78477 5.75554 4.79188 5.75698 4.79849 5.75977C4.80509 5.76256 4.81106 5.76664 4.81602 5.77177L7.26958 8.91761C7.27846 8.92971 7.28998 8.93968 7.30328 8.94676C7.31659 8.95385 7.33134 8.95788 7.34644 8.95854H9.58125C9.58866 8.95509 9.59517 8.95 9.60026 8.94365C9.60535 8.9373 9.6089 8.92988 9.61061 8.92196C9.61233 8.91404 9.61217 8.90583 9.61016 8.89798C9.60814 8.89012 9.60432 8.88284 9.59898 8.87668Z" fill="#287AF3"/>
<path d="M43.1964 8.8764L39.5486 4.23365C39.5447 4.22984 39.5416 4.22529 39.5394 4.22027C39.5373 4.21525 39.5362 4.20986 39.5362 4.20441C39.5362 4.19897 39.5373 4.19358 39.5394 4.18856C39.5416 4.18354 39.5447 4.17899 39.5486 4.17517L42.6821 0.0820671C42.6896 0.0755669 42.6949 0.0668649 42.6971 0.0572119C42.6994 0.0475589 42.6984 0.0374523 42.6945 0.0283506C42.6906 0.0192488 42.6838 0.0116204 42.6752 0.00656241C42.6666 0.00150441 42.6566 -0.000721278 42.6466 0.000205294H40.9734C40.82 0.00175465 40.6689 0.0378351 40.5316 0.105713C40.3944 0.173592 40.2745 0.271485 40.1812 0.391973L38.4371 2.67242C38.4321 2.67755 38.4262 2.68163 38.4196 2.68442C38.413 2.68721 38.4059 2.68865 38.3987 2.68865C38.3915 2.68865 38.3844 2.68721 38.3778 2.68442C38.3712 2.68163 38.3652 2.67755 38.3603 2.67242L36.2851 0.0352899C36.2759 0.0239401 36.2642 0.0148604 36.2508 0.00877067C36.2375 0.00268094 36.2229 -0.000252153 36.2082 0.000205294H34.0089C33.9995 0.000696131 33.9904 0.00363993 33.9825 0.00873721C33.9747 0.0138345 33.9683 0.0209031 33.9641 0.0292227C33.9599 0.0375424 33.958 0.046816 33.9586 0.0560988C33.9592 0.0653817 33.9623 0.0743417 33.9675 0.0820671L37.1778 4.17517C37.1861 4.18386 37.1908 4.19537 37.1908 4.20733C37.1908 4.2193 37.1861 4.23081 37.1778 4.2395L33.6305 8.82377C33.6254 8.8311 33.6223 8.83958 33.6214 8.84843C33.6205 8.85728 33.6219 8.86621 33.6254 8.87439C33.6289 8.88257 33.6345 8.88972 33.6416 8.89519C33.6487 8.90065 33.6571 8.90425 33.666 8.90564H35.3628C35.5178 8.90821 35.6712 8.87397 35.81 8.8058C35.9489 8.73763 36.0692 8.63752 36.1609 8.51387L38.313 5.72471C38.3179 5.71958 38.3239 5.7155 38.3305 5.71271C38.3371 5.70992 38.3442 5.70848 38.3514 5.70848C38.3586 5.70848 38.3657 5.70992 38.3723 5.71271C38.3789 5.7155 38.3849 5.71958 38.3898 5.72471L40.8434 8.87055C40.8534 8.8828 40.866 8.89278 40.8803 8.89984C40.8946 8.9069 40.9102 8.91087 40.9261 8.91148H43.1669C43.1741 8.90821 43.1806 8.90335 43.1857 8.89728C43.1908 8.89121 43.1945 8.88407 43.1964 8.8764Z" fill="#287AF3"/>
<path d="M76.7957 8.8764L73.1479 4.23365C73.1412 4.22535 73.1375 4.21504 73.1375 4.20441C73.1375 4.19378 73.1412 4.18347 73.1479 4.17517L76.2813 0.0820671C76.2889 0.0755669 76.2942 0.0668649 76.2964 0.0572119C76.2986 0.0475589 76.2977 0.0374523 76.2938 0.0283506C76.2898 0.0192488 76.2831 0.0116204 76.2744 0.00656241C76.2658 0.00150441 76.2558 -0.000721278 76.2459 0.000205294H74.5727C74.4193 0.00175465 74.2682 0.0378351 74.1309 0.105713C73.9936 0.173592 73.8738 0.271485 73.7805 0.391973L72.0068 2.67242C72.0019 2.67755 71.9959 2.68163 71.9893 2.68442C71.9827 2.68721 71.9756 2.68865 71.9684 2.68865C71.9612 2.68865 71.9541 2.68721 71.9475 2.68442C71.9409 2.68163 71.9349 2.67755 71.93 2.67242L69.8548 0.0352899C69.8456 0.0239401 69.8339 0.0148604 69.8205 0.00877067C69.8072 0.00268094 69.7926 -0.000252153 69.7779 0.000205294H67.6022C67.5928 0.000696131 67.5838 0.00363993 67.5759 0.00873721C67.568 0.0138345 67.5617 0.0209031 67.5575 0.0292227C67.5532 0.0375424 67.5513 0.046816 67.5519 0.0560988C67.5525 0.0653817 67.5556 0.0743417 67.5609 0.0820671L70.7712 4.17517C70.7795 4.18386 70.7841 4.19537 70.7841 4.20733C70.7841 4.2193 70.7795 4.23081 70.7712 4.2395L67.2239 8.82377C67.2186 8.8315 67.2155 8.84046 67.215 8.84975C67.2144 8.85903 67.2163 8.8683 67.2205 8.87662C67.2247 8.88494 67.231 8.89201 67.2389 8.89711C67.2468 8.9022 67.2559 8.90515 67.2652 8.90564H68.968C69.123 8.90821 69.2763 8.87397 69.4152 8.8058C69.5541 8.73763 69.6744 8.63752 69.7661 8.51387L71.9181 5.72471C71.9231 5.71958 71.9291 5.7155 71.9357 5.71271C71.9423 5.70992 71.9494 5.70848 71.9566 5.70848C71.9637 5.70848 71.9709 5.70992 71.9775 5.71271C71.9841 5.7155 71.99 5.71958 71.995 5.72471L74.4486 8.87055C74.4586 8.8828 74.4712 8.89278 74.4855 8.89984C74.4998 8.9069 74.5154 8.91087 74.5313 8.91148H76.7661C76.7734 8.90821 76.7798 8.90335 76.785 8.89728C76.7901 8.89121 76.7938 8.88407 76.7957 8.8764Z" fill="#287AF3"/>
</svg>
