<svg width="77" height="166" viewBox="0 0 77 166" fill="none" xmlns="http://www.w3.org/2000/svg">
<path d="M67.2716 126.054L70.9195 130.696C70.9262 130.705 70.9298 130.715 70.9298 130.726C70.9298 130.736 70.9262 130.747 70.9195 130.755L67.7919 134.819C67.7829 134.822 67.775 134.828 67.7695 134.836C67.764 134.844 67.7611 134.853 67.7611 134.863C67.7611 134.872 67.764 134.881 67.7695 134.889C67.775 134.897 67.7829 134.903 67.7919 134.906L69.4651 134.906C69.6185 134.905 69.7696 134.869 69.9069 134.801C70.0441 134.733 70.164 134.635 70.2573 134.515L72.0309 132.234C72.0359 132.229 72.0419 132.225 72.0485 132.222C72.0551 132.219 72.0622 132.218 72.0694 132.218C72.0766 132.218 72.0837 132.219 72.0903 132.222C72.0969 132.225 72.1028 132.229 72.1078 132.234L74.2066 134.871C74.2169 134.884 74.2306 134.895 74.2462 134.901C74.2618 134.907 74.2787 134.909 74.2953 134.906L76.471 134.906C76.4804 134.906 76.4895 134.903 76.4974 134.898C76.5052 134.893 76.5116 134.886 76.5158 134.877C76.52 134.869 76.5219 134.86 76.5213 134.851C76.5207 134.841 76.5176 134.832 76.5124 134.825L73.3021 130.731C73.2938 130.723 73.2891 130.711 73.2891 130.699C73.2891 130.687 73.2938 130.676 73.3021 130.667L76.8494 126.083C76.8546 126.075 76.8577 126.066 76.8583 126.057C76.8589 126.048 76.857 126.038 76.8528 126.03C76.8486 126.022 76.8422 126.015 76.8343 126.01C76.8265 126.004 76.8174 126.001 76.808 126.001L75.1053 126.001C74.9503 125.994 74.7959 126.024 74.655 126.088C74.514 126.152 74.3907 126.248 74.2953 126.369L72.1433 129.159C72.1383 129.164 72.1323 129.168 72.1257 129.171C72.1191 129.173 72.112 129.175 72.1048 129.175C72.0977 129.175 72.0906 129.173 72.084 129.171C72.0773 129.168 72.0714 129.164 72.0664 129.159L69.6129 126.013C69.6028 126 69.5902 125.99 69.5759 125.983C69.5617 125.976 69.546 125.972 69.5301 125.972L67.2953 125.972C67.2874 125.975 67.2803 125.979 67.2746 125.985C67.2689 125.991 67.2647 125.999 67.2624 126.007C67.2601 126.015 67.2597 126.023 67.2613 126.031C67.2629 126.039 67.2665 126.047 67.2716 126.054Z" fill="white"/>
<path d="M33.6683 94.7884L37.3162 99.4311C37.322 99.4398 37.3251 99.4499 37.3251 99.4603C37.3251 99.4708 37.322 99.4809 37.3162 99.4896L34.1768 103.583C34.1715 103.59 34.1685 103.599 34.1679 103.609C34.1673 103.618 34.1692 103.627 34.1734 103.636C34.1776 103.644 34.1839 103.651 34.1918 103.656C34.1997 103.661 34.2088 103.664 34.2182 103.665L35.8618 103.665C36.0162 103.664 36.1685 103.628 36.3068 103.56C36.4452 103.492 36.566 103.394 36.6599 103.273L38.4336 100.992C38.4385 100.987 38.4445 100.983 38.4511 100.98C38.4577 100.978 38.4648 100.976 38.472 100.976C38.4792 100.976 38.4863 100.978 38.4929 100.98C38.4995 100.983 38.5054 100.987 38.5104 100.992L40.5915 103.606C40.6007 103.617 40.6124 103.627 40.6257 103.633C40.6391 103.639 40.6537 103.642 40.6684 103.641L42.844 103.641C42.8534 103.641 42.8625 103.638 42.8704 103.633C42.8783 103.628 42.8846 103.62 42.8888 103.612C42.893 103.604 42.8949 103.595 42.8943 103.585C42.8937 103.576 42.8907 103.567 42.8854 103.559L39.6751 99.4662C39.6668 99.4575 39.6622 99.446 39.6622 99.434C39.6622 99.4221 39.6668 99.4106 39.6751 99.4019L43.2224 94.8176C43.2277 94.8099 43.2307 94.8009 43.2313 94.7916C43.2319 94.7823 43.23 94.7731 43.2258 94.7647C43.2216 94.7564 43.2153 94.7494 43.2074 94.7443C43.1995 94.7392 43.1904 94.7362 43.181 94.7357L41.4724 94.7357C41.3184 94.7341 41.1662 94.7688 41.0284 94.8369C40.8907 94.905 40.7713 95.0047 40.6802 95.1275L38.5281 97.9167C38.5232 97.9218 38.5172 97.9259 38.5106 97.9287C38.504 97.9314 38.4969 97.9329 38.4897 97.9329C38.4825 97.9329 38.4754 97.9314 38.4688 97.9287C38.4622 97.9259 38.4563 97.9218 38.4513 97.9167L35.9918 94.7708C35.9829 94.7587 35.9714 94.7488 35.9581 94.7417C35.9448 94.7346 35.9301 94.7306 35.915 94.7299L33.6802 94.7299C33.6716 94.7367 33.6658 94.7463 33.6636 94.757C33.6614 94.7677 33.6631 94.7788 33.6683 94.7884Z" fill="white"/>
<path d="M67.2688 63.5229L70.9166 68.1656C70.9233 68.1739 70.927 68.1842 70.927 68.1949C70.927 68.2055 70.9233 68.2158 70.9166 68.2241L67.7832 72.3172C67.783 72.3254 67.7851 72.3335 67.7891 72.3406L69.4622 72.3406C69.6157 72.3391 69.7668 72.303 69.904 72.2351C70.0413 72.1672 70.1611 72.0693 70.2545 71.9488L72.0281 69.6684C72.0331 69.6633 72.0391 69.6592 72.0457 69.6564C72.0523 69.6536 72.0594 69.6522 72.0666 69.6522C72.0737 69.6522 72.0808 69.6536 72.0874 69.6564C72.094 69.6592 72.1 69.6633 72.105 69.6684L74.2038 72.3406C74.213 72.352 74.2247 72.361 74.238 72.3671C74.2514 72.3732 74.266 72.3761 74.2807 72.3757L76.4564 72.3757C76.4657 72.3752 76.4748 72.3723 76.4827 72.3672C76.4906 72.3621 76.4969 72.355 76.5011 72.3467C76.5053 72.3384 76.5072 72.3291 76.5066 72.3198C76.5061 72.3105 76.503 72.3015 76.4977 72.2938L73.2874 68.2007C73.2791 68.192 73.2745 68.1805 73.2745 68.1686C73.2745 68.1566 73.2791 68.1451 73.2874 68.1364L76.8347 63.5521C76.84 63.5444 76.843 63.5354 76.8436 63.5261C76.8442 63.5169 76.8423 63.5076 76.8381 63.4993C76.8339 63.491 76.8276 63.4839 76.8197 63.4788C76.8118 63.4737 76.8027 63.4707 76.7933 63.4703L75.0906 63.4703C74.9356 63.4677 74.7822 63.5019 74.6434 63.5701C74.5045 63.6383 74.3842 63.7384 74.2925 63.862L72.1405 66.6512C72.1355 66.6563 72.1295 66.6604 72.1229 66.6632C72.1163 66.666 72.1092 66.6674 72.102 66.6674C72.0948 66.6674 72.0877 66.666 72.0811 66.6632C72.0745 66.6604 72.0686 66.6563 72.0636 66.6512L69.61 63.5053C69.6 63.4931 69.5874 63.4831 69.5731 63.4761C69.5588 63.469 69.5432 63.465 69.5273 63.4644L67.2925 63.4644C67.2827 63.4703 67.2751 63.4792 67.2708 63.4898C67.2666 63.5003 67.2658 63.5119 67.2688 63.5229Z" fill="white"/>
<path d="M67.2707 32.2573L70.9185 36.9001C70.9252 36.9084 70.9289 36.9187 70.9289 36.9293C70.9289 36.9399 70.9252 36.9503 70.9185 36.9586L67.7851 41.0224C67.7775 41.0289 67.7722 41.0376 67.77 41.0473C67.7678 41.0569 67.7687 41.067 67.7726 41.0761C67.7766 41.0852 67.7833 41.0929 67.792 41.0979C67.8006 41.103 67.8106 41.1052 67.8205 41.1043L69.4937 41.1043C69.6472 41.1027 69.7982 41.0667 69.9355 40.9988C70.0728 40.9309 70.1926 40.833 70.2859 40.7125L72.0596 38.4321C72.0646 38.4269 72.0705 38.4229 72.0771 38.4201C72.0837 38.4173 72.0908 38.4158 72.098 38.4158C72.1052 38.4158 72.1123 38.4173 72.1189 38.4201C72.1255 38.4229 72.1315 38.4269 72.1364 38.4321L74.2116 41.0692C74.2208 41.0806 74.2325 41.0896 74.2459 41.0957C74.2592 41.1018 74.2738 41.1047 74.2885 41.1043L76.4642 41.1043C76.4736 41.1038 76.4827 41.1009 76.4905 41.0958C76.4984 41.0907 76.5047 41.0836 76.509 41.0753C76.5132 41.067 76.5151 41.0577 76.5145 41.0484C76.5139 41.0391 76.5108 41.0302 76.5056 41.0224L73.2952 36.9293C73.2869 36.9206 73.2823 36.9091 73.2823 36.8972C73.2823 36.8852 73.2869 36.8737 73.2952 36.865L76.8425 32.2807C76.8478 32.273 76.8509 32.264 76.8515 32.2547C76.8521 32.2455 76.8502 32.2362 76.8459 32.2279C76.8417 32.2196 76.8354 32.2125 76.8275 32.2074C76.8196 32.2023 76.8106 32.1993 76.8012 32.1989L75.0985 32.1989C74.9435 32.194 74.7896 32.226 74.6497 32.2921C74.5097 32.3582 74.3879 32.4566 74.2944 32.5789L72.1424 35.3681C72.1374 35.3732 72.1314 35.3773 72.1248 35.3801C72.1182 35.3829 72.1111 35.3843 72.1039 35.3843C72.0967 35.3843 72.0896 35.3829 72.083 35.3801C72.0764 35.3773 72.0705 35.3732 72.0655 35.3681L69.6119 32.2222C69.6019 32.21 69.5893 32.2 69.575 32.193C69.5607 32.1859 69.5451 32.1819 69.5292 32.1813L67.2944 32.1813C67.2874 32.1844 67.2812 32.1889 67.2761 32.1945C67.271 32.2001 67.2672 32.2068 67.265 32.214C67.2627 32.2212 67.2621 32.2288 67.2631 32.2363C67.2641 32.2437 67.2667 32.2509 67.2707 32.2573Z" fill="white"/>
<path d="M67.2716 157.006L70.9195 161.648C70.9262 161.657 70.9298 161.667 70.9298 161.678C70.9298 161.688 70.9262 161.699 70.9195 161.707L67.7919 165.777C67.7844 165.783 67.7791 165.792 67.7769 165.801C67.7746 165.811 67.7755 165.821 67.7795 165.83C67.7834 165.839 67.7902 165.847 67.7988 165.852C67.8074 165.857 67.8174 165.859 67.8274 165.858L69.5005 165.858C69.654 165.857 69.8051 165.821 69.9423 165.753C70.0796 165.685 70.1994 165.587 70.2928 165.467L72.0664 163.186C72.0714 163.181 72.0774 163.177 72.084 163.174C72.0906 163.171 72.0977 163.17 72.1048 163.17C72.112 163.17 72.1191 163.171 72.1257 163.174C72.1323 163.177 72.1383 163.181 72.1433 163.186L74.2185 165.823C74.2276 165.835 74.2394 165.844 74.2527 165.85C74.266 165.856 74.2806 165.859 74.2953 165.858L76.471 165.858C76.4804 165.858 76.4895 165.855 76.4974 165.85C76.5052 165.845 76.5116 165.838 76.5158 165.829C76.52 165.821 76.5219 165.812 76.5213 165.803C76.5207 165.793 76.5176 165.784 76.5124 165.777L73.3021 161.683C73.2938 161.675 73.2891 161.663 73.2891 161.651C73.2891 161.639 73.2938 161.628 73.3021 161.619L76.8494 157.035C76.8546 157.027 76.8577 157.018 76.8583 157.009C76.8589 157 76.857 156.99 76.8528 156.982C76.8486 156.974 76.8422 156.967 76.8343 156.962C76.8265 156.956 76.8174 156.953 76.808 156.953L75.1053 156.953C74.9503 156.95 74.7969 156.985 74.658 157.053C74.5191 157.121 74.3988 157.221 74.3071 157.345L72.1551 160.134C72.1501 160.139 72.1442 160.143 72.1376 160.146C72.131 160.149 72.1239 160.15 72.1167 160.15C72.1095 160.15 72.1024 160.149 72.0958 160.146C72.0892 160.143 72.0832 160.139 72.0782 160.134L69.6247 156.988C69.6146 156.976 69.602 156.966 69.5878 156.959C69.5735 156.952 69.5579 156.948 69.5419 156.947L67.3071 156.947C67.2951 156.951 67.285 156.959 67.2785 156.97C67.272 156.981 67.2696 156.993 67.2716 157.006Z" fill="white"/>
<path d="M33.6683 1.00363L37.3162 5.64638C37.322 5.65503 37.3251 5.66521 37.3251 5.67562C37.3251 5.68603 37.322 5.69619 37.3162 5.70485L34.1768 9.76872C34.1715 9.77645 34.1685 9.78541 34.1679 9.79469C34.1673 9.80397 34.1692 9.81324 34.1734 9.82156C34.1776 9.82988 34.1839 9.83695 34.1918 9.84205C34.1997 9.84715 34.2088 9.8501 34.2182 9.85059L35.8617 9.85059C36.0162 9.84993 36.1685 9.81427 36.3068 9.74636C36.4452 9.67844 36.566 9.58008 36.6599 9.45882L38.4336 7.17837C38.4385 7.17324 38.4445 7.16916 38.4511 7.16637C38.4577 7.16358 38.4648 7.16215 38.472 7.16215C38.4792 7.16215 38.4863 7.16358 38.4929 7.16637C38.4995 7.16916 38.5054 7.17324 38.5104 7.17837L40.5915 9.80965C40.6007 9.821 40.6124 9.83008 40.6257 9.83617C40.6391 9.84226 40.6537 9.84519 40.6684 9.84473L42.844 9.84473C42.8534 9.84424 42.8625 9.8413 42.8704 9.8362C42.8783 9.83111 42.8846 9.82404 42.8888 9.81572C42.893 9.8074 42.8949 9.79813 42.8943 9.78884C42.8937 9.77956 42.8907 9.7706 42.8854 9.76287L39.6751 5.66976C39.6668 5.66108 39.6622 5.64957 39.6622 5.63761C39.6622 5.62564 39.6668 5.61413 39.6751 5.60544L43.2224 1.02117C43.2277 1.01344 43.2307 1.00449 43.2313 0.995202C43.2319 0.98592 43.23 0.976639 43.2258 0.96832C43.2216 0.96 43.2153 0.952931 43.2074 0.947834C43.1995 0.942737 43.1904 0.939795 43.181 0.939304L41.4724 0.939305C41.3184 0.937675 41.1662 0.972363 41.0284 1.04049C40.8907 1.10862 40.7713 1.20823 40.6802 1.33107L38.5281 4.12023C38.5232 4.12536 38.5172 4.12945 38.5106 4.13224C38.504 4.13502 38.4969 4.13646 38.4897 4.13646C38.4825 4.13646 38.4754 4.13502 38.4688 4.13224C38.4622 4.12945 38.4563 4.12536 38.4513 4.12023L35.9918 0.974388C35.9829 0.962289 35.9714 0.952325 35.9581 0.945239C35.9448 0.938152 35.9301 0.934129 35.915 0.933461L33.6801 0.933461C33.6743 0.936948 33.6693 0.941646 33.6654 0.947237C33.6616 0.952828 33.659 0.95918 33.6579 0.965849C33.6568 0.972518 33.6571 0.979348 33.6589 0.98587C33.6607 0.992392 33.6639 0.998449 33.6683 1.00363Z" fill="white"/>
<path d="M0.0715429 1.00358L3.71936 5.64633C3.72521 5.65499 3.72833 5.66516 3.72833 5.67557C3.72833 5.68598 3.72521 5.69615 3.71936 5.7048L0.579993 9.76868C0.574755 9.7764 0.571677 9.78536 0.57108 9.79464C0.570482 9.80393 0.572386 9.8132 0.576591 9.82152C0.580798 9.82984 0.587155 9.8369 0.595022 9.842C0.602889 9.8471 0.611981 9.85005 0.621373 9.85054L2.28862 9.85054C2.44292 9.84901 2.59486 9.81298 2.73309 9.74513C2.87131 9.67729 2.99222 9.57939 3.08676 9.45877L4.86041 7.17832C4.86538 7.17319 4.87135 7.16911 4.87795 7.16632C4.88455 7.16353 4.89166 7.1621 4.89884 7.1621C4.90602 7.1621 4.91313 7.16353 4.91974 7.16632C4.92634 7.16911 4.93231 7.17319 4.93727 7.17832L7.01245 9.81546C7.02163 9.82681 7.03335 9.83588 7.04669 9.84197C7.06004 9.84806 7.07463 9.851 7.08931 9.85054L9.25908 9.85054C9.26848 9.85005 9.27757 9.8471 9.28544 9.842C9.2933 9.8369 9.29966 9.82984 9.30387 9.82152C9.30807 9.8132 9.30997 9.80392 9.30938 9.79464C9.30878 9.78536 9.30571 9.7764 9.30047 9.76868L6.09015 5.67557C6.08183 5.66688 6.07719 5.65537 6.07719 5.6434C6.07719 5.63144 6.08183 5.61994 6.09015 5.61125L9.63746 1.02696C9.6427 1.01923 9.64578 1.01028 9.64638 1.001C9.64697 0.991714 9.64507 0.982442 9.64086 0.974123C9.63666 0.965803 9.6303 0.958735 9.62243 0.953637C9.61457 0.94854 9.60547 0.945589 9.59608 0.945099L7.88745 0.945099C7.73343 0.943468 7.58123 0.978157 7.44346 1.04629C7.30569 1.11442 7.18631 1.21403 7.09522 1.33688L4.94318 4.12603C4.93822 4.13116 4.93225 4.13524 4.92565 4.13803C4.91904 4.14082 4.91193 4.14226 4.90475 4.14226C4.89757 4.14226 4.89046 4.14082 4.88386 4.13803C4.87725 4.13524 4.8713 4.13116 4.86633 4.12603L2.40686 0.98019C2.39798 0.968092 2.38646 0.958128 2.37315 0.951042C2.35985 0.943955 2.34509 0.939923 2.33 0.939255L0.0951883 0.939256C0.0892126 0.941764 0.0838234 0.945465 0.0793554 0.950123C0.0748884 0.95478 0.0714342 0.960292 0.069216 0.966326C0.0669977 0.972359 0.066065 0.978779 0.0664646 0.985187C0.0668632 0.991595 0.0685932 0.997857 0.0715429 1.00358Z" fill="white"/>
</svg>
