<svg width="77" height="134" viewBox="0 0 77 134" fill="none" xmlns="http://www.w3.org/2000/svg">
<path d="M9.57534 39.7966L5.92751 35.1539C5.92358 35.1501 5.92046 35.1455 5.91832 35.1405C5.91619 35.1355 5.91509 35.1301 5.91509 35.1246C5.91509 35.1192 5.91619 35.1138 5.91832 35.1088C5.92046 35.1037 5.92358 35.0992 5.92751 35.0954L9.06098 31.0315C9.07273 31.0269 9.08214 31.0178 9.08713 31.0063C9.09212 30.9948 9.09228 30.9818 9.08758 30.9701C9.08287 30.9585 9.07369 30.9492 9.06205 30.9442C9.05041 30.9393 9.03726 30.9392 9.0255 30.9438H7.35235C7.20393 30.9497 7.05865 30.9878 6.92683 31.0556C6.79501 31.1233 6.6799 31.2189 6.58968 31.3356L4.81602 33.616C4.81106 33.6212 4.80509 33.6252 4.79848 33.628C4.79188 33.6308 4.78477 33.6322 4.77759 33.6322C4.77041 33.6322 4.76331 33.6308 4.7567 33.628C4.7501 33.6252 4.74413 33.6212 4.73917 33.616L2.64034 30.9789C2.63116 30.9675 2.61944 30.9585 2.6061 30.9524C2.59275 30.9463 2.57816 30.9434 2.56348 30.9438H0.387791C0.378399 30.9443 0.369306 30.9472 0.361439 30.9523C0.353573 30.9574 0.347213 30.9645 0.343007 30.9728C0.338801 30.9811 0.3369 30.9904 0.337497 30.9997C0.338094 31.009 0.341167 31.0179 0.346405 31.0257L3.55673 35.1188C3.56504 35.1275 3.56968 35.139 3.56968 35.1509C3.56968 35.1629 3.56504 35.1744 3.55673 35.1831L0.00941081 39.7674C0.00430333 39.7747 0.00115678 39.7832 0.000263231 39.792C-0.000630315 39.8009 0.000759556 39.8098 0.00430251 39.818C0.00784547 39.8262 0.0134258 39.8333 0.0205228 39.8388C0.0276198 39.8443 0.0360014 39.8478 0.0448848 39.8492H1.74168C1.8967 39.8518 2.05008 39.8176 2.18895 39.7494C2.32783 39.6812 2.44815 39.5811 2.53983 39.4575L4.69187 36.6683C4.69683 36.6632 4.7028 36.6591 4.7094 36.6563C4.71601 36.6535 4.72312 36.6521 4.7303 36.6521C4.73748 36.6521 4.74458 36.6535 4.75119 36.6563C4.75779 36.6591 4.76376 36.6632 4.76872 36.6683L7.22228 39.8142C7.23235 39.8264 7.24494 39.8364 7.25921 39.8434C7.27348 39.8505 7.28911 39.8545 7.30505 39.8551H9.54577C9.55665 39.8501 9.56548 39.8416 9.57085 39.8309C9.57621 39.8203 9.5778 39.8082 9.57534 39.7966Z" fill="#287AF3"/>
<path d="M9.57534 71.0624L5.92751 66.4197C5.92358 66.4159 5.92046 66.4113 5.91832 66.4063C5.91619 66.4013 5.91509 66.3959 5.91509 66.3904C5.91509 66.385 5.91619 66.3796 5.91832 66.3746C5.92046 66.3696 5.92358 66.365 5.92751 66.3612L9.06098 62.2681C9.06853 62.2616 9.0738 62.2529 9.07603 62.2432C9.07827 62.2336 9.07735 62.2235 9.0734 62.2144C9.06946 62.2053 9.0627 62.1977 9.05409 62.1926C9.04548 62.1875 9.03547 62.1853 9.0255 62.1862H7.35235C7.1989 62.1878 7.04781 62.2239 6.91054 62.2917C6.77328 62.3596 6.65344 62.4575 6.56012 62.578L4.81602 64.8585C4.81106 64.8636 4.80509 64.8677 4.79849 64.8705C4.79188 64.8732 4.78477 64.8747 4.77759 64.8747C4.77041 64.8747 4.76331 64.8732 4.7567 64.8705C4.7501 64.8677 4.74413 64.8636 4.73917 64.8585L2.66399 62.2213C2.65481 62.21 2.64309 62.2009 2.62975 62.1948C2.6164 62.1887 2.60181 62.1858 2.58713 62.1862H0.387791C0.378399 62.1867 0.369306 62.1897 0.361439 62.1948C0.353573 62.1999 0.347213 62.2069 0.343007 62.2153C0.338801 62.2236 0.3369 62.2329 0.337497 62.2421C0.338094 62.2514 0.341168 62.2604 0.346406 62.2681L3.55673 66.3612C3.56504 66.3699 3.56968 66.3814 3.56968 66.3934C3.56968 66.4053 3.56504 66.4168 3.55673 66.4255L0.00941082 71.0098C0.00430333 71.0171 0.00115678 71.0256 0.000263231 71.0345C-0.000630315 71.0433 0.000759556 71.0522 0.00430251 71.0604C0.00784547 71.0686 0.0134258 71.0758 0.0205228 71.0812C0.0276198 71.0867 0.0360014 71.0903 0.0448848 71.0917H1.74168C1.8967 71.0942 2.05008 71.06 2.18895 70.9918C2.32783 70.9237 2.44815 70.8236 2.53983 70.6999L4.69187 67.9107C4.69683 67.9056 4.7028 67.9015 4.7094 67.8987C4.71601 67.896 4.72312 67.8945 4.7303 67.8945C4.73748 67.8945 4.74458 67.896 4.75119 67.8987C4.75779 67.9015 4.76376 67.9056 4.76872 67.9107L7.22228 71.0566C7.23235 71.0688 7.24494 71.0788 7.25921 71.0859C7.27348 71.0929 7.28911 71.0969 7.30505 71.0975H9.54577C9.55305 71.0942 9.55948 71.0894 9.5646 71.0833C9.56972 71.0772 9.57339 71.0701 9.57534 71.0624Z" fill="#287AF3"/>
<path d="M43.1765 102.328L39.5287 97.6852C39.522 97.6769 39.5183 97.6666 39.5183 97.656C39.5183 97.6453 39.522 97.635 39.5287 97.6267L42.6621 93.5336C42.6623 93.5254 42.6602 93.5174 42.6562 93.5102H40.9831C40.8296 93.5118 40.6785 93.5479 40.5413 93.6157C40.404 93.6836 40.2842 93.7815 40.1908 93.902L38.4172 96.1824C38.4122 96.1876 38.4063 96.1917 38.3997 96.1944C38.3931 96.1972 38.3859 96.1987 38.3788 96.1987C38.3716 96.1987 38.3645 96.1972 38.3579 96.1944C38.3513 96.1917 38.3453 96.1876 38.3403 96.1824L36.2415 93.5102C36.2323 93.4989 36.2206 93.4898 36.2073 93.4837C36.1939 93.4776 36.1793 93.4747 36.1646 93.4751H33.989C33.9796 93.4756 33.9705 93.4786 33.9626 93.4837C33.9547 93.4888 33.9484 93.4958 33.9442 93.5042C33.94 93.5125 33.9381 93.5218 33.9387 93.531C33.9393 93.5403 33.9423 93.5493 33.9476 93.557L37.1579 97.6501C37.1662 97.6588 37.1708 97.6703 37.1708 97.6823C37.1708 97.6942 37.1662 97.7057 37.1579 97.7144L33.6106 102.299C33.6053 102.306 33.6023 102.315 33.6017 102.325C33.6011 102.334 33.603 102.343 33.6072 102.352C33.6114 102.36 33.6177 102.367 33.6256 102.372C33.6335 102.377 33.6426 102.38 33.652 102.381H35.3547C35.5097 102.383 35.6631 102.349 35.8019 102.281C35.9408 102.213 36.0611 102.112 36.1528 101.989L38.3049 99.1996C38.3098 99.1945 38.3158 99.1904 38.3224 99.1876C38.329 99.1849 38.3361 99.1834 38.3433 99.1834C38.3505 99.1834 38.3576 99.1849 38.3642 99.1876C38.3708 99.1904 38.3767 99.1945 38.3817 99.1996L40.8353 102.345C40.8453 102.358 40.8579 102.368 40.8722 102.375C40.8865 102.382 40.9021 102.386 40.918 102.386H43.1529C43.1626 102.381 43.1702 102.372 43.1745 102.361C43.1788 102.351 43.1795 102.339 43.1765 102.328Z" fill="#287AF3"/>
<path d="M76.777 102.328L73.1292 97.6851C73.1233 97.6764 73.1202 97.6663 73.1202 97.6559C73.1202 97.6455 73.1233 97.6353 73.1292 97.6266L76.2685 93.5335C76.2738 93.5258 76.2768 93.5168 76.2774 93.5076C76.278 93.4983 76.2761 93.489 76.2719 93.4807C76.2677 93.4724 76.2614 93.4653 76.2535 93.4602C76.2456 93.4551 76.2365 93.4522 76.2271 93.4517H74.5836C74.4291 93.4523 74.2769 93.488 74.1385 93.5559C74.0001 93.6238 73.8794 93.7222 73.7854 93.8434L72.0118 96.1239C72.0068 96.129 72.0008 96.1331 71.9942 96.1359C71.9876 96.1387 71.9805 96.1401 71.9733 96.1401C71.9662 96.1401 71.959 96.1387 71.9524 96.1359C71.9458 96.1331 71.9399 96.129 71.9349 96.1239L69.8538 93.5101C69.8446 93.4988 69.8329 93.4897 69.8196 93.4836C69.8062 93.4775 69.7916 93.4746 69.7769 93.475H67.6013C67.5919 93.4755 67.5828 93.4785 67.5749 93.4836C67.567 93.4887 67.5607 93.4957 67.5565 93.5041C67.5523 93.5124 67.5504 93.5217 67.551 93.5309C67.5516 93.5402 67.5546 93.5492 67.5599 93.5569L70.7702 97.65C70.7785 97.6587 70.7831 97.6702 70.7831 97.6822C70.7831 97.6941 70.7785 97.7057 70.7702 97.7143L67.2229 102.299C67.2176 102.306 67.2146 102.315 67.214 102.325C67.2134 102.334 67.2153 102.343 67.2195 102.351C67.2237 102.36 67.2301 102.367 67.2379 102.372C67.2458 102.377 67.2549 102.38 67.2643 102.38H68.9729C69.1269 102.382 69.2791 102.347 69.4169 102.279C69.5547 102.211 69.674 102.112 69.7651 101.989L71.9172 99.1996C71.9221 99.1944 71.9281 99.1903 71.9347 99.1876C71.9413 99.1848 71.9484 99.1833 71.9556 99.1833C71.9628 99.1833 71.9699 99.1848 71.9765 99.1876C71.9831 99.1903 71.9891 99.1944 71.994 99.1996L74.4535 102.345C74.4624 102.357 74.4739 102.367 74.4872 102.375C74.5005 102.382 74.5153 102.386 74.5304 102.386H76.7652C76.7737 102.379 76.7796 102.37 76.7817 102.359C76.7839 102.349 76.7822 102.337 76.777 102.328Z" fill="#287AF3"/>
<path d="M76.777 133.593L73.1292 128.95C73.1233 128.942 73.1202 128.932 73.1202 128.921C73.1202 128.911 73.1233 128.901 73.1292 128.892L76.2685 124.828C76.2738 124.82 76.2768 124.811 76.2774 124.802C76.278 124.793 76.2761 124.783 76.2719 124.775C76.2677 124.767 76.2614 124.76 76.2535 124.755C76.2456 124.75 76.2365 124.747 76.2271 124.746H74.5836C74.4291 124.747 74.2769 124.782 74.1385 124.85C74.0001 124.918 73.8794 125.017 73.7854 125.138L72.0118 127.418C72.0068 127.423 72.0008 127.428 71.9942 127.43C71.9876 127.433 71.9805 127.435 71.9733 127.435C71.9662 127.435 71.959 127.433 71.9524 127.43C71.9458 127.428 71.9399 127.423 71.9349 127.418L69.8538 124.775C69.8446 124.764 69.8329 124.755 69.8196 124.749C69.8062 124.743 69.7916 124.74 69.7769 124.74H67.6013C67.5919 124.741 67.5828 124.744 67.5749 124.749C67.567 124.754 67.5607 124.761 67.5565 124.769C67.5523 124.778 67.5504 124.787 67.551 124.796C67.5516 124.805 67.5546 124.814 67.5599 124.822L70.7702 128.915C70.7785 128.924 70.7831 128.935 70.7831 128.947C70.7831 128.959 70.7785 128.971 70.7702 128.98L67.2229 133.564C67.2176 133.572 67.2146 133.581 67.214 133.59C67.2134 133.599 67.2153 133.608 67.2195 133.617C67.2237 133.625 67.2301 133.632 67.2379 133.637C67.2458 133.642 67.2549 133.645 67.2643 133.646H68.9729C69.1269 133.647 69.2791 133.613 69.4169 133.545C69.5547 133.476 69.674 133.377 69.7651 133.254L71.9172 130.465C71.9221 130.46 71.9281 130.456 71.9347 130.453C71.9413 130.45 71.9484 130.449 71.9556 130.449C71.9628 130.449 71.9699 130.45 71.9765 130.453C71.9831 130.456 71.9891 130.46 71.994 130.465L74.4535 133.611C74.4624 133.623 74.4739 133.633 74.4872 133.64C74.5005 133.647 74.5153 133.651 74.5304 133.652H76.7652C76.7737 133.645 76.7796 133.635 76.7817 133.624C76.7839 133.614 76.7822 133.603 76.777 133.593Z" fill="#287AF3"/>
<path d="M9.57534 8.84717L5.92751 4.20441C5.92358 4.2006 5.92046 4.19606 5.91832 4.19104C5.91619 4.18602 5.9151 4.18062 5.9151 4.17517C5.9151 4.16973 5.91619 4.16434 5.91832 4.15932C5.92046 4.1543 5.92358 4.14976 5.92751 4.14594L9.06098 0.0820668C9.06853 0.0755666 9.0738 0.0668624 9.07603 0.0572094C9.07827 0.0475564 9.07735 0.0374565 9.0734 0.0283548C9.06946 0.019253 9.0627 0.0116246 9.05409 0.00656661C9.04548 0.0015086 9.03547 -0.000721542 9.02551 0.00020503H7.35235C7.1989 0.00175438 7.04781 0.0378416 6.91054 0.10572C6.77328 0.173598 6.65344 0.271485 6.56012 0.391973L4.78646 2.67242C4.78149 2.67755 4.77553 2.68163 4.76893 2.68442C4.76232 2.68721 4.75522 2.68864 4.74803 2.68864C4.74085 2.68864 4.73375 2.68721 4.72714 2.68442C4.72054 2.68163 4.71457 2.67755 4.7096 2.67242L2.63443 0.0352874C2.62525 0.0239376 2.61353 0.0148601 2.60018 0.0087704C2.58684 0.00268068 2.57225 -0.000252417 2.55757 0.00020503H0.387791C0.378399 0.000695867 0.369306 0.00364636 0.36144 0.00874364C0.353573 0.0138409 0.347213 0.0209095 0.343007 0.0292292C0.338801 0.0375488 0.3369 0.0468202 0.337497 0.056103C0.338094 0.0653859 0.341168 0.0743414 0.346406 0.0820668L3.55673 4.17517C3.56504 4.18386 3.56968 4.19537 3.56968 4.20734C3.56968 4.2193 3.56504 4.23081 3.55673 4.23949L0.00941082 8.82378C0.00430333 8.8311 0.00115678 8.83958 0.000263231 8.84843C-0.000630315 8.85728 0.000759556 8.86621 0.00430251 8.87439C0.00784547 8.88256 0.0134258 8.88972 0.0205228 8.89519C0.0276198 8.90065 0.0360014 8.90425 0.0448848 8.90564H1.74168C1.8967 8.90821 2.05008 8.87397 2.18895 8.8058C2.32783 8.73764 2.44815 8.63752 2.53983 8.51387L4.69187 5.72471C4.69683 5.71958 4.7028 5.7155 4.7094 5.71271C4.71601 5.70992 4.72312 5.70848 4.7303 5.70848C4.73748 5.70848 4.74458 5.70992 4.75119 5.71271C4.75779 5.7155 4.76376 5.71958 4.76872 5.72471L7.22228 8.87055C7.23235 8.8828 7.24494 8.89279 7.25921 8.89984C7.27348 8.9069 7.28911 8.91087 7.30506 8.91149H9.54578C9.55789 8.9063 9.56763 8.89685 9.57309 8.88496C9.57856 8.87307 9.57936 8.8596 9.57534 8.84717Z" fill="#287AF3"/>
</svg>
