<svg width="178" height="25" viewBox="0 0 178 25" fill="none" xmlns="http://www.w3.org/2000/svg">
<path d="M43.599 24.1068L39.9512 19.464C39.9472 19.4602 39.9441 19.4557 39.942 19.4506C39.9398 19.4456 39.9387 19.4402 39.9387 19.4348C39.9387 19.4293 39.9398 19.4239 39.942 19.4189C39.9441 19.4139 39.9472 19.4094 39.9512 19.4056L43.0846 15.3417C43.0897 15.3344 43.0929 15.3259 43.0938 15.317C43.0947 15.3082 43.0933 15.2992 43.0897 15.2911C43.0862 15.2829 43.0806 15.2757 43.0735 15.2703C43.0664 15.2648 43.058 15.2612 43.0492 15.2598H41.376C41.2225 15.2609 41.0712 15.2968 40.9339 15.3647C40.7966 15.4326 40.6768 15.5308 40.5838 15.6516L38.8101 17.932C38.8051 17.9372 38.7992 17.9412 38.7926 17.944C38.786 17.9468 38.7789 17.9483 38.7717 17.9483C38.7645 17.9483 38.7574 17.9468 38.7508 17.944C38.7442 17.9412 38.7382 17.9372 38.7333 17.932L36.6581 15.2949C36.6489 15.2835 36.6372 15.2745 36.6238 15.2684C36.6105 15.2623 36.5959 15.2594 36.5812 15.2598H34.4055C34.3966 15.2612 34.3883 15.2648 34.3812 15.2703C34.3741 15.2757 34.3685 15.2829 34.3649 15.2911C34.3614 15.2992 34.36 15.3082 34.3609 15.317C34.3618 15.3259 34.3649 15.3344 34.3701 15.3417L37.5804 19.4348C37.5861 19.4446 37.5891 19.4557 37.5891 19.4669C37.5891 19.4782 37.5861 19.4893 37.5804 19.4991L34.0094 24.1068C34.0043 24.1141 34.0012 24.1226 34.0003 24.1314C33.9994 24.1403 34.0008 24.1492 34.0043 24.1574C34.0078 24.1656 34.0134 24.1727 34.0205 24.1782C34.0276 24.1837 34.036 24.1872 34.0449 24.1886H35.7831C35.9379 24.1902 36.091 24.1556 36.2297 24.0875C36.3684 24.0194 36.4889 23.9198 36.5812 23.7969L38.7392 21.0136C38.7441 21.0084 38.7501 21.0043 38.7567 21.0016C38.7633 20.9988 38.7704 20.9973 38.7776 20.9973C38.7848 20.9973 38.7919 20.9988 38.7985 21.0016C38.8051 21.0043 38.8111 21.0084 38.816 21.0136L41.2696 24.1594C41.2785 24.1715 41.29 24.1815 41.3033 24.1885C41.3166 24.1956 41.3313 24.1997 41.3464 24.2003H43.5813C43.591 24.1978 43.5998 24.1926 43.6067 24.1853C43.6136 24.178 43.6182 24.1689 43.6201 24.1591C43.622 24.1493 43.621 24.1392 43.6172 24.1299C43.6135 24.1206 43.6072 24.1126 43.599 24.1068Z" fill="#0076FC"/>
<path d="M9.59899 24.1068L5.95117 19.464C5.94723 19.4602 5.94411 19.4557 5.94198 19.4506C5.93984 19.4456 5.93874 19.4402 5.93874 19.4348C5.93874 19.4293 5.93984 19.4239 5.94198 19.4189C5.94411 19.4139 5.94723 19.4094 5.95117 19.4056L9.08463 15.3417C9.08974 15.3344 9.09288 15.3259 9.09378 15.317C9.09467 15.3082 9.09328 15.2992 9.08974 15.2911C9.08619 15.2829 9.08061 15.2757 9.07352 15.2703C9.06642 15.2648 9.05804 15.2612 9.04915 15.2598H7.376C7.22247 15.2609 7.07123 15.2968 6.9339 15.3647C6.79657 15.4326 6.67679 15.5308 6.58377 15.6516L4.81011 17.932C4.80515 17.9372 4.79918 17.9412 4.79258 17.944C4.78597 17.9468 4.77886 17.9483 4.77168 17.9483C4.7645 17.9483 4.75739 17.9468 4.75079 17.944C4.74419 17.9412 4.73822 17.9372 4.73325 17.932L2.65807 15.2949C2.6489 15.2835 2.63717 15.2745 2.62383 15.2684C2.61049 15.2623 2.5959 15.2594 2.58122 15.2598H0.405529C0.396645 15.2612 0.388264 15.2648 0.381167 15.2703C0.37407 15.2757 0.368489 15.2829 0.364946 15.2911C0.361403 15.2992 0.360013 15.3082 0.360907 15.317C0.361801 15.3259 0.364948 15.3344 0.370056 15.3417L3.58038 19.4348C3.58608 19.4446 3.58909 19.4557 3.58909 19.4669C3.58909 19.4782 3.58608 19.4893 3.58038 19.4991L0.00941184 24.1068C0.00430435 24.1141 0.0011568 24.1226 0.000263257 24.1314C-0.00063029 24.1403 0.00075933 24.1492 0.00430229 24.1574C0.00784524 24.1656 0.0134259 24.1727 0.0205229 24.1782C0.0276199 24.1837 0.0360016 24.1872 0.044885 24.1886H1.78307C1.93793 24.1902 2.09097 24.1556 2.22969 24.0875C2.36841 24.0194 2.48887 23.9198 2.58122 23.7969L4.73917 21.0136C4.74413 21.0084 4.7501 21.0043 4.7567 21.0016C4.76331 20.9988 4.77041 20.9973 4.7776 20.9973C4.78478 20.9973 4.79188 20.9988 4.79849 21.0016C4.80509 21.0043 4.81106 21.0084 4.81602 21.0136L7.26958 24.1594C7.27846 24.1715 7.28998 24.1815 7.30329 24.1885C7.31659 24.1956 7.33134 24.1997 7.34644 24.2003H9.58125C9.59101 24.1978 9.59985 24.1926 9.60672 24.1853C9.6136 24.178 9.61824 24.1689 9.6201 24.1591C9.62196 24.1493 9.62096 24.1392 9.61722 24.1299C9.61349 24.1206 9.60716 24.1126 9.59899 24.1068Z" fill="#0076FC"/>
<path d="M77.1964 24.1067L73.5486 19.4639C73.5447 19.4601 73.5416 19.4556 73.5394 19.4506C73.5373 19.4455 73.5362 19.4401 73.5362 19.4347C73.5362 19.4292 73.5373 19.4239 73.5394 19.4188C73.5416 19.4138 73.5447 19.4093 73.5486 19.4055L76.6821 15.3416C76.6896 15.3351 76.6949 15.3264 76.6971 15.3167C76.6994 15.3071 76.6984 15.297 76.6945 15.2879C76.6906 15.2788 76.6838 15.2711 76.6752 15.2661C76.6666 15.261 76.6566 15.2588 76.6466 15.2597H74.9734C74.82 15.2613 74.6689 15.2974 74.5316 15.3652C74.3944 15.4331 74.2745 15.531 74.1812 15.6515L72.4076 17.9319C72.4026 17.9371 72.3966 17.9412 72.39 17.9439C72.3834 17.9467 72.3763 17.9482 72.3691 17.9482C72.3619 17.9482 72.3548 17.9467 72.3482 17.9439C72.3416 17.9412 72.3357 17.9371 72.3307 17.9319L70.2555 15.2948C70.2463 15.2835 70.2346 15.2744 70.2213 15.2683C70.2079 15.2622 70.1933 15.2593 70.1787 15.2597H68.0089C67.9995 15.2602 67.9904 15.2632 67.9825 15.2683C67.9747 15.2734 67.9683 15.2804 67.9641 15.2888C67.9599 15.2971 67.958 15.3063 67.9586 15.3156C67.9592 15.3249 67.9623 15.3339 67.9675 15.3416L71.1778 19.4347C71.1861 19.4434 71.1908 19.4549 71.1908 19.4669C71.1908 19.4788 71.1861 19.4903 71.1778 19.499L67.6305 24.0833C67.6254 24.0906 67.6223 24.0991 67.6214 24.108C67.6205 24.1168 67.6219 24.1257 67.6254 24.1339C67.6289 24.1421 67.6345 24.1492 67.6416 24.1547C67.6487 24.1602 67.6571 24.1638 67.666 24.1652H69.3628C69.5178 24.1677 69.6712 24.1335 69.81 24.0653C69.9489 23.9972 70.0692 23.897 70.1609 23.7734L72.313 20.9842C72.3179 20.9791 72.3239 20.975 72.3305 20.9722C72.3371 20.9694 72.3442 20.968 72.3514 20.968C72.3586 20.968 72.3657 20.9694 72.3723 20.9722C72.3789 20.975 72.3849 20.9791 72.3898 20.9842L74.8434 24.1301C74.8534 24.1423 74.866 24.1523 74.8803 24.1594C74.8946 24.1664 74.9102 24.1704 74.9261 24.171H77.1669C77.179 24.1658 77.1887 24.1564 77.1942 24.1445C77.1996 24.1326 77.2005 24.1191 77.1964 24.1067Z" fill="#0076FC"/>
<path d="M110.795 24.1067L107.147 19.4639C107.14 19.4556 107.137 19.4453 107.137 19.4347C107.137 19.4241 107.14 19.4137 107.147 19.4055L110.274 15.3357C110.282 15.3292 110.287 15.3205 110.29 15.3109C110.292 15.3012 110.291 15.2911 110.287 15.282C110.283 15.2729 110.276 15.2653 110.268 15.2602C110.259 15.2552 110.249 15.2529 110.239 15.2539H108.566C108.412 15.2554 108.261 15.2915 108.124 15.3594C107.987 15.4273 107.867 15.5251 107.774 15.6456L106 17.9261C105.995 17.9312 105.989 17.9353 105.982 17.9381C105.976 17.9409 105.969 17.9423 105.962 17.9423C105.954 17.9423 105.947 17.9409 105.941 17.9381C105.934 17.9353 105.928 17.9312 105.923 17.9261L103.848 15.289C103.839 15.2776 103.827 15.2685 103.814 15.2624C103.8 15.2563 103.786 15.2534 103.771 15.2539H101.595C101.586 15.2544 101.577 15.2573 101.569 15.2624C101.561 15.2675 101.555 15.2746 101.551 15.2829C101.546 15.2912 101.545 15.3005 101.545 15.3098C101.546 15.319 101.549 15.328 101.554 15.3357L104.764 19.4288C104.773 19.4375 104.777 19.449 104.777 19.461C104.777 19.473 104.773 19.4845 104.764 19.4932L101.217 24.0774C101.212 24.0852 101.209 24.0941 101.208 24.1034C101.208 24.1127 101.209 24.122 101.214 24.1303C101.218 24.1386 101.224 24.1457 101.232 24.1508C101.24 24.1559 101.249 24.1588 101.258 24.1593H102.961C103.116 24.1619 103.27 24.1276 103.408 24.0595C103.547 23.9913 103.668 23.8912 103.759 23.7675L105.911 20.9784C105.916 20.9732 105.922 20.9692 105.929 20.9664C105.935 20.9636 105.943 20.9621 105.95 20.9621C105.957 20.9621 105.964 20.9636 105.971 20.9664C105.977 20.9692 105.983 20.9732 105.988 20.9784L108.442 24.1242C108.452 24.1365 108.464 24.1464 108.479 24.1535C108.493 24.1606 108.509 24.1645 108.524 24.1651H110.759C110.771 24.1612 110.781 24.1531 110.788 24.1424C110.794 24.1316 110.797 24.119 110.795 24.1067Z" fill="#0076FC"/>
<path d="M144.398 24.1065L140.75 19.4637C140.744 19.4551 140.741 19.4449 140.741 19.4345C140.741 19.4241 140.744 19.4139 140.75 19.4053L143.89 15.3414C143.895 15.3337 143.898 15.3247 143.899 15.3154C143.899 15.3061 143.897 15.2969 143.893 15.2885C143.889 15.2802 143.882 15.2732 143.875 15.2681C143.867 15.263 143.858 15.26 143.848 15.2595H142.205C142.05 15.2602 141.898 15.2958 141.76 15.3638C141.621 15.4317 141.5 15.53 141.407 15.6513L139.633 17.9317C139.628 17.9369 139.622 17.941 139.615 17.9437C139.609 17.9465 139.602 17.948 139.594 17.948C139.587 17.948 139.58 17.9465 139.574 17.9437C139.567 17.941 139.561 17.9369 139.556 17.9317L137.475 15.3005C137.466 15.2891 137.454 15.28 137.441 15.2739C137.427 15.2679 137.413 15.2649 137.398 15.2654H135.222C135.213 15.2659 135.204 15.2688 135.196 15.2739C135.188 15.279 135.182 15.2861 135.178 15.2944C135.173 15.3027 135.171 15.312 135.172 15.3213C135.173 15.3305 135.176 15.3395 135.181 15.3472L138.391 19.4403C138.4 19.449 138.404 19.4605 138.404 19.4725C138.404 19.4845 138.4 19.496 138.391 19.5047L134.844 24.0889C134.839 24.0967 134.836 24.1056 134.835 24.1149C134.834 24.1242 134.836 24.1335 134.841 24.1418C134.845 24.1501 134.851 24.1572 134.859 24.1623C134.867 24.1674 134.876 24.1703 134.885 24.1708H136.594C136.748 24.1724 136.9 24.1377 137.038 24.0696C137.176 24.0015 137.295 23.9019 137.386 23.779L139.538 20.9899C139.543 20.9847 139.549 20.9807 139.556 20.9779C139.562 20.9751 139.57 20.9736 139.577 20.9736C139.584 20.9736 139.591 20.9751 139.598 20.9779C139.604 20.9807 139.61 20.9847 139.615 20.9899L142.075 24.1357C142.083 24.1478 142.095 24.1578 142.108 24.1649C142.122 24.172 142.136 24.176 142.151 24.1766H144.386C144.392 24.1732 144.397 24.1685 144.401 24.1629C144.405 24.1573 144.407 24.1509 144.409 24.1443C144.41 24.1376 144.409 24.1308 144.407 24.1242C144.406 24.1177 144.402 24.1117 144.398 24.1065Z" fill="#0076FC"/>
<path d="M177.995 24.1065L174.347 19.4638C174.341 19.4551 174.338 19.4449 174.338 19.4345C174.338 19.4241 174.341 19.414 174.347 19.4053L177.486 15.3414C177.492 15.3337 177.495 15.3247 177.495 15.3155C177.496 15.3062 177.494 15.2969 177.49 15.2886C177.486 15.2803 177.479 15.2732 177.471 15.2681C177.464 15.263 177.454 15.2601 177.445 15.2596H175.778C175.623 15.2611 175.472 15.2971 175.333 15.365C175.195 15.4328 175.074 15.5307 174.98 15.6513L173.206 17.9318C173.201 17.9369 173.195 17.941 173.188 17.9438C173.182 17.9466 173.175 17.948 173.168 17.948C173.16 17.948 173.153 17.9466 173.147 17.9438C173.14 17.941 173.134 17.9369 173.129 17.9318L171.054 15.2947C171.045 15.2833 171.033 15.2742 171.02 15.2681C171.006 15.262 170.992 15.2591 170.977 15.2596H168.807C168.798 15.2601 168.789 15.263 168.781 15.2681C168.773 15.2732 168.767 15.2803 168.763 15.2886C168.758 15.2969 168.756 15.3062 168.757 15.3155C168.758 15.3247 168.761 15.3337 168.766 15.3414L171.976 19.4345C171.985 19.4432 171.989 19.4547 171.989 19.4667C171.989 19.4787 171.985 19.4902 171.976 19.4989L168.429 24.0831C168.424 24.0909 168.421 24.0998 168.42 24.1091C168.419 24.1184 168.421 24.1277 168.426 24.136C168.43 24.1443 168.436 24.1514 168.444 24.1565C168.452 24.1616 168.461 24.1645 168.47 24.165H170.179C170.333 24.1666 170.485 24.132 170.623 24.0638C170.761 23.9957 170.88 23.8961 170.971 23.7732L173.123 20.9841C173.128 20.9789 173.134 20.9749 173.141 20.9721C173.147 20.9693 173.154 20.9678 173.162 20.9678C173.169 20.9678 173.176 20.9693 173.183 20.9721C173.189 20.9749 173.195 20.9789 173.2 20.9841L175.66 24.1299C175.668 24.142 175.68 24.152 175.693 24.1591C175.707 24.1662 175.721 24.1702 175.736 24.1709H177.971C177.977 24.1683 177.983 24.1646 177.987 24.16C177.992 24.1553 177.995 24.1498 177.997 24.1438C177.999 24.1377 178 24.1313 178 24.1249C178 24.1185 177.998 24.1123 177.995 24.1065Z" fill="#0076FC"/>
</svg>
