<svg width="44" height="59" viewBox="0 0 44 59" fill="none" xmlns="http://www.w3.org/2000/svg">
<path d="M9.57494 27.3839L5.92712 22.7411C5.9204 22.7328 5.91675 22.7225 5.91675 22.7119C5.91675 22.7012 5.9204 22.6909 5.92712 22.6826L9.06058 18.5895C9.06071 18.5814 9.05867 18.5733 9.05467 18.5661H7.38152C7.22806 18.5677 7.07698 18.6038 6.93971 18.6716C6.80245 18.7395 6.68261 18.8374 6.58929 18.9579L4.81563 21.2383C4.81066 21.2435 4.8047 21.2476 4.79809 21.2503C4.79149 21.2531 4.78438 21.2546 4.7772 21.2546C4.77002 21.2546 4.76291 21.2531 4.75631 21.2503C4.7497 21.2476 4.74374 21.2435 4.73877 21.2383L2.63994 18.5661C2.63077 18.5548 2.61904 18.5457 2.6057 18.5396C2.59236 18.5335 2.57777 18.5306 2.56308 18.5311H0.387396C0.378004 18.5315 0.368916 18.5345 0.361049 18.5396C0.353182 18.5447 0.34682 18.5517 0.342614 18.5601C0.338408 18.5684 0.336505 18.5777 0.337102 18.5869C0.337699 18.5962 0.340772 18.6052 0.34601 18.6129L3.55633 22.706C3.56465 22.7147 3.56928 22.7262 3.56928 22.7382C3.56928 22.7501 3.56465 22.7617 3.55633 22.7703L0.0090158 27.3546C0.00377779 27.3623 0.000704371 27.3713 0.000107283 27.3806C-0.000489804 27.3899 0.00141332 27.3991 0.00561929 27.4075C0.00982526 27.4158 0.0161828 27.4229 0.0240498 27.428C0.0319167 27.4331 0.0410092 27.436 0.050401 27.4365H1.75311C1.90813 27.439 2.06151 27.4048 2.20039 27.3366C2.33926 27.2685 2.45958 27.1684 2.55126 27.0447L4.7033 24.2556C4.70826 24.2504 4.71423 24.2463 4.72083 24.2436C4.72744 24.2408 4.73455 24.2393 4.74173 24.2393C4.74891 24.2393 4.75602 24.2408 4.76262 24.2436C4.76923 24.2463 4.77519 24.2504 4.78015 24.2556L7.23371 27.4014C7.24378 27.4136 7.25637 27.4236 7.27064 27.4307C7.28491 27.4377 7.30054 27.4417 7.31648 27.4423H9.55129C9.56108 27.4364 9.56867 27.4275 9.57293 27.417C9.5772 27.4064 9.57791 27.3948 9.57494 27.3839Z" fill="white"/>
<path d="M43.1754 27.3838L39.5276 22.741C39.5218 22.7324 39.5186 22.7222 39.5186 22.7118C39.5186 22.7014 39.5218 22.6912 39.5276 22.6825L42.667 18.5894C42.6722 18.5817 42.6753 18.5727 42.6759 18.5635C42.6765 18.5542 42.6746 18.5449 42.6704 18.5366C42.6662 18.5283 42.6598 18.5212 42.6519 18.5161C42.6441 18.511 42.635 18.5081 42.6256 18.5076H40.982C40.8275 18.5082 40.6753 18.5439 40.5369 18.6118C40.3986 18.6797 40.2778 18.7781 40.1839 18.8993L38.4102 21.1798C38.4052 21.1849 38.3993 21.189 38.3927 21.1918C38.3861 21.1946 38.379 21.196 38.3718 21.196C38.3646 21.196 38.3575 21.1946 38.3509 21.1918C38.3443 21.189 38.3383 21.1849 38.3333 21.1798L36.2522 18.566C36.2431 18.5547 36.2314 18.5456 36.218 18.5395C36.2047 18.5334 36.1901 18.5305 36.1754 18.531H33.9997C33.9903 18.5314 33.9812 18.5344 33.9734 18.5395C33.9655 18.5446 33.9591 18.5517 33.9549 18.56C33.9507 18.5683 33.9488 18.5776 33.9494 18.5869C33.95 18.5961 33.9531 18.6051 33.9583 18.6128L37.1686 22.7059C37.177 22.7146 37.1816 22.7261 37.1816 22.7381C37.1816 22.7501 37.177 22.7616 37.1686 22.7702L33.6213 27.3545C33.6161 27.3623 33.613 27.3712 33.6124 27.3805C33.6118 27.3898 33.6137 27.3991 33.6179 27.4074C33.6221 27.4157 33.6285 27.4228 33.6364 27.4279C33.6442 27.433 33.6533 27.4359 33.6627 27.4364H35.3713C35.5254 27.438 35.6775 27.4033 35.8153 27.3352C35.9531 27.2671 36.0725 27.1675 36.1636 27.0446L38.3156 24.2555C38.3206 24.2503 38.3265 24.2463 38.3331 24.2435C38.3397 24.2407 38.3468 24.2392 38.354 24.2392C38.3612 24.2392 38.3683 24.2407 38.3749 24.2435C38.3815 24.2463 38.3875 24.2503 38.3925 24.2555L40.8519 27.4013C40.8608 27.4134 40.8723 27.4234 40.8856 27.4305C40.8989 27.4375 40.9137 27.4416 40.9288 27.4422H43.1636C43.1721 27.4354 43.178 27.4258 43.1802 27.4151C43.1823 27.4044 43.1806 27.3933 43.1754 27.3838Z" fill="white"/>
<path d="M43.1754 58.6492L39.5276 54.0065C39.5218 53.9978 39.5186 53.9877 39.5186 53.9772C39.5186 53.9668 39.5218 53.9567 39.5276 53.948L42.667 49.8841C42.6722 49.8764 42.6753 49.8675 42.6759 49.8582C42.6765 49.8489 42.6746 49.8396 42.6704 49.8313C42.6662 49.823 42.6598 49.8159 42.6519 49.8108C42.6441 49.8057 42.635 49.8028 42.6256 49.8023H40.982C40.8275 49.8029 40.6753 49.8386 40.5369 49.9065C40.3986 49.9744 40.2778 50.0728 40.1839 50.194L38.4102 52.4745C38.4052 52.4796 38.3993 52.4837 38.3927 52.4865C38.3861 52.4893 38.379 52.4907 38.3718 52.4907C38.3646 52.4907 38.3575 52.4893 38.3509 52.4865C38.3443 52.4837 38.3383 52.4796 38.3333 52.4745L36.2522 49.8315C36.2431 49.8202 36.2314 49.8111 36.218 49.805C36.2047 49.7989 36.1901 49.796 36.1754 49.7964H33.9997C33.9903 49.7969 33.9812 49.7999 33.9734 49.805C33.9655 49.8101 33.9591 49.8171 33.9549 49.8254C33.9507 49.8338 33.9488 49.843 33.9494 49.8523C33.95 49.8616 33.9531 49.8706 33.9583 49.8783L37.1686 53.9714C37.177 53.9801 37.1816 53.9916 37.1816 54.0036C37.1816 54.0155 37.177 54.027 37.1686 54.0357L33.6213 58.62C33.6161 58.6277 33.613 58.6367 33.6124 58.646C33.6118 58.6553 33.6137 58.6645 33.6179 58.6728C33.6221 58.6812 33.6285 58.6882 33.6364 58.6933C33.6442 58.6984 33.6533 58.7014 33.6627 58.7019H35.3713C35.5254 58.7035 35.6775 58.6688 35.8153 58.6007C35.9531 58.5325 36.0725 58.4329 36.1636 58.3101L38.3156 55.5209C38.3206 55.5158 38.3265 55.5117 38.3331 55.5089C38.3397 55.5061 38.3468 55.5047 38.354 55.5047C38.3612 55.5047 38.3683 55.5061 38.3749 55.5089C38.3815 55.5117 38.3875 55.5158 38.3925 55.5209L40.8519 58.6668C40.8608 58.6789 40.8723 58.6888 40.8856 58.6959C40.8989 58.703 40.9137 58.707 40.9288 58.7077H43.1636C43.1721 58.7008 43.178 58.6913 43.1802 58.6806C43.1823 58.6699 43.1806 58.6588 43.1754 58.6492Z" fill="white"/>
</svg>
