<svg width="178" height="41" viewBox="0 0 178 41" fill="none" xmlns="http://www.w3.org/2000/svg">
<path d="M144.398 8.85285L140.75 4.2101C140.744 4.20144 140.741 4.19127 140.741 4.18086C140.741 4.17045 140.744 4.16028 140.75 4.15162L143.89 0.0877522C143.895 0.0800268 143.898 0.0710713 143.899 0.0617884C143.899 0.0525056 143.897 0.0432253 143.893 0.0349057C143.889 0.026586 143.882 0.0195174 143.875 0.0144201C143.867 0.00932285 143.858 0.00638128 143.848 0.00589044H142.205C142.05 0.00655148 141.898 0.042208 141.76 0.11012C141.621 0.178033 141.5 0.276394 141.407 0.397658L139.633 2.67811C139.628 2.68324 139.622 2.68732 139.615 2.69011C139.609 2.6929 139.602 2.69433 139.594 2.69433C139.587 2.69433 139.58 2.6929 139.574 2.69011C139.567 2.68732 139.561 2.68324 139.556 2.67811L137.475 0.0351287C137.466 0.023779 137.454 0.0147015 137.441 0.00861174C137.427 0.00252201 137.413 -0.000411086 137.398 4.63606e-05H135.222C135.213 0.000537198 135.204 0.00347877 135.196 0.00857605C135.188 0.0136733 135.182 0.020742 135.178 0.0290616C135.173 0.0373812 135.171 0.0466526 135.172 0.0559354C135.173 0.0652183 135.176 0.0741827 135.181 0.0819082L138.391 4.17502C138.4 4.1837 138.404 4.19521 138.404 4.20717C138.404 4.21913 138.4 4.23065 138.391 4.23934L134.844 8.82361C134.839 8.83134 134.836 8.8403 134.835 8.84959C134.834 8.85887 134.836 8.86814 134.841 8.87646C134.845 8.88478 134.851 8.89185 134.859 8.89695C134.867 8.90204 134.876 8.90498 134.885 8.90548H136.594C136.748 8.90711 136.9 8.87242 137.038 8.80429C137.176 8.73616 137.295 8.63655 137.386 8.51371L139.538 5.72455C139.543 5.71942 139.549 5.71533 139.556 5.71254C139.562 5.70976 139.57 5.70832 139.577 5.70832C139.584 5.70832 139.591 5.70976 139.598 5.71254C139.604 5.71533 139.61 5.71942 139.615 5.72455L142.075 8.87039C142.083 8.88249 142.095 8.89246 142.108 8.89954C142.122 8.90663 142.136 8.91065 142.151 8.91132H144.386C144.395 8.90446 144.401 8.89487 144.403 8.8842C144.405 8.87352 144.403 8.86244 144.398 8.85285Z" fill="white"/>
<path d="M43.599 40.1068L39.9512 35.464C39.9472 35.4602 39.9441 35.4557 39.942 35.4506C39.9398 35.4456 39.9387 35.4402 39.9387 35.4348C39.9387 35.4293 39.9398 35.4239 39.942 35.4189C39.9441 35.4139 39.9472 35.4094 39.9512 35.4056L43.0846 31.3417C43.0897 31.3344 43.0929 31.3259 43.0938 31.317C43.0947 31.3082 43.0933 31.2992 43.0897 31.2911C43.0862 31.2829 43.0806 31.2757 43.0735 31.2703C43.0664 31.2648 43.058 31.2612 43.0492 31.2598H41.376C41.2225 31.2609 41.0712 31.2968 40.9339 31.3647C40.7966 31.4326 40.6768 31.5308 40.5838 31.6516L38.8101 33.932C38.8051 33.9372 38.7992 33.9412 38.7926 33.944C38.786 33.9468 38.7789 33.9483 38.7717 33.9483C38.7645 33.9483 38.7574 33.9468 38.7508 33.944C38.7442 33.9412 38.7382 33.9372 38.7333 33.932L36.6581 31.2949C36.6489 31.2835 36.6372 31.2745 36.6238 31.2684C36.6105 31.2623 36.5959 31.2594 36.5812 31.2598H34.4055C34.3966 31.2612 34.3883 31.2648 34.3812 31.2703C34.3741 31.2757 34.3685 31.2829 34.3649 31.2911C34.3614 31.2992 34.36 31.3082 34.3609 31.317C34.3618 31.3259 34.3649 31.3344 34.3701 31.3417L37.5804 35.4348C37.5861 35.4446 37.5891 35.4557 37.5891 35.4669C37.5891 35.4782 37.5861 35.4893 37.5804 35.4991L34.0094 40.1068C34.0043 40.1141 34.0012 40.1226 34.0003 40.1314C33.9994 40.1403 34.0008 40.1492 34.0043 40.1574C34.0078 40.1656 34.0134 40.1727 34.0205 40.1782C34.0276 40.1837 34.036 40.1872 34.0449 40.1886H35.7831C35.9379 40.1902 36.091 40.1556 36.2297 40.0875C36.3684 40.0194 36.4889 39.9198 36.5812 39.7969L38.7392 37.0136C38.7441 37.0084 38.7501 37.0043 38.7567 37.0016C38.7633 36.9988 38.7704 36.9973 38.7776 36.9973C38.7848 36.9973 38.7919 36.9988 38.7985 37.0016C38.8051 37.0043 38.8111 37.0084 38.816 37.0136L41.2696 40.1594C41.2785 40.1715 41.29 40.1815 41.3033 40.1885C41.3166 40.1956 41.3313 40.1997 41.3464 40.2003H43.5813C43.591 40.1978 43.5998 40.1926 43.6067 40.1853C43.6136 40.178 43.6182 40.1689 43.6201 40.1591C43.622 40.1493 43.621 40.1392 43.6172 40.1299C43.6135 40.1206 43.6072 40.1126 43.599 40.1068Z" fill="white"/>
<path d="M9.59899 40.1068L5.95117 35.464C5.94723 35.4602 5.94411 35.4557 5.94198 35.4506C5.93984 35.4456 5.93874 35.4402 5.93874 35.4348C5.93874 35.4293 5.93984 35.4239 5.94198 35.4189C5.94411 35.4139 5.94723 35.4094 5.95117 35.4056L9.08463 31.3417C9.08974 31.3344 9.09288 31.3259 9.09378 31.317C9.09467 31.3082 9.09328 31.2992 9.08974 31.2911C9.08619 31.2829 9.08061 31.2757 9.07352 31.2703C9.06642 31.2648 9.05804 31.2612 9.04915 31.2598H7.376C7.22247 31.2609 7.07123 31.2968 6.9339 31.3647C6.79657 31.4326 6.67679 31.5308 6.58377 31.6516L4.81011 33.932C4.80515 33.9372 4.79918 33.9412 4.79258 33.944C4.78597 33.9468 4.77886 33.9483 4.77168 33.9483C4.7645 33.9483 4.75739 33.9468 4.75079 33.944C4.74419 33.9412 4.73822 33.9372 4.73325 33.932L2.65807 31.2949C2.6489 31.2835 2.63717 31.2745 2.62383 31.2684C2.61049 31.2623 2.5959 31.2594 2.58122 31.2598H0.405529C0.396645 31.2612 0.388264 31.2648 0.381167 31.2703C0.37407 31.2757 0.368489 31.2829 0.364946 31.2911C0.361403 31.2992 0.360013 31.3082 0.360907 31.317C0.361801 31.3259 0.364948 31.3344 0.370056 31.3417L3.58038 35.4348C3.58608 35.4446 3.58909 35.4557 3.58909 35.4669C3.58909 35.4782 3.58608 35.4893 3.58038 35.4991L0.00941184 40.1068C0.00430435 40.1141 0.0011568 40.1226 0.000263257 40.1314C-0.00063029 40.1403 0.00075933 40.1492 0.00430229 40.1574C0.00784524 40.1656 0.0134259 40.1727 0.0205229 40.1782C0.0276199 40.1837 0.0360016 40.1872 0.044885 40.1886H1.78307C1.93793 40.1902 2.09097 40.1556 2.22969 40.0875C2.36841 40.0194 2.48887 39.9198 2.58122 39.7969L4.73917 37.0136C4.74413 37.0084 4.7501 37.0043 4.7567 37.0016C4.76331 36.9988 4.77041 36.9973 4.7776 36.9973C4.78478 36.9973 4.79188 36.9988 4.79849 37.0016C4.80509 37.0043 4.81106 37.0084 4.81602 37.0136L7.26958 40.1594C7.27846 40.1715 7.28998 40.1815 7.30329 40.1885C7.31659 40.1956 7.33134 40.1997 7.34644 40.2003H9.58125C9.59101 40.1978 9.59985 40.1926 9.60672 40.1853C9.6136 40.178 9.61824 40.1689 9.6201 40.1591C9.62196 40.1493 9.62096 40.1392 9.61722 40.1299C9.61349 40.1206 9.60716 40.1126 9.59899 40.1068Z" fill="white"/>
<path d="M77.1964 40.1067L73.5486 35.4639C73.5447 35.4601 73.5416 35.4556 73.5394 35.4506C73.5373 35.4455 73.5362 35.4401 73.5362 35.4347C73.5362 35.4292 73.5373 35.4239 73.5394 35.4188C73.5416 35.4138 73.5447 35.4093 73.5486 35.4055L76.6821 31.3416C76.6896 31.3351 76.6949 31.3264 76.6971 31.3167C76.6994 31.3071 76.6984 31.297 76.6945 31.2879C76.6906 31.2788 76.6838 31.2711 76.6752 31.2661C76.6666 31.261 76.6566 31.2588 76.6466 31.2597H74.9734C74.82 31.2613 74.6689 31.2974 74.5316 31.3652C74.3944 31.4331 74.2745 31.531 74.1812 31.6515L72.4076 33.9319C72.4026 33.9371 72.3966 33.9412 72.39 33.9439C72.3834 33.9467 72.3763 33.9482 72.3691 33.9482C72.3619 33.9482 72.3548 33.9467 72.3482 33.9439C72.3416 33.9412 72.3357 33.9371 72.3307 33.9319L70.2555 31.2948C70.2463 31.2835 70.2346 31.2744 70.2213 31.2683C70.2079 31.2622 70.1933 31.2593 70.1787 31.2597H68.0089C67.9995 31.2602 67.9904 31.2632 67.9825 31.2683C67.9747 31.2734 67.9683 31.2804 67.9641 31.2888C67.9599 31.2971 67.958 31.3063 67.9586 31.3156C67.9592 31.3249 67.9623 31.3339 67.9675 31.3416L71.1778 35.4347C71.1861 35.4434 71.1908 35.4549 71.1908 35.4669C71.1908 35.4788 71.1861 35.4903 71.1778 35.499L67.6305 40.0833C67.6254 40.0906 67.6223 40.0991 67.6214 40.108C67.6205 40.1168 67.6219 40.1257 67.6254 40.1339C67.6289 40.1421 67.6345 40.1492 67.6416 40.1547C67.6487 40.1602 67.6571 40.1638 67.666 40.1652H69.3628C69.5178 40.1677 69.6712 40.1335 69.81 40.0653C69.9489 39.9972 70.0692 39.897 70.1609 39.7734L72.313 36.9842C72.3179 36.9791 72.3239 36.975 72.3305 36.9722C72.3371 36.9694 72.3442 36.968 72.3514 36.968C72.3586 36.968 72.3657 36.9694 72.3723 36.9722C72.3789 36.975 72.3849 36.9791 72.3898 36.9842L74.8434 40.1301C74.8534 40.1423 74.866 40.1523 74.8803 40.1594C74.8946 40.1664 74.9102 40.1704 74.9261 40.171H77.1669C77.179 40.1658 77.1887 40.1564 77.1942 40.1445C77.1996 40.1326 77.2005 40.1191 77.1964 40.1067Z" fill="white"/>
<path d="M110.795 40.1067L107.147 35.4639C107.14 35.4556 107.137 35.4453 107.137 35.4347C107.137 35.4241 107.14 35.4137 107.147 35.4055L110.274 31.3357C110.282 31.3292 110.287 31.3205 110.29 31.3109C110.292 31.3012 110.291 31.2911 110.287 31.282C110.283 31.2729 110.276 31.2653 110.268 31.2602C110.259 31.2552 110.249 31.2529 110.239 31.2539H108.566C108.412 31.2554 108.261 31.2915 108.124 31.3594C107.987 31.4273 107.867 31.5251 107.774 31.6456L106 33.9261C105.995 33.9312 105.989 33.9353 105.982 33.9381C105.976 33.9409 105.969 33.9423 105.962 33.9423C105.954 33.9423 105.947 33.9409 105.941 33.9381C105.934 33.9353 105.928 33.9312 105.923 33.9261L103.848 31.289C103.839 31.2776 103.827 31.2685 103.814 31.2624C103.8 31.2563 103.786 31.2534 103.771 31.2539H101.595C101.586 31.2544 101.577 31.2573 101.569 31.2624C101.561 31.2675 101.555 31.2746 101.551 31.2829C101.546 31.2912 101.545 31.3005 101.545 31.3098C101.546 31.319 101.549 31.328 101.554 31.3357L104.764 35.4288C104.773 35.4375 104.777 35.449 104.777 35.461C104.777 35.473 104.773 35.4845 104.764 35.4932L101.217 40.0774C101.212 40.0852 101.209 40.0941 101.208 40.1034C101.208 40.1127 101.209 40.122 101.214 40.1303C101.218 40.1386 101.224 40.1457 101.232 40.1508C101.24 40.1559 101.249 40.1588 101.258 40.1593H102.961C103.116 40.1619 103.27 40.1276 103.408 40.0595C103.547 39.9913 103.668 39.8912 103.759 39.7675L105.911 36.9784C105.916 36.9732 105.922 36.9692 105.929 36.9664C105.935 36.9636 105.943 36.9621 105.95 36.9621C105.957 36.9621 105.964 36.9636 105.971 36.9664C105.977 36.9692 105.983 36.9732 105.988 36.9784L108.442 40.1242C108.452 40.1365 108.464 40.1464 108.479 40.1535C108.493 40.1606 108.509 40.1645 108.524 40.1651H110.759C110.771 40.1612 110.781 40.1531 110.788 40.1424C110.794 40.1316 110.797 40.119 110.795 40.1067Z" fill="white"/>
<path d="M144.398 40.1065L140.75 35.4637C140.744 35.4551 140.741 35.4449 140.741 35.4345C140.741 35.4241 140.744 35.4139 140.75 35.4053L143.89 31.3414C143.895 31.3337 143.898 31.3247 143.899 31.3154C143.899 31.3061 143.897 31.2969 143.893 31.2885C143.889 31.2802 143.882 31.2732 143.875 31.2681C143.867 31.263 143.858 31.26 143.848 31.2595H142.205C142.05 31.2602 141.898 31.2958 141.76 31.3638C141.621 31.4317 141.5 31.53 141.407 31.6513L139.633 33.9317C139.628 33.9369 139.622 33.941 139.615 33.9437C139.609 33.9465 139.602 33.948 139.594 33.948C139.587 33.948 139.58 33.9465 139.574 33.9437C139.567 33.941 139.561 33.9369 139.556 33.9317L137.475 31.3005C137.466 31.2891 137.454 31.28 137.441 31.2739C137.427 31.2679 137.413 31.2649 137.398 31.2654H135.222C135.213 31.2659 135.204 31.2688 135.196 31.2739C135.188 31.279 135.182 31.2861 135.178 31.2944C135.173 31.3027 135.171 31.312 135.172 31.3213C135.173 31.3305 135.176 31.3395 135.181 31.3472L138.391 35.4403C138.4 35.449 138.404 35.4605 138.404 35.4725C138.404 35.4845 138.4 35.496 138.391 35.5047L134.844 40.0889C134.839 40.0967 134.836 40.1056 134.835 40.1149C134.834 40.1242 134.836 40.1335 134.841 40.1418C134.845 40.1501 134.851 40.1572 134.859 40.1623C134.867 40.1674 134.876 40.1703 134.885 40.1708H136.594C136.748 40.1724 136.9 40.1377 137.038 40.0696C137.176 40.0015 137.295 39.9019 137.386 39.779L139.538 36.9899C139.543 36.9847 139.549 36.9807 139.556 36.9779C139.562 36.9751 139.57 36.9736 139.577 36.9736C139.584 36.9736 139.591 36.9751 139.598 36.9779C139.604 36.9807 139.61 36.9847 139.615 36.9899L142.075 40.1357C142.083 40.1478 142.095 40.1578 142.108 40.1649C142.122 40.172 142.136 40.176 142.151 40.1766H144.386C144.392 40.1732 144.397 40.1685 144.401 40.1629C144.405 40.1573 144.407 40.1509 144.409 40.1443C144.41 40.1376 144.409 40.1308 144.407 40.1242C144.406 40.1177 144.402 40.1117 144.398 40.1065Z" fill="white"/>
<path d="M177.995 40.1065L174.347 35.4638C174.341 35.4551 174.338 35.4449 174.338 35.4345C174.338 35.4241 174.341 35.414 174.347 35.4053L177.486 31.3414C177.492 31.3337 177.495 31.3247 177.495 31.3155C177.496 31.3062 177.494 31.2969 177.49 31.2886C177.486 31.2803 177.479 31.2732 177.471 31.2681C177.464 31.263 177.454 31.2601 177.445 31.2596H175.778C175.623 31.2611 175.472 31.2971 175.333 31.365C175.195 31.4328 175.074 31.5307 174.98 31.6513L173.206 33.9318C173.201 33.9369 173.195 33.941 173.188 33.9438C173.182 33.9466 173.175 33.948 173.168 33.948C173.16 33.948 173.153 33.9466 173.147 33.9438C173.14 33.941 173.134 33.9369 173.129 33.9318L171.054 31.2947C171.045 31.2833 171.033 31.2742 171.02 31.2681C171.006 31.262 170.992 31.2591 170.977 31.2596H168.807C168.798 31.2601 168.789 31.263 168.781 31.2681C168.773 31.2732 168.767 31.2803 168.763 31.2886C168.758 31.2969 168.756 31.3062 168.757 31.3155C168.758 31.3247 168.761 31.3337 168.766 31.3414L171.976 35.4345C171.985 35.4432 171.989 35.4547 171.989 35.4667C171.989 35.4787 171.985 35.4902 171.976 35.4989L168.429 40.0831C168.424 40.0909 168.421 40.0998 168.42 40.1091C168.419 40.1184 168.421 40.1277 168.426 40.136C168.43 40.1443 168.436 40.1514 168.444 40.1565C168.452 40.1616 168.461 40.1645 168.47 40.165H170.179C170.333 40.1666 170.485 40.132 170.623 40.0638C170.761 39.9957 170.88 39.8961 170.971 39.7732L173.123 36.9841C173.128 36.9789 173.134 36.9749 173.141 36.9721C173.147 36.9693 173.154 36.9678 173.162 36.9678C173.169 36.9678 173.176 36.9693 173.183 36.9721C173.189 36.9749 173.195 36.9789 173.2 36.9841L175.66 40.1299C175.668 40.142 175.68 40.152 175.693 40.1591C175.707 40.1662 175.721 40.1702 175.736 40.1709H177.971C177.977 40.1683 177.983 40.1646 177.987 40.16C177.992 40.1553 177.995 40.1498 177.997 40.1438C177.999 40.1377 178 40.1313 178 40.1249C178 40.1185 177.998 40.1123 177.995 40.1065Z" fill="white"/>
</svg>
