<svg width="80" height="72" viewBox="0 0 80 72" fill="none" xmlns="http://www.w3.org/2000/svg">
<path d="M9.57534 9.38373L5.92751 4.74097C5.92358 4.73716 5.92046 4.73261 5.91832 4.72759C5.91619 4.72257 5.91509 4.71718 5.91509 4.71173C5.91509 4.70629 5.91619 4.7009 5.91832 4.69588C5.92046 4.69086 5.92358 4.68631 5.92751 4.6825L9.06098 0.589391C9.06853 0.582891 9.0738 0.574187 9.07603 0.564534C9.07826 0.554881 9.07735 0.544777 9.0734 0.535675C9.06946 0.526573 9.06269 0.518945 9.05409 0.513887C9.04548 0.508829 9.03547 0.506603 9.0255 0.50753H7.35235C7.1989 0.509079 7.04781 0.545157 6.91054 0.613035C6.77328 0.680914 6.65344 0.778809 6.56012 0.899297L4.78646 3.17974C4.78149 3.18487 4.77553 3.18896 4.76893 3.19174C4.76232 3.19453 4.75521 3.19597 4.74803 3.19597C4.74085 3.19597 4.73374 3.19453 4.72714 3.19174C4.72054 3.18896 4.71457 3.18487 4.7096 3.17974L2.64034 0.566002C2.63116 0.554652 2.61944 0.545574 2.6061 0.539485C2.59275 0.533395 2.57816 0.530462 2.56348 0.530919H0.387791C0.378399 0.53141 0.369306 0.534352 0.361439 0.539449C0.353573 0.544546 0.347213 0.551615 0.343007 0.559934C0.338801 0.568254 0.3369 0.57753 0.337497 0.586813C0.338094 0.596096 0.341167 0.605056 0.346405 0.612781L3.55673 4.70589C3.56504 4.71458 3.56968 4.72609 3.56968 4.73805C3.56968 4.75001 3.56504 4.76152 3.55673 4.77021L0.00941081 9.35449C0.00430333 9.36181 0.00115678 9.37029 0.000263231 9.37915C-0.000630315 9.388 0.000759556 9.39693 0.00430251 9.4051C0.00784547 9.41328 0.0134258 9.42043 0.0205228 9.4259C0.0276198 9.43136 0.0360014 9.43496 0.0448848 9.43635H1.74168C1.8967 9.43892 2.05008 9.40468 2.18895 9.33651C2.32783 9.26835 2.44815 9.16824 2.53983 9.04458L4.69187 6.25542C4.69683 6.25029 4.7028 6.24621 4.7094 6.24342C4.71601 6.24063 4.72312 6.23919 4.7303 6.23919C4.73748 6.23919 4.74458 6.24063 4.75119 6.24342C4.75779 6.24621 4.76376 6.25029 4.76872 6.25542L7.22228 9.40127C7.23235 9.41351 7.24494 9.4235 7.25921 9.43056C7.27348 9.43761 7.28911 9.44158 7.30505 9.4422H9.54577C9.55665 9.43718 9.56548 9.42867 9.57085 9.41805C9.57621 9.40744 9.5778 9.39534 9.57534 9.38373Z" fill="#0076FC"/>
<path d="M9.57534 40.6492L5.92751 36.0064C5.92358 36.0026 5.92046 35.9981 5.91832 35.993C5.91619 35.988 5.91509 35.9826 5.91509 35.9772C5.91509 35.9717 5.91619 35.9663 5.91832 35.9613C5.92046 35.9563 5.92358 35.9517 5.92751 35.9479L9.06098 31.8841C9.06853 31.8776 9.0738 31.8689 9.07603 31.8592C9.07827 31.8496 9.07735 31.8395 9.0734 31.8304C9.06946 31.8213 9.0627 31.8136 9.05409 31.8086C9.04548 31.8035 9.03547 31.8013 9.0255 31.8022H7.35235C7.1989 31.8038 7.04781 31.8398 6.91054 31.9077C6.77328 31.9756 6.65344 32.0735 6.56012 32.194L4.81602 34.4803C4.81106 34.4854 4.80509 34.4895 4.79849 34.4923C4.79188 34.4951 4.78477 34.4965 4.77759 34.4965C4.77041 34.4965 4.76331 34.4951 4.7567 34.4923C4.7501 34.4895 4.74413 34.4854 4.73917 34.4803L2.66399 31.8431C2.65481 31.8318 2.64309 31.8227 2.62975 31.8166C2.6164 31.8105 2.60181 31.8076 2.58713 31.8081H0.387791C0.378399 31.8085 0.369306 31.8115 0.361439 31.8166C0.353573 31.8217 0.347213 31.8288 0.343007 31.8371C0.338801 31.8454 0.3369 31.8547 0.337497 31.8639C0.338094 31.8732 0.341168 31.8822 0.346406 31.8899L3.55673 35.983C3.56504 35.9917 3.56968 36.0032 3.56968 36.0152C3.56968 36.0271 3.56504 36.0387 3.55673 36.0473L0.00941082 40.6316C0.00430333 40.6389 0.00115678 40.6474 0.000263231 40.6563C-0.000630315 40.6651 0.000759556 40.6741 0.00430251 40.6822C0.00784547 40.6904 0.0134258 40.6976 0.0205228 40.703C0.0276198 40.7085 0.0360014 40.7121 0.0448848 40.7135H1.74168C1.8967 40.7161 2.05008 40.6818 2.18895 40.6136C2.32783 40.5455 2.44815 40.4454 2.53983 40.3217L4.69187 37.5326C4.69683 37.5274 4.7028 37.5233 4.7094 37.5206C4.71601 37.5178 4.72312 37.5163 4.7303 37.5163C4.73748 37.5163 4.74458 37.5178 4.75119 37.5206C4.75779 37.5233 4.76376 37.5274 4.76872 37.5326L7.22228 40.6784C7.23235 40.6907 7.24494 40.7006 7.25921 40.7077C7.27348 40.7147 7.28911 40.7187 7.30505 40.7193H9.54577C9.55247 40.7168 9.55857 40.7129 9.56372 40.7079C9.56886 40.703 9.57294 40.697 9.5757 40.6905C9.57846 40.6839 9.57985 40.6769 9.57979 40.6698C9.57973 40.6627 9.57821 40.6557 9.57534 40.6492Z" fill="#0076FC"/>
<path d="M43.1737 71.903L39.5259 67.2602C39.5191 67.2519 39.5155 67.2416 39.5155 67.231C39.5155 67.2204 39.5191 67.2101 39.5259 67.2018L42.6534 63.132C42.661 63.1255 42.6662 63.1168 42.6685 63.1072C42.6707 63.0975 42.6698 63.0874 42.6658 63.0783C42.6619 63.0692 42.6551 63.0616 42.6465 63.0565C42.6379 63.0515 42.6279 63.0493 42.6179 63.0502H40.9448C40.7913 63.0517 40.6402 63.0878 40.503 63.1557C40.3657 63.2236 40.2459 63.3215 40.1525 63.4419L38.3789 65.7224C38.3739 65.7275 38.368 65.7316 38.3614 65.7344C38.3548 65.7372 38.3476 65.7386 38.3405 65.7386C38.3333 65.7386 38.3262 65.7372 38.3196 65.7344C38.313 65.7316 38.307 65.7275 38.302 65.7224L36.2269 63.0853C36.2177 63.0739 36.206 63.0648 36.1926 63.0587C36.1793 63.0527 36.1647 63.0497 36.15 63.0502H33.9743C33.9649 63.0507 33.9558 63.0536 33.948 63.0587C33.9401 63.0638 33.9337 63.0709 33.9295 63.0792C33.9253 63.0875 33.9234 63.0968 33.924 63.1061C33.9246 63.1154 33.9277 63.1243 33.9329 63.132L37.1432 67.2251C37.1516 67.2338 37.1562 67.2453 37.1562 67.2573C37.1562 67.2693 37.1516 67.2808 37.1432 67.2895L33.5959 71.8737C33.5907 71.8815 33.5876 71.8904 33.587 71.8997C33.5864 71.909 33.5883 71.9183 33.5925 71.9266C33.5967 71.9349 33.6031 71.942 33.611 71.9471C33.6188 71.9522 33.6279 71.9551 33.6373 71.9556H35.34C35.495 71.9582 35.6484 71.9239 35.7873 71.8558C35.9262 71.7876 36.0465 71.6875 36.1382 71.5638L38.2902 68.7747C38.2952 68.7695 38.3011 68.7655 38.3077 68.7627C38.3144 68.7599 38.3215 68.7585 38.3286 68.7585C38.3358 68.7585 38.3429 68.7599 38.3495 68.7627C38.3561 68.7655 38.3621 68.7695 38.3671 68.7747L40.8206 71.9205C40.8307 71.9328 40.8433 71.9428 40.8576 71.9498C40.8718 71.9569 40.8875 71.9608 40.9034 71.9615H43.1382C43.1502 71.9575 43.1603 71.9494 43.1668 71.9387C43.1733 71.928 43.1757 71.9153 43.1737 71.903Z" fill="#0076FC"/>
<path d="M76.777 71.9029L73.1292 67.2602C73.1233 67.2515 73.1202 67.2413 73.1202 67.2309C73.1202 67.2205 73.1233 67.2104 73.1292 67.2017L76.2685 63.1378C76.2738 63.1301 76.2768 63.1212 76.2774 63.1119C76.278 63.1026 76.2761 63.0933 76.2719 63.085C76.2677 63.0767 76.2614 63.0696 76.2535 63.0645C76.2456 63.0594 76.2365 63.0565 76.2272 63.056H74.5836C74.4291 63.0566 74.2769 63.0923 74.1385 63.1602C74.0001 63.2281 73.8794 63.3265 73.7854 63.4477L72.0118 65.7282C72.0068 65.7333 72.0008 65.7374 71.9942 65.7402C71.9876 65.743 71.9805 65.7444 71.9733 65.7444C71.9662 65.7444 71.959 65.743 71.9524 65.7402C71.9458 65.7374 71.9399 65.7333 71.9349 65.7282L69.8538 63.0969C69.8446 63.0856 69.8329 63.0765 69.8196 63.0704C69.8062 63.0643 69.7916 63.0614 69.7769 63.0618H67.6013C67.5919 63.0623 67.5828 63.0653 67.5749 63.0704C67.567 63.0754 67.5607 63.0825 67.5565 63.0908C67.5523 63.0992 67.5504 63.1084 67.551 63.1177C67.5516 63.127 67.5546 63.136 67.5599 63.1437L70.7702 67.2368C70.7785 67.2455 70.7831 67.257 70.7831 67.2689C70.7831 67.2809 70.7785 67.2924 70.7702 67.3011L67.2229 71.8854C67.2176 71.8931 67.2146 71.9021 67.214 71.9114C67.2134 71.9206 67.2153 71.9299 67.2195 71.9382C67.2237 71.9466 67.2301 71.9536 67.2379 71.9587C67.2458 71.9638 67.2549 71.9668 67.2643 71.9673H68.9729C69.1269 71.9689 69.2791 71.9342 69.4169 71.8661C69.5547 71.7979 69.674 71.6983 69.7651 71.5755L71.9172 68.7863C71.9221 68.7812 71.9281 68.7771 71.9347 68.7743C71.9413 68.7715 71.9484 68.7701 71.9556 68.7701C71.9628 68.7701 71.9699 68.7715 71.9765 68.7743C71.9831 68.7771 71.9891 68.7812 71.994 68.7863L74.4535 71.9322C74.4624 71.9443 74.4739 71.9542 74.4872 71.9613C74.5005 71.9684 74.5153 71.9724 74.5304 71.9731H76.7652C76.771 71.9696 76.776 71.9649 76.7799 71.9593C76.7837 71.9537 76.7863 71.9474 76.7874 71.9407C76.7886 71.934 76.7882 71.9272 76.7864 71.9207C76.7846 71.9142 76.7814 71.9081 76.777 71.9029Z" fill="#0076FC"/>
</svg>
