<svg width="44" height="72" viewBox="0 0 44 72" fill="none" xmlns="http://www.w3.org/2000/svg">
<path d="M9.56312 8.87571L5.91529 4.23295C5.90945 4.2243 5.90633 4.21412 5.90633 4.20371C5.90633 4.19331 5.90945 4.18314 5.91529 4.17448L9.05467 0.0813735C9.05991 0.0736481 9.06298 0.0646881 9.06358 0.0554053C9.06417 0.0461224 9.06227 0.0368465 9.05806 0.0285269C9.05386 0.0202073 9.0475 0.0131387 9.03963 0.00804141C9.03177 0.00294413 9.02267 2.55578e-06 9.01328 -0.000488281H7.3697C7.21524 0.000172755 7.06299 0.0358293 6.92463 0.103742C6.78627 0.171654 6.66548 0.270015 6.57155 0.39128L4.79789 2.67173C4.79292 2.67686 4.78696 2.68094 4.78035 2.68373C4.77375 2.68652 4.76665 2.68795 4.75947 2.68795C4.75229 2.68795 4.74518 2.68652 4.73857 2.68373C4.73197 2.68094 4.726 2.67686 4.72104 2.67173L2.63994 0.0579838C2.63077 0.046634 2.61905 0.0375565 2.60571 0.0314668C2.59237 0.0253771 2.57777 0.022444 2.56308 0.0229014H0.3874C0.378008 0.0233923 0.368916 0.0263338 0.361049 0.0314311C0.353182 0.0365284 0.346824 0.043597 0.342618 0.0519167C0.338412 0.0602363 0.336509 0.0695121 0.337106 0.078795C0.337704 0.0880778 0.340772 0.0970378 0.34601 0.104763L3.55633 4.19787C3.56465 4.20656 3.56928 4.21807 3.56928 4.23003C3.56928 4.24199 3.56465 4.2535 3.55633 4.26219L0.00902031 8.84647C0.0037823 8.8542 0.000704371 8.86316 0.000107283 8.87244C-0.000489804 8.88172 0.00141332 8.891 0.00561929 8.89932C0.00982526 8.90764 0.0161828 8.91471 0.0240498 8.9198C0.0319167 8.9249 0.0410092 8.92784 0.050401 8.92833H1.75902C1.91305 8.92996 2.06525 8.89528 2.20302 8.82715C2.34079 8.75902 2.46017 8.65941 2.55126 8.53656L4.7033 5.74741C4.70827 5.74228 4.71423 5.73819 4.72084 5.7354C4.72744 5.73262 4.73454 5.73118 4.74172 5.73118C4.7489 5.73118 4.75601 5.73262 4.76262 5.7354C4.76922 5.73819 4.77519 5.74228 4.78015 5.74741L7.23963 8.89325C7.2485 8.90535 7.26002 8.91531 7.27333 8.9224C7.28664 8.92949 7.30139 8.93351 7.31649 8.93418H9.55129C9.55984 8.92732 9.56569 8.91772 9.56785 8.90705C9.57001 8.89637 9.56834 8.88529 9.56312 8.87571Z" fill="#287AF3"/>
<path d="M9.56312 40.1414L5.91529 35.4987C5.90945 35.49 5.90633 35.4798 5.90633 35.4694C5.90633 35.459 5.90945 35.4488 5.91529 35.4402L9.05467 31.3763C9.05991 31.3686 9.06298 31.3596 9.06358 31.3504C9.06417 31.3411 9.06227 31.3318 9.05806 31.3235C9.05386 31.3152 9.0475 31.3081 9.03963 31.303C9.03177 31.2979 9.02267 31.295 9.01328 31.2945H7.3697C7.21524 31.2951 7.06299 31.3308 6.92463 31.3987C6.78627 31.4666 6.66548 31.565 6.57155 31.6862L4.79789 33.9667C4.79292 33.9718 4.78696 33.9759 4.78035 33.9787C4.77375 33.9815 4.76665 33.9829 4.75947 33.9829C4.75229 33.9829 4.74518 33.9815 4.73857 33.9787C4.73197 33.9759 4.726 33.9718 4.72104 33.9667L2.63994 31.3237C2.63077 31.3124 2.61905 31.3033 2.60571 31.2972C2.59237 31.2911 2.57777 31.2882 2.56308 31.2886H0.3874C0.378008 31.2891 0.368916 31.2921 0.361049 31.2972C0.353182 31.3022 0.346824 31.3093 0.342618 31.3176C0.338412 31.326 0.336509 31.3352 0.337106 31.3445C0.337704 31.3538 0.340772 31.3628 0.34601 31.3705L3.55633 35.4636C3.56465 35.4723 3.56928 35.4838 3.56928 35.4957C3.56928 35.5077 3.56465 35.5192 3.55633 35.5279L0.00902031 40.1122C0.0037823 40.1199 0.000704371 40.1289 0.000107283 40.1382C-0.000489804 40.1474 0.00141332 40.1567 0.00561929 40.165C0.00982526 40.1734 0.0161828 40.1804 0.0240498 40.1855C0.0319167 40.1906 0.0410092 40.1936 0.050401 40.194H1.75902C1.91305 40.1957 2.06525 40.161 2.20302 40.0929C2.34079 40.0247 2.46017 39.9251 2.55126 39.8023L4.7033 37.0131C4.70827 37.008 4.71423 37.0039 4.72084 37.0011C4.72744 36.9983 4.73454 36.9969 4.74172 36.9969C4.7489 36.9969 4.75601 36.9983 4.76262 37.0011C4.76922 37.0039 4.77519 37.008 4.78015 37.0131L7.23963 40.159C7.2485 40.1711 7.26002 40.181 7.27333 40.1881C7.28664 40.1952 7.30139 40.1992 7.31649 40.1999H9.55129C9.55984 40.193 9.56569 40.1834 9.56785 40.1728C9.57001 40.1621 9.56834 40.151 9.56312 40.1414Z" fill="#287AF3"/>
<path d="M43.1599 71.3949L39.5121 66.7521C39.5062 66.7435 39.5031 66.7333 39.5031 66.7229C39.5031 66.7125 39.5062 66.7023 39.5121 66.6936L42.6515 62.6298C42.6567 62.622 42.6598 62.6131 42.6604 62.6038C42.661 62.5945 42.6591 62.5852 42.6549 62.5769C42.6506 62.5686 42.6443 62.5615 42.6364 62.5564C42.6286 62.5513 42.6195 62.5484 42.6101 62.5479H40.9428C40.7885 62.5494 40.6366 62.5855 40.4984 62.6533C40.3601 62.7212 40.2392 62.819 40.1447 62.9397L38.371 65.2201C38.3661 65.2252 38.3601 65.2293 38.3535 65.2321C38.3469 65.2349 38.3398 65.2363 38.3326 65.2363C38.3254 65.2363 38.3183 65.2349 38.3117 65.2321C38.3051 65.2293 38.2991 65.2252 38.2942 65.2201L36.219 62.583C36.2098 62.5716 36.1981 62.5626 36.1848 62.5565C36.1714 62.5504 36.1568 62.5474 36.1421 62.5479H33.9724C33.963 62.5484 33.9539 62.5513 33.946 62.5564C33.9381 62.5615 33.9318 62.5686 33.9276 62.5769C33.9234 62.5852 33.9215 62.5945 33.9221 62.6038C33.9227 62.6131 33.9257 62.622 33.931 62.6298L37.1413 66.7229C37.1496 66.7316 37.1543 66.7431 37.1543 66.755C37.1543 66.767 37.1496 66.7785 37.1413 66.7872L33.594 71.3715C33.5887 71.3792 33.5857 71.3882 33.5851 71.3974C33.5845 71.4067 33.5864 71.416 33.5906 71.4243C33.5948 71.4326 33.6011 71.4397 33.609 71.4448C33.6169 71.4499 33.626 71.4528 33.6354 71.4533H35.344C35.498 71.455 35.6502 71.4203 35.788 71.3522C35.9258 71.284 36.0451 71.1844 36.1362 71.0616L38.2883 68.2724C38.2932 68.2673 38.2992 68.2632 38.3058 68.2604C38.3124 68.2576 38.3195 68.2562 38.3267 68.2562C38.3339 68.2562 38.341 68.2576 38.3476 68.2604C38.3542 68.2632 38.3601 68.2673 38.3651 68.2724L40.8246 71.4182C40.8335 71.4303 40.845 71.4403 40.8583 71.4474C40.8716 71.4545 40.8864 71.4585 40.9014 71.4592H43.1363C43.1422 71.4567 43.1476 71.453 43.1521 71.4483C43.1566 71.4437 43.16 71.4381 43.1622 71.4321C43.1644 71.4261 43.1654 71.4197 43.165 71.4133C43.1646 71.4068 43.1629 71.4006 43.1599 71.3949Z" fill="#287AF3"/>
</svg>
