<svg width="77" height="134" viewBox="0 0 77 134" fill="none" xmlns="http://www.w3.org/2000/svg">
<path d="M9.57534 39.7966L5.92751 35.1539C5.92358 35.1501 5.92046 35.1455 5.91832 35.1405C5.91619 35.1355 5.91509 35.1301 5.91509 35.1246C5.91509 35.1192 5.91619 35.1138 5.91832 35.1088C5.92046 35.1037 5.92358 35.0992 5.92751 35.0954L9.06098 31.0315C9.07273 31.0269 9.08214 31.0178 9.08713 31.0063C9.09212 30.9948 9.09228 30.9818 9.08758 30.9701C9.08287 30.9585 9.07369 30.9492 9.06205 30.9442C9.05041 30.9393 9.03726 30.9392 9.0255 30.9438H7.35235C7.20393 30.9497 7.05865 30.9878 6.92683 31.0556C6.79501 31.1233 6.6799 31.2189 6.58968 31.3356L4.81602 33.616C4.81106 33.6212 4.80509 33.6252 4.79848 33.628C4.79188 33.6308 4.78477 33.6322 4.77759 33.6322C4.77041 33.6322 4.76331 33.6308 4.7567 33.628C4.7501 33.6252 4.74413 33.6212 4.73917 33.616L2.64034 30.9789C2.63116 30.9675 2.61944 30.9585 2.6061 30.9524C2.59275 30.9463 2.57816 30.9434 2.56348 30.9438H0.387791C0.378399 30.9443 0.369306 30.9472 0.361439 30.9523C0.353573 30.9574 0.347213 30.9645 0.343007 30.9728C0.338801 30.9811 0.3369 30.9904 0.337497 30.9997C0.338094 31.009 0.341167 31.0179 0.346405 31.0257L3.55673 35.1188C3.56504 35.1275 3.56968 35.139 3.56968 35.1509C3.56968 35.1629 3.56504 35.1744 3.55673 35.1831L0.00941081 39.7674C0.00430333 39.7747 0.00115678 39.7832 0.000263231 39.792C-0.000630315 39.8009 0.000759556 39.8098 0.00430251 39.818C0.00784547 39.8262 0.0134258 39.8333 0.0205228 39.8388C0.0276198 39.8443 0.0360014 39.8478 0.0448848 39.8492H1.74168C1.8967 39.8518 2.05008 39.8176 2.18895 39.7494C2.32783 39.6812 2.44815 39.5811 2.53983 39.4575L4.69187 36.6683C4.69683 36.6632 4.7028 36.6591 4.7094 36.6563C4.71601 36.6535 4.72312 36.6521 4.7303 36.6521C4.73748 36.6521 4.74458 36.6535 4.75119 36.6563C4.75779 36.6591 4.76376 36.6632 4.76872 36.6683L7.22228 39.8142C7.23235 39.8264 7.24494 39.8364 7.25921 39.8434C7.27348 39.8505 7.28911 39.8545 7.30505 39.8551H9.54577C9.55665 39.8501 9.56548 39.8416 9.57085 39.8309C9.57621 39.8203 9.5778 39.8082 9.57534 39.7966Z" fill="white"/>
<path d="M9.57583 71.0624L5.928 66.4197C5.92407 66.4159 5.92095 66.4113 5.91881 66.4063C5.91668 66.4013 5.91558 66.3959 5.91558 66.3904C5.91558 66.385 5.91668 66.3796 5.91881 66.3746C5.92095 66.3696 5.92407 66.365 5.928 66.3612L9.06146 62.2681C9.06902 62.2616 9.07429 62.2529 9.07652 62.2432C9.07875 62.2336 9.07784 62.2235 9.07389 62.2144C9.06995 62.2053 9.06318 62.1977 9.05458 62.1926C9.04597 62.1875 9.03596 62.1853 9.02599 62.1862H7.35284C7.19938 62.1878 7.0483 62.2239 6.91103 62.2917C6.77377 62.3596 6.65393 62.4575 6.56061 62.578L4.81651 64.8585C4.81154 64.8636 4.80558 64.8677 4.79897 64.8705C4.79237 64.8732 4.78526 64.8747 4.77808 64.8747C4.7709 64.8747 4.7638 64.8732 4.75719 64.8705C4.75059 64.8677 4.74462 64.8636 4.73965 64.8585L2.66447 62.2213C2.6553 62.21 2.64357 62.2009 2.63023 62.1948C2.61689 62.1887 2.6023 62.1858 2.58761 62.1862H0.388279C0.378887 62.1867 0.369795 62.1897 0.361928 62.1948C0.354061 62.1999 0.347701 62.2069 0.343495 62.2153C0.339289 62.2236 0.337388 62.2329 0.337985 62.2421C0.338582 62.2514 0.341656 62.2604 0.346894 62.2681L3.55721 66.3612C3.56553 66.3699 3.57017 66.3814 3.57017 66.3934C3.57017 66.4053 3.56553 66.4168 3.55721 66.4255L0.0098991 71.0098C0.00479161 71.0171 0.00164506 71.0256 0.000751512 71.0345C-0.000142034 71.0433 0.00124784 71.0522 0.00479079 71.0604C0.00833375 71.0686 0.0139141 71.0758 0.0210111 71.0812C0.0281081 71.0867 0.0364897 71.0903 0.0453731 71.0917H1.74217C1.89719 71.0942 2.05057 71.06 2.18944 70.9918C2.32832 70.9237 2.44864 70.8236 2.54032 70.6999L4.69236 67.9107C4.69732 67.9056 4.70329 67.9015 4.70989 67.8987C4.7165 67.896 4.7236 67.8945 4.73079 67.8945C4.73797 67.8945 4.74507 67.896 4.75167 67.8987C4.75828 67.9015 4.76425 67.9056 4.76921 67.9107L7.22277 71.0566C7.23284 71.0688 7.24542 71.0788 7.2597 71.0859C7.27397 71.0929 7.2896 71.0969 7.30554 71.0975H9.54626C9.55354 71.0942 9.55997 71.0894 9.56509 71.0833C9.57021 71.0772 9.57388 71.0701 9.57583 71.0624Z" fill="white"/>
<path d="M43.177 102.328L39.5292 97.6852C39.5225 97.6769 39.5188 97.6666 39.5188 97.656C39.5188 97.6453 39.5225 97.635 39.5292 97.6267L42.6626 93.5336C42.6628 93.5254 42.6607 93.5174 42.6567 93.5102H40.9836C40.8301 93.5118 40.679 93.5479 40.5418 93.6157C40.4045 93.6836 40.2847 93.7815 40.1913 93.902L38.4177 96.1824C38.4127 96.1876 38.4067 96.1917 38.4001 96.1944C38.3935 96.1972 38.3864 96.1987 38.3792 96.1987C38.3721 96.1987 38.365 96.1972 38.3584 96.1944C38.3518 96.1917 38.3458 96.1876 38.3408 96.1824L36.242 93.5102C36.2328 93.4989 36.2211 93.4898 36.2078 93.4837C36.1944 93.4776 36.1798 93.4747 36.1651 93.4751H33.9894C33.9801 93.4756 33.971 93.4786 33.9631 93.4837C33.9552 93.4888 33.9489 93.4958 33.9447 93.5042C33.9405 93.5125 33.9386 93.5218 33.9392 93.531C33.9397 93.5403 33.9428 93.5493 33.9481 93.557L37.1584 97.6501C37.1667 97.6588 37.1713 97.6703 37.1713 97.6823C37.1713 97.6942 37.1667 97.7057 37.1584 97.7144L33.6111 102.299C33.6058 102.306 33.6028 102.315 33.6022 102.325C33.6016 102.334 33.6035 102.343 33.6077 102.352C33.6119 102.36 33.6182 102.367 33.6261 102.372C33.634 102.377 33.6431 102.38 33.6525 102.381H35.3552C35.5102 102.383 35.6636 102.349 35.8024 102.281C35.9413 102.213 36.0616 102.112 36.1533 101.989L38.3053 99.1996C38.3103 99.1945 38.3163 99.1904 38.3229 99.1876C38.3295 99.1849 38.3366 99.1834 38.3438 99.1834C38.351 99.1834 38.3581 99.1849 38.3647 99.1876C38.3713 99.1904 38.3772 99.1945 38.3822 99.1996L40.8358 102.345C40.8458 102.358 40.8584 102.368 40.8727 102.375C40.887 102.382 40.9026 102.386 40.9185 102.386H43.1533C43.1631 102.381 43.1707 102.372 43.175 102.361C43.1792 102.351 43.18 102.339 43.177 102.328Z" fill="white"/>
<path d="M76.7775 102.328L73.1296 97.6851C73.1238 97.6764 73.1207 97.6663 73.1207 97.6559C73.1207 97.6455 73.1238 97.6353 73.1296 97.6266L76.269 93.5335C76.2743 93.5258 76.2773 93.5168 76.2779 93.5076C76.2785 93.4983 76.2766 93.489 76.2724 93.4807C76.2682 93.4724 76.2619 93.4653 76.254 93.4602C76.2461 93.4551 76.237 93.4522 76.2276 93.4517H74.5841C74.4296 93.4523 74.2773 93.488 74.139 93.5559C74.0006 93.6238 73.8798 93.7222 73.7859 93.8434L72.0122 96.1239C72.0073 96.129 72.0013 96.1331 71.9947 96.1359C71.9881 96.1387 71.981 96.1401 71.9738 96.1401C71.9666 96.1401 71.9595 96.1387 71.9529 96.1359C71.9463 96.1331 71.9404 96.129 71.9354 96.1239L69.8543 93.5101C69.8451 93.4988 69.8334 93.4897 69.8201 93.4836C69.8067 93.4775 69.7921 93.4746 69.7774 93.475H67.6018C67.5924 93.4755 67.5833 93.4785 67.5754 93.4836C67.5675 93.4887 67.5612 93.4957 67.557 93.5041C67.5528 93.5124 67.5509 93.5217 67.5515 93.5309C67.5521 93.5402 67.5551 93.5492 67.5604 93.5569L70.7707 97.65C70.779 97.6587 70.7836 97.6702 70.7836 97.6822C70.7836 97.6941 70.779 97.7057 70.7707 97.7143L67.2234 102.299C67.2181 102.306 67.2151 102.315 67.2145 102.325C67.2139 102.334 67.2158 102.343 67.22 102.351C67.2242 102.36 67.2305 102.367 67.2384 102.372C67.2463 102.377 67.2554 102.38 67.2648 102.38H68.9734C69.1274 102.382 69.2796 102.347 69.4174 102.279C69.5551 102.211 69.6745 102.112 69.7656 101.989L71.9177 99.1996C71.9226 99.1944 71.9286 99.1903 71.9352 99.1876C71.9418 99.1848 71.9489 99.1833 71.9561 99.1833C71.9633 99.1833 71.9704 99.1848 71.977 99.1876C71.9836 99.1903 71.9895 99.1944 71.9945 99.1996L74.454 102.345C74.4629 102.357 74.4744 102.367 74.4877 102.375C74.501 102.382 74.5157 102.386 74.5308 102.386H76.7656C76.7742 102.379 76.78 102.37 76.7822 102.359C76.7844 102.349 76.7827 102.337 76.7775 102.328Z" fill="white"/>
<path d="M76.7775 133.593L73.1296 128.95C73.1238 128.942 73.1207 128.932 73.1207 128.921C73.1207 128.911 73.1238 128.901 73.1296 128.892L76.269 124.828C76.2743 124.82 76.2773 124.811 76.2779 124.802C76.2785 124.793 76.2766 124.783 76.2724 124.775C76.2682 124.767 76.2619 124.76 76.254 124.755C76.2461 124.75 76.237 124.747 76.2276 124.746H74.5841C74.4296 124.747 74.2773 124.782 74.139 124.85C74.0006 124.918 73.8798 125.017 73.7859 125.138L72.0122 127.418C72.0073 127.423 72.0013 127.428 71.9947 127.43C71.9881 127.433 71.981 127.435 71.9738 127.435C71.9666 127.435 71.9595 127.433 71.9529 127.43C71.9463 127.428 71.9404 127.423 71.9354 127.418L69.8543 124.775C69.8451 124.764 69.8334 124.755 69.8201 124.749C69.8067 124.743 69.7921 124.74 69.7774 124.74H67.6018C67.5924 124.741 67.5833 124.744 67.5754 124.749C67.5675 124.754 67.5612 124.761 67.557 124.769C67.5528 124.778 67.5509 124.787 67.5515 124.796C67.5521 124.805 67.5551 124.814 67.5604 124.822L70.7707 128.915C70.779 128.924 70.7836 128.935 70.7836 128.947C70.7836 128.959 70.779 128.971 70.7707 128.98L67.2234 133.564C67.2181 133.572 67.2151 133.581 67.2145 133.59C67.2139 133.599 67.2158 133.608 67.22 133.617C67.2242 133.625 67.2305 133.632 67.2384 133.637C67.2463 133.642 67.2554 133.645 67.2648 133.646H68.9734C69.1274 133.647 69.2796 133.613 69.4174 133.545C69.5551 133.476 69.6745 133.377 69.7656 133.254L71.9177 130.465C71.9226 130.46 71.9286 130.456 71.9352 130.453C71.9418 130.45 71.9489 130.449 71.9561 130.449C71.9633 130.449 71.9704 130.45 71.977 130.453C71.9836 130.456 71.9895 130.46 71.9945 130.465L74.454 133.611C74.4629 133.623 74.4744 133.633 74.4877 133.64C74.501 133.647 74.5157 133.651 74.5308 133.652H76.7656C76.7742 133.645 76.78 133.635 76.7822 133.624C76.7844 133.614 76.7827 133.603 76.7775 133.593Z" fill="white"/>
<path d="M9.57583 8.84717L5.928 4.20441C5.92407 4.2006 5.92095 4.19606 5.91881 4.19104C5.91668 4.18602 5.91558 4.18062 5.91558 4.17517C5.91558 4.16973 5.91668 4.16434 5.91881 4.15932C5.92095 4.1543 5.92407 4.14976 5.928 4.14594L9.06147 0.0820668C9.06902 0.0755666 9.07429 0.0668624 9.07652 0.0572094C9.07875 0.0475564 9.07784 0.0374565 9.07389 0.0283548C9.06995 0.019253 9.06318 0.0116246 9.05458 0.00656661C9.04597 0.0015086 9.03596 -0.000721542 9.02599 0.00020503H7.35284C7.19939 0.00175438 7.0483 0.0378416 6.91103 0.10572C6.77377 0.173598 6.65393 0.271485 6.56061 0.391973L4.78695 2.67242C4.78198 2.67755 4.77602 2.68163 4.76942 2.68442C4.76281 2.68721 4.7557 2.68864 4.74852 2.68864C4.74134 2.68864 4.73423 2.68721 4.72763 2.68442C4.72102 2.68163 4.71506 2.67755 4.71009 2.67242L2.63491 0.0352874C2.62574 0.0239376 2.61401 0.0148601 2.60067 0.0087704C2.58733 0.00268068 2.57274 -0.000252417 2.55805 0.00020503H0.388279C0.378887 0.000695867 0.369795 0.00364636 0.361928 0.00874364C0.354061 0.0138409 0.347701 0.0209095 0.343495 0.0292292C0.339289 0.0375488 0.337388 0.0468202 0.337985 0.056103C0.338582 0.0653859 0.341656 0.0743414 0.346894 0.0820668L3.55721 4.17517C3.56553 4.18386 3.57017 4.19537 3.57017 4.20734C3.57017 4.2193 3.56553 4.23081 3.55721 4.23949L0.0098991 8.82378C0.00479161 8.8311 0.00164506 8.83958 0.000751512 8.84843C-0.000142034 8.85728 0.00124784 8.86621 0.00479079 8.87439C0.00833375 8.88256 0.0139141 8.88972 0.0210111 8.89519C0.0281081 8.90065 0.0364897 8.90425 0.0453731 8.90564H1.74217C1.89719 8.90821 2.05057 8.87397 2.18944 8.8058C2.32832 8.73764 2.44864 8.63752 2.54032 8.51387L4.69236 5.72471C4.69732 5.71958 4.70329 5.7155 4.70989 5.71271C4.7165 5.70992 4.72361 5.70848 4.73079 5.70848C4.73797 5.70848 4.74507 5.70992 4.75168 5.71271C4.75828 5.7155 4.76425 5.71958 4.76921 5.72471L7.22277 8.87055C7.23284 8.8828 7.24543 8.89279 7.2597 8.89984C7.27397 8.9069 7.2896 8.91087 7.30554 8.91149H9.54626C9.55838 8.9063 9.56812 8.89685 9.57358 8.88496C9.57904 8.87307 9.57985 8.8596 9.57583 8.84717Z" fill="white"/>
</svg>
