<svg width="111" height="72" viewBox="0 0 111 72" fill="none" xmlns="http://www.w3.org/2000/svg">
<path d="M9.57534 9.33343L5.92751 4.69068C5.92358 4.68687 5.92046 4.68232 5.91832 4.6773C5.91619 4.67228 5.91509 4.66689 5.91509 4.66144C5.91509 4.65599 5.91619 4.65061 5.91832 4.64559C5.92046 4.64056 5.92358 4.63602 5.92751 4.63221L9.06098 0.539098C9.06853 0.532598 9.0738 0.523894 9.07603 0.514241C9.07826 0.504588 9.07735 0.494484 9.0734 0.485382C9.06946 0.47628 9.06269 0.468652 9.05409 0.463594C9.04548 0.458536 9.03547 0.45631 9.0255 0.457237H7.35235C7.1989 0.458786 7.04781 0.494864 6.91054 0.562742C6.77328 0.630621 6.65344 0.728516 6.56012 0.849004L4.78646 3.12945C4.78149 3.13458 4.77553 3.13866 4.76893 3.14145C4.76232 3.14424 4.75521 3.14568 4.74803 3.14568C4.74085 3.14568 4.73374 3.14424 4.72714 3.14145C4.72054 3.13866 4.71457 3.13458 4.7096 3.12945L2.64034 0.515709C2.63116 0.504359 2.61944 0.495281 2.6061 0.489192C2.59275 0.483102 2.57816 0.480169 2.56348 0.480626H0.387791C0.378399 0.481117 0.369306 0.484059 0.361439 0.489156C0.353573 0.494253 0.347213 0.501322 0.343007 0.509641C0.338801 0.517961 0.3369 0.527237 0.337497 0.53652C0.338094 0.545803 0.341167 0.554763 0.346405 0.562488L3.55673 4.6556C3.56504 4.66428 3.56968 4.67579 3.56968 4.68776C3.56968 4.69972 3.56504 4.71123 3.55673 4.71992L0.00941081 9.3042C0.00430333 9.31152 0.00115678 9.32 0.000263231 9.32885C-0.000630315 9.3377 0.000759556 9.34664 0.00430251 9.35481C0.00784547 9.36299 0.0134258 9.37014 0.0205228 9.3756C0.0276198 9.38107 0.0360014 9.38467 0.0448848 9.38606H1.74168C1.8967 9.38862 2.05008 9.35439 2.18895 9.28622C2.32783 9.21805 2.44815 9.11795 2.53983 8.99429L4.69187 6.20513C4.69683 6.2 4.7028 6.19592 4.7094 6.19313C4.71601 6.19034 4.72312 6.1889 4.7303 6.1889C4.73748 6.1889 4.74458 6.19034 4.75119 6.19313C4.75779 6.19592 4.76376 6.2 4.76872 6.20513L7.22228 9.35098C7.23235 9.36322 7.24494 9.37321 7.25921 9.38026C7.27348 9.38732 7.28911 9.39129 7.30505 9.39191H9.54577C9.55665 9.38688 9.56548 9.37837 9.57085 9.36776C9.57621 9.35714 9.5778 9.34505 9.57534 9.33343Z" fill="#287AF3"/>
<path d="M9.57534 40.5991L5.92751 35.9564C5.92358 35.9526 5.92046 35.948 5.91832 35.943C5.91619 35.938 5.91509 35.9326 5.91509 35.9271C5.91509 35.9217 5.91619 35.9163 5.91832 35.9113C5.92046 35.9063 5.92358 35.9017 5.92751 35.8979L9.06098 31.834C9.06853 31.8275 9.0738 31.8188 9.07603 31.8092C9.07827 31.7995 9.07735 31.7894 9.0734 31.7803C9.06946 31.7712 9.0627 31.7636 9.05409 31.7585C9.04548 31.7535 9.03547 31.7512 9.0255 31.7522H7.35235C7.1989 31.7537 7.04781 31.7898 6.91054 31.8577C6.77328 31.9255 6.65344 32.0234 6.56012 32.1439L4.81602 34.4302C4.81106 34.4353 4.80509 34.4394 4.79849 34.4422C4.79188 34.445 4.78477 34.4464 4.77759 34.4464C4.77041 34.4464 4.76331 34.445 4.7567 34.4422C4.7501 34.4394 4.74413 34.4353 4.73917 34.4302L2.66399 31.7931C2.65481 31.7817 2.64309 31.7727 2.62975 31.7666C2.6164 31.7605 2.60181 31.7575 2.58713 31.758H0.387791C0.378399 31.7585 0.369306 31.7614 0.361439 31.7665C0.353573 31.7716 0.347213 31.7787 0.343007 31.787C0.338801 31.7953 0.3369 31.8046 0.337497 31.8139C0.338094 31.8232 0.341168 31.8321 0.346406 31.8399L3.55673 35.933C3.56504 35.9417 3.56968 35.9532 3.56968 35.9651C3.56968 35.9771 3.56504 35.9886 3.55673 35.9973L0.00941082 40.5816C0.00430333 40.5889 0.00115678 40.5974 0.000263231 40.6062C-0.000630315 40.6151 0.000759556 40.624 0.00430251 40.6322C0.00784547 40.6404 0.0134258 40.6475 0.0205228 40.653C0.0276198 40.6584 0.0360014 40.662 0.0448848 40.6634H1.74168C1.8967 40.666 2.05008 40.6318 2.18895 40.5636C2.32783 40.4954 2.44815 40.3953 2.53983 40.2717L4.69187 37.4825C4.69683 37.4774 4.7028 37.4733 4.7094 37.4705C4.71601 37.4677 4.72312 37.4663 4.7303 37.4663C4.73748 37.4663 4.74458 37.4677 4.75119 37.4705C4.75779 37.4733 4.76376 37.4774 4.76872 37.4825L7.22228 40.6284C7.23235 40.6406 7.24494 40.6506 7.25921 40.6576C7.27348 40.6647 7.28911 40.6687 7.30505 40.6693H9.54577C9.55247 40.6667 9.55857 40.6628 9.56372 40.6579C9.56886 40.6529 9.57294 40.647 9.5757 40.6404C9.57846 40.6339 9.57985 40.6268 9.57979 40.6197C9.57973 40.6126 9.57821 40.6056 9.57534 40.5991Z" fill="#287AF3"/>
<path d="M43.1737 71.853L39.5259 67.2103C39.5191 67.202 39.5155 67.1916 39.5155 67.181C39.5155 67.1704 39.5191 67.1601 39.5259 67.1518L42.6534 63.0821C42.661 63.0756 42.6662 63.0669 42.6685 63.0572C42.6707 63.0476 42.6698 63.0375 42.6658 63.0284C42.6619 63.0193 42.6551 63.0116 42.6465 63.0066C42.6379 63.0015 42.6279 62.9993 42.6179 63.0002H40.9448C40.7913 63.0018 40.6402 63.0378 40.503 63.1057C40.3657 63.1736 40.2459 63.2715 40.1525 63.392L38.3789 65.6724C38.3739 65.6775 38.368 65.6816 38.3614 65.6844C38.3548 65.6872 38.3476 65.6886 38.3405 65.6886C38.3333 65.6886 38.3262 65.6872 38.3196 65.6844C38.313 65.6816 38.307 65.6775 38.302 65.6724L36.2269 63.0353C36.2177 63.0239 36.206 63.0149 36.1926 63.0088C36.1793 63.0027 36.1647 62.9997 36.15 63.0002H33.9743C33.9649 63.0007 33.9558 63.0036 33.948 63.0087C33.9401 63.0138 33.9337 63.0209 33.9295 63.0292C33.9253 63.0375 33.9234 63.0468 33.924 63.0561C33.9246 63.0654 33.9277 63.0743 33.9329 63.0821L37.1432 67.1752C37.1516 67.1839 37.1562 67.1954 37.1562 67.2073C37.1562 67.2193 37.1516 67.2308 37.1432 67.2395L33.5959 71.8238C33.5907 71.8315 33.5876 71.8405 33.587 71.8497C33.5864 71.859 33.5883 71.8683 33.5925 71.8766C33.5967 71.8849 33.6031 71.892 33.611 71.8971C33.6188 71.9022 33.6279 71.9051 33.6373 71.9056H35.34C35.495 71.9082 35.6484 71.874 35.7873 71.8058C35.9262 71.7376 36.0465 71.6375 36.1382 71.5139L38.2902 68.7247C38.2952 68.7196 38.3011 68.7155 38.3077 68.7127C38.3144 68.7099 38.3215 68.7085 38.3286 68.7085C38.3358 68.7085 38.3429 68.7099 38.3495 68.7127C38.3561 68.7155 38.3621 68.7196 38.3671 68.7247L40.8206 71.8706C40.8307 71.8828 40.8433 71.8928 40.8576 71.8998C40.8718 71.9069 40.8875 71.9109 40.9034 71.9115H43.1382C43.1502 71.9075 43.1603 71.8994 43.1668 71.8887C43.1733 71.878 43.1757 71.8653 43.1737 71.853Z" fill="#287AF3"/>
<path d="M76.777 71.8528L73.1292 67.2101C73.1233 67.2014 73.1202 67.1912 73.1202 67.1808C73.1202 67.1704 73.1233 67.1603 73.1292 67.1516L76.2685 63.0877C76.2738 63.08 76.2768 63.071 76.2774 63.0618C76.278 63.0525 76.2761 63.0432 76.2719 63.0349C76.2677 63.0266 76.2614 63.0195 76.2535 63.0144C76.2456 63.0093 76.2365 63.0064 76.2272 63.0059H74.5836C74.4291 63.0065 74.2769 63.0422 74.1385 63.1101C74.0001 63.178 73.8794 63.2764 73.7854 63.3976L72.0118 65.6781C72.0068 65.6832 72.0008 65.6873 71.9942 65.6901C71.9876 65.6929 71.9805 65.6943 71.9733 65.6943C71.9662 65.6943 71.959 65.6929 71.9524 65.6901C71.9458 65.6873 71.9399 65.6832 71.9349 65.6781L69.8538 63.0468C69.8446 63.0354 69.8329 63.0264 69.8196 63.0203C69.8062 63.0142 69.7916 63.0113 69.7769 63.0117H67.6013C67.5919 63.0122 67.5828 63.0151 67.5749 63.0202C67.567 63.0253 67.5607 63.0324 67.5565 63.0407C67.5523 63.049 67.5504 63.0583 67.551 63.0676C67.5516 63.0769 67.5546 63.0858 67.5599 63.0936L70.7702 67.1867C70.7785 67.1954 70.7831 67.2069 70.7831 67.2188C70.7831 67.2308 70.7785 67.2423 70.7702 67.251L67.2229 71.8353C67.2176 71.843 67.2146 71.852 67.214 71.8612C67.2134 71.8705 67.2153 71.8798 67.2195 71.8881C67.2237 71.8964 67.2301 71.9035 67.2379 71.9086C67.2458 71.9137 67.2549 71.9166 67.2643 71.9171H68.9729C69.1269 71.9188 69.2791 71.8841 69.4169 71.816C69.5547 71.7478 69.674 71.6482 69.7651 71.5254L71.9172 68.7362C71.9221 68.7311 71.9281 68.727 71.9347 68.7242C71.9413 68.7214 71.9484 68.72 71.9556 68.72C71.9628 68.72 71.9699 68.7214 71.9765 68.7242C71.9831 68.727 71.9891 68.7311 71.994 68.7362L74.4535 71.8821C74.4624 71.8942 74.4739 71.9041 74.4872 71.9112C74.5005 71.9183 74.5153 71.9223 74.5304 71.923H76.7652C76.771 71.9195 76.776 71.9148 76.7799 71.9092C76.7837 71.9036 76.7863 71.8973 76.7874 71.8906C76.7886 71.8839 76.7882 71.8771 76.7864 71.8706C76.7846 71.8641 76.7814 71.858 76.777 71.8528Z" fill="#287AF3"/>
<path d="M110.374 71.8529L106.726 67.2101C106.72 67.2015 106.717 67.1913 106.717 67.1809C106.717 67.1705 106.72 67.1603 106.726 67.1516L109.865 63.0878C109.871 63.08 109.874 63.0711 109.874 63.0618C109.875 63.0525 109.873 63.0432 109.869 63.0349C109.865 63.0266 109.858 63.0195 109.85 63.0144C109.842 63.0093 109.833 63.0064 109.824 63.0059H108.157C108.002 63.0074 107.85 63.0435 107.712 63.1113C107.574 63.1792 107.453 63.2771 107.359 63.3977L105.585 65.6781C105.58 65.6833 105.574 65.6873 105.567 65.6901C105.561 65.6929 105.554 65.6943 105.546 65.6943C105.539 65.6943 105.532 65.6929 105.526 65.6901C105.519 65.6873 105.513 65.6833 105.508 65.6781L103.433 63.041C103.424 63.0296 103.412 63.0206 103.399 63.0145C103.385 63.0084 103.371 63.0054 103.356 63.0059H101.186C101.177 63.0064 101.168 63.0093 101.16 63.0144C101.152 63.0195 101.146 63.0266 101.141 63.0349C101.137 63.0432 101.135 63.0525 101.136 63.0618C101.137 63.0711 101.14 63.08 101.145 63.0878L104.355 67.1809C104.363 67.1896 104.368 67.2011 104.368 67.213C104.368 67.225 104.363 67.2365 104.355 67.2452L100.808 71.8295C100.803 71.8372 100.8 71.8462 100.799 71.8554C100.798 71.8647 100.8 71.874 100.804 71.8823C100.809 71.8906 100.815 71.8977 100.823 71.9028C100.831 71.9079 100.84 71.9109 100.849 71.9113H102.558C102.712 71.913 102.864 71.8783 103.002 71.8102C103.14 71.742 103.259 71.6424 103.35 71.5196L105.502 68.7304C105.507 68.7253 105.513 68.7212 105.52 68.7184C105.526 68.7156 105.533 68.7142 105.541 68.7142C105.548 68.7142 105.555 68.7156 105.561 68.7184C105.568 68.7212 105.574 68.7253 105.579 68.7304L108.038 71.8763C108.047 71.8884 108.059 71.8983 108.072 71.9054C108.085 71.9125 108.1 71.9165 108.115 71.9172H110.35C110.356 71.9147 110.361 71.911 110.366 71.9063C110.37 71.9017 110.374 71.8962 110.376 71.8901C110.378 71.8841 110.379 71.8777 110.379 71.8713C110.378 71.8649 110.377 71.8586 110.374 71.8529Z" fill="#287AF3"/>
</svg>
