<svg width="44" height="166" viewBox="0 0 44 166" fill="none" xmlns="http://www.w3.org/2000/svg">
<path d="M43.1599 40.8563L39.5121 36.2135C39.5062 36.2049 39.5031 36.1947 39.5031 36.1843C39.5031 36.1739 39.5062 36.1637 39.5121 36.155L42.6515 32.0912C42.6567 32.0834 42.6598 32.0745 42.6604 32.0652C42.661 32.0559 42.6591 32.0466 42.6549 32.0383C42.6506 32.03 42.6443 32.0229 42.6364 32.0178C42.6286 32.0127 42.6195 32.0098 42.6101 32.0093H40.9428C40.7885 32.0108 40.6366 32.0469 40.4984 32.1147C40.3601 32.1826 40.2392 32.2805 40.1447 32.4011L38.371 34.6815C38.3661 34.6867 38.3601 34.6907 38.3535 34.6935C38.3469 34.6963 38.3398 34.6978 38.3326 34.6978C38.3254 34.6978 38.3183 34.6963 38.3117 34.6935C38.3051 34.6907 38.2991 34.6867 38.2942 34.6815L36.2249 32.0385C36.2157 32.0272 36.204 32.0181 36.1907 32.012C36.1773 32.0059 36.1627 32.003 36.148 32.0035H33.9724C33.963 32.004 33.9539 32.0069 33.946 32.012C33.9381 32.0171 33.9318 32.0242 33.9276 32.0325C33.9234 32.0408 33.9215 32.0501 33.9221 32.0594C33.9227 32.0686 33.9257 32.0776 33.931 32.0853L37.1413 36.1784C37.1496 36.1871 37.1542 36.1986 37.1542 36.2106C37.1542 36.2226 37.1496 36.2341 37.1413 36.2428L33.594 40.827C33.5887 40.8348 33.5857 40.8437 33.5851 40.853C33.5845 40.8623 33.5864 40.8716 33.5906 40.8799C33.5948 40.8882 33.6011 40.8953 33.609 40.9004C33.6169 40.9055 33.626 40.9084 33.6354 40.9089H35.344C35.498 40.9105 35.6502 40.8758 35.788 40.8077C35.9258 40.7396 36.0451 40.64 36.1362 40.5171L38.2883 37.728C38.2932 37.7228 38.2992 37.7188 38.3058 37.716C38.3124 37.7132 38.3195 37.7117 38.3267 37.7117C38.3339 37.7117 38.341 37.7132 38.3476 37.716C38.3542 37.7188 38.3601 37.7228 38.3651 37.728L40.8246 40.8738C40.8335 40.8859 40.845 40.8959 40.8583 40.903C40.8716 40.9101 40.8864 40.9141 40.9014 40.9147H43.1363C43.1469 40.9097 43.1551 40.9008 43.1595 40.89C43.1639 40.8792 43.164 40.8672 43.1599 40.8563Z" fill="white"/>
<path d="M43.1599 8.85285L39.5121 4.2101C39.5062 4.20145 39.5031 4.19127 39.5031 4.18086C39.5031 4.17046 39.5062 4.16028 39.5121 4.15163L42.6515 0.0877558C42.6567 0.0800304 42.6598 0.0710699 42.6604 0.0617871C42.661 0.0525042 42.6591 0.0432307 42.6549 0.0349111C42.6506 0.0265915 42.6443 0.0195231 42.6364 0.0144258C42.6286 0.0093285 42.6195 0.0063845 42.6101 0.00589367H40.9428C40.7885 0.00741897 40.6366 0.0434542 40.4984 0.1113C40.3601 0.179146 40.2392 0.277045 40.1447 0.397663L38.371 2.67811C38.3661 2.68324 38.3601 2.68732 38.3535 2.69011C38.3469 2.6929 38.3398 2.69433 38.3326 2.69433C38.3254 2.69433 38.3183 2.6929 38.3117 2.69011C38.3051 2.68732 38.2991 2.68324 38.2942 2.67811L36.2249 0.0351302C36.2157 0.0237804 36.204 0.0147008 36.1907 0.00861103C36.1773 0.0025213 36.1627 -0.000411077 36.148 4.63701e-05H33.9724C33.963 0.000537207 33.9539 0.0034812 33.946 0.00857848C33.9381 0.0136758 33.9318 0.0207442 33.9276 0.0290638C33.9234 0.0373834 33.9215 0.0466569 33.9221 0.0559398C33.9227 0.0652226 33.9257 0.0741831 33.931 0.0819085L37.1413 4.17502C37.1496 4.1837 37.1542 4.19521 37.1542 4.20718C37.1542 4.21914 37.1496 4.23065 37.1413 4.23934L33.594 8.82362C33.5887 8.83134 33.5857 8.8403 33.5851 8.84959C33.5845 8.85887 33.5864 8.86814 33.5906 8.87646C33.5948 8.88478 33.6011 8.89185 33.609 8.89695C33.6169 8.90205 33.626 8.90499 33.6354 8.90548H35.344C35.498 8.90711 35.6502 8.87242 35.788 8.8043C35.9258 8.73617 36.0451 8.63655 36.1362 8.51371L38.2883 5.72455C38.2932 5.71942 38.2992 5.71534 38.3058 5.71255C38.3124 5.70976 38.3195 5.70832 38.3267 5.70832C38.3339 5.70832 38.341 5.70976 38.3476 5.71255C38.3542 5.71534 38.3601 5.71942 38.3651 5.72455L40.8246 8.8704C40.8335 8.88249 40.845 8.89246 40.8583 8.89955C40.8716 8.90663 40.8864 8.91066 40.9014 8.91133H43.1363C43.1469 8.90624 43.1551 8.89743 43.1595 8.88662C43.1639 8.8758 43.164 8.86376 43.1599 8.85285Z" fill="white"/>
<path d="M43.1599 72.1218L39.5121 67.4791C39.5062 67.4704 39.5031 67.4603 39.5031 67.4499C39.5031 67.4394 39.5062 67.4293 39.5121 67.4206L42.6515 63.3275C42.6567 63.3198 42.6598 63.3108 42.6604 63.3015C42.661 63.2923 42.6591 63.283 42.6549 63.2747C42.6506 63.2663 42.6443 63.2593 42.6364 63.2542C42.6286 63.2491 42.6195 63.2461 42.6101 63.2457H40.9428C40.7885 63.2472 40.6366 63.2832 40.4984 63.3511C40.3601 63.4189 40.2392 63.5168 40.1447 63.6374L38.371 65.9179C38.3661 65.923 38.3601 65.9271 38.3535 65.9299C38.3469 65.9327 38.3398 65.9341 38.3326 65.9341C38.3254 65.9341 38.3183 65.9327 38.3117 65.9299C38.3051 65.9271 38.2991 65.923 38.2942 65.9179L36.219 63.2807C36.2098 63.2694 36.1981 63.2603 36.1848 63.2542C36.1714 63.2481 36.1568 63.2452 36.1421 63.2457H33.9724C33.963 63.2461 33.9539 63.2491 33.946 63.2542C33.9381 63.2593 33.9318 63.2663 33.9276 63.2747C33.9234 63.283 33.9215 63.2923 33.9221 63.3015C33.9227 63.3108 33.9257 63.3198 33.931 63.3275L37.1413 67.4206C37.1496 67.4293 37.1542 67.4408 37.1542 67.4528C37.1542 67.4647 37.1496 67.4763 37.1413 67.4849L33.594 72.0692C33.5887 72.0769 33.5857 72.0859 33.5851 72.0952C33.5845 72.1045 33.5864 72.1137 33.5906 72.1221C33.5948 72.1304 33.6011 72.1375 33.609 72.1426C33.6169 72.1476 33.626 72.1506 33.6354 72.1511H35.344C35.498 72.1527 35.6502 72.118 35.788 72.0499C35.9258 71.9818 36.0451 71.8822 36.1362 71.7593L38.2883 68.9702C38.2932 68.965 38.2992 68.9609 38.3058 68.9582C38.3124 68.9554 38.3195 68.9539 38.3267 68.9539C38.3339 68.9539 38.341 68.9554 38.3476 68.9582C38.3542 68.9609 38.3601 68.965 38.3651 68.9702L40.8246 72.116C40.8335 72.1281 40.845 72.1381 40.8583 72.1451C40.8716 72.1522 40.8864 72.1563 40.9014 72.1569H43.1363C43.1427 72.1533 43.1482 72.1483 43.1523 72.1422C43.1564 72.1361 43.159 72.1291 43.1599 72.1218Z" fill="white"/>
<path d="M9.56312 103.387L5.91529 98.7442C5.90945 98.7355 5.90633 98.7254 5.90633 98.7149C5.90633 98.7045 5.90945 98.6944 5.91529 98.6857L9.05467 94.5926C9.05991 94.5849 9.06298 94.5759 9.06358 94.5666C9.06417 94.5574 9.06227 94.5481 9.05806 94.5398C9.05386 94.5314 9.0475 94.5244 9.03963 94.5193C9.03177 94.5142 9.02267 94.5112 9.01328 94.5107H7.3697C7.21524 94.5114 7.06299 94.5471 6.92463 94.615C6.78627 94.6829 6.66548 94.7812 6.57155 94.9025L4.79789 97.183C4.79292 97.1881 4.78696 97.1922 4.78035 97.195C4.77375 97.1977 4.76665 97.1992 4.75947 97.1992C4.75229 97.1992 4.74518 97.1977 4.73857 97.195C4.73197 97.1922 4.726 97.1881 4.72104 97.183L2.63994 94.5692C2.63077 94.5579 2.61905 94.5488 2.60571 94.5427C2.59237 94.5366 2.57777 94.5337 2.56308 94.5341H0.3874C0.378008 94.5346 0.368916 94.5376 0.361049 94.5427C0.353182 94.5478 0.346824 94.5548 0.342618 94.5631C0.338412 94.5715 0.336509 94.5807 0.337106 94.59C0.337704 94.5993 0.340772 94.6083 0.34601 94.616L3.55633 98.7091C3.56465 98.7178 3.56928 98.7293 3.56928 98.7413C3.56928 98.7532 3.56465 98.7647 3.55633 98.7734L0.00902031 103.358C0.0037823 103.365 0.000704371 103.374 0.000107283 103.384C-0.000489804 103.393 0.00141332 103.402 0.00561929 103.411C0.00982526 103.419 0.0161828 103.426 0.0240498 103.431C0.0319167 103.436 0.0410092 103.439 0.050401 103.44H1.75902C1.91305 103.441 2.06525 103.407 2.20302 103.338C2.34079 103.27 2.46017 103.171 2.55126 103.048L4.7033 100.259C4.70827 100.254 4.71423 100.249 4.72084 100.247C4.72744 100.244 4.73454 100.242 4.74172 100.242C4.7489 100.242 4.75601 100.244 4.76262 100.247C4.76922 100.249 4.77519 100.254 4.78015 100.259L7.23963 103.404C7.2485 103.417 7.26002 103.427 7.27333 103.434C7.28664 103.441 7.30139 103.445 7.31649 103.445H9.55129C9.55984 103.439 9.56569 103.429 9.56785 103.418C9.57001 103.408 9.56834 103.397 9.56312 103.387Z" fill="white"/>
<path d="M9.56312 134.653L5.91529 130.01C5.90945 130.001 5.90633 129.991 5.90633 129.981C5.90633 129.97 5.90945 129.96 5.91529 129.951L9.05467 125.888C9.05991 125.88 9.06298 125.871 9.06358 125.862C9.06417 125.852 9.06227 125.843 9.05806 125.835C9.05386 125.826 9.0475 125.819 9.03963 125.814C9.03177 125.809 9.02267 125.806 9.01328 125.806H7.3697C7.21524 125.806 7.06299 125.842 6.92463 125.91C6.78627 125.978 6.66548 126.076 6.57155 126.197L4.79789 128.478C4.79292 128.483 4.78696 128.487 4.78035 128.49C4.77375 128.493 4.76665 128.494 4.75947 128.494C4.75229 128.494 4.74518 128.493 4.73857 128.49C4.73197 128.487 4.726 128.483 4.72104 128.478L2.63994 125.835C2.63077 125.824 2.61905 125.815 2.60571 125.808C2.59237 125.802 2.57777 125.799 2.56308 125.8H0.3874C0.378008 125.8 0.368916 125.803 0.361049 125.808C0.353182 125.813 0.346824 125.821 0.342618 125.829C0.338412 125.837 0.336509 125.846 0.337106 125.856C0.337704 125.865 0.340772 125.874 0.34601 125.882L3.55633 129.975C3.56465 129.984 3.56928 129.995 3.56928 130.007C3.56928 130.019 3.56465 130.03 3.55633 130.039L0.00902031 134.623C0.0037823 134.631 0.000704371 134.64 0.000107283 134.649C-0.000489804 134.659 0.00141332 134.668 0.00561929 134.676C0.00982526 134.685 0.0161828 134.692 0.0240498 134.697C0.0319167 134.702 0.0410092 134.705 0.050401 134.705H1.75902C1.91305 134.707 2.06525 134.672 2.20302 134.604C2.34079 134.536 2.46017 134.436 2.55126 134.314L4.7033 131.524C4.70827 131.519 4.71423 131.515 4.72084 131.512C4.72744 131.51 4.73454 131.508 4.74172 131.508C4.7489 131.508 4.75601 131.51 4.76262 131.512C4.76922 131.515 4.77519 131.519 4.78015 131.524L7.23963 134.67C7.2485 134.682 7.26002 134.692 7.27333 134.699C7.28664 134.706 7.30139 134.71 7.31649 134.711H9.55129C9.55984 134.704 9.56569 134.695 9.56785 134.684C9.57001 134.673 9.56834 134.662 9.56312 134.653Z" fill="white"/>
<path d="M43.1599 165.907L39.5121 161.264C39.5062 161.255 39.5031 161.245 39.5031 161.235C39.5031 161.224 39.5062 161.214 39.5121 161.205L42.6515 157.141C42.6567 157.134 42.6598 157.125 42.6604 157.116C42.661 157.106 42.6591 157.097 42.6549 157.089C42.6506 157.08 42.6443 157.073 42.6364 157.068C42.6286 157.063 42.6195 157.06 42.6101 157.06H40.9428C40.7885 157.061 40.6366 157.097 40.4984 157.165C40.3601 157.233 40.2392 157.331 40.1447 157.451L38.371 159.732C38.3661 159.737 38.3601 159.741 38.3535 159.744C38.3469 159.747 38.3398 159.748 38.3326 159.748C38.3254 159.748 38.3183 159.747 38.3117 159.744C38.3051 159.741 38.2991 159.737 38.2942 159.732L36.219 157.095C36.2098 157.083 36.1981 157.074 36.1848 157.068C36.1714 157.062 36.1568 157.059 36.1421 157.06H33.9724C33.963 157.06 33.9539 157.063 33.946 157.068C33.9381 157.073 33.9318 157.08 33.9276 157.089C33.9234 157.097 33.9215 157.106 33.9221 157.116C33.9227 157.125 33.9257 157.134 33.931 157.141L37.1413 161.235C37.1496 161.243 37.1543 161.255 37.1543 161.267C37.1543 161.279 37.1496 161.29 37.1413 161.299L33.594 165.883C33.5887 165.891 33.5857 165.9 33.5851 165.909C33.5845 165.918 33.5864 165.928 33.5906 165.936C33.5948 165.944 33.6011 165.951 33.609 165.957C33.6169 165.962 33.626 165.965 33.6354 165.965H35.344C35.498 165.967 35.6502 165.932 35.788 165.864C35.9258 165.796 36.0451 165.696 36.1362 165.573L38.2883 162.784C38.2932 162.779 38.2992 162.775 38.3058 162.772C38.3124 162.769 38.3195 162.768 38.3267 162.768C38.3339 162.768 38.341 162.769 38.3476 162.772C38.3542 162.775 38.3601 162.779 38.3651 162.784L40.8246 165.93C40.8335 165.942 40.845 165.952 40.8583 165.959C40.8716 165.966 40.8864 165.97 40.9014 165.971H43.1363C43.1422 165.968 43.1476 165.965 43.1521 165.96C43.1566 165.955 43.16 165.95 43.1622 165.944C43.1644 165.938 43.1654 165.931 43.165 165.925C43.1646 165.919 43.1629 165.912 43.1599 165.907Z" fill="white"/>
</svg>
