<svg width="54" height="134" viewBox="0 0 54 134" fill="none" xmlns="http://www.w3.org/2000/svg">
<path d="M20.1765 102.328L16.5287 97.6852C16.522 97.6769 16.5183 97.6666 16.5183 97.656C16.5183 97.6453 16.522 97.635 16.5287 97.6267L19.6621 93.5336C19.6623 93.5254 19.6602 93.5174 19.6562 93.5102H17.9831C17.8296 93.5118 17.6785 93.5479 17.5413 93.6157C17.404 93.6836 17.2842 93.7815 17.1908 93.902L15.4172 96.1824C15.4122 96.1876 15.4063 96.1917 15.3997 96.1944C15.3931 96.1972 15.3859 96.1987 15.3788 96.1987C15.3716 96.1987 15.3645 96.1972 15.3579 96.1944C15.3513 96.1917 15.3453 96.1876 15.3403 96.1824L13.2415 93.5102C13.2323 93.4989 13.2206 93.4898 13.2073 93.4837C13.1939 93.4776 13.1793 93.4747 13.1646 93.4751H10.989C10.9796 93.4756 10.9705 93.4786 10.9626 93.4837C10.9547 93.4888 10.9484 93.4958 10.9442 93.5042C10.94 93.5125 10.9381 93.5218 10.9387 93.531C10.9393 93.5403 10.9423 93.5493 10.9476 93.557L14.1579 97.6501C14.1662 97.6588 14.1708 97.6703 14.1708 97.6823C14.1708 97.6942 14.1662 97.7057 14.1579 97.7144L10.6106 102.299C10.6053 102.306 10.6023 102.315 10.6017 102.325C10.6011 102.334 10.603 102.343 10.6072 102.352C10.6114 102.36 10.6177 102.367 10.6256 102.372C10.6335 102.377 10.6426 102.38 10.652 102.381H12.3547C12.5097 102.383 12.6631 102.349 12.8019 102.281C12.9408 102.213 13.0611 102.112 13.1528 101.989L15.3049 99.1996C15.3098 99.1945 15.3158 99.1904 15.3224 99.1876C15.329 99.1849 15.3361 99.1834 15.3433 99.1834C15.3505 99.1834 15.3576 99.1849 15.3642 99.1876C15.3708 99.1904 15.3767 99.1945 15.3817 99.1996L17.8353 102.345C17.8453 102.358 17.8579 102.368 17.8722 102.375C17.8865 102.382 17.9021 102.386 17.918 102.386H20.1529C20.1626 102.381 20.1702 102.372 20.1745 102.361C20.1788 102.351 20.1795 102.339 20.1765 102.328Z" fill="#287AF3"/>
<path d="M53.777 102.328L50.1292 97.6851C50.1233 97.6764 50.1202 97.6663 50.1202 97.6559C50.1202 97.6455 50.1233 97.6353 50.1292 97.6266L53.2685 93.5335C53.2738 93.5258 53.2768 93.5168 53.2774 93.5076C53.278 93.4983 53.2761 93.489 53.2719 93.4807C53.2677 93.4724 53.2614 93.4653 53.2535 93.4602C53.2456 93.4551 53.2365 93.4522 53.2271 93.4517H51.5836C51.4291 93.4523 51.2769 93.488 51.1385 93.5559C51.0001 93.6238 50.8794 93.7222 50.7854 93.8434L49.0118 96.1239C49.0068 96.129 49.0008 96.1331 48.9942 96.1359C48.9876 96.1387 48.9805 96.1401 48.9733 96.1401C48.9662 96.1401 48.959 96.1387 48.9524 96.1359C48.9458 96.1331 48.9399 96.129 48.9349 96.1239L46.8538 93.5101C46.8446 93.4988 46.8329 93.4897 46.8196 93.4836C46.8062 93.4775 46.7916 93.4746 46.7769 93.475H44.6013C44.5919 93.4755 44.5828 93.4785 44.5749 93.4836C44.567 93.4887 44.5607 93.4957 44.5565 93.5041C44.5523 93.5124 44.5504 93.5217 44.551 93.5309C44.5516 93.5402 44.5546 93.5492 44.5599 93.5569L47.7702 97.65C47.7785 97.6587 47.7831 97.6702 47.7831 97.6822C47.7831 97.6941 47.7785 97.7057 47.7702 97.7143L44.2229 102.299C44.2176 102.306 44.2146 102.315 44.214 102.325C44.2134 102.334 44.2153 102.343 44.2195 102.351C44.2237 102.36 44.2301 102.367 44.2379 102.372C44.2458 102.377 44.2549 102.38 44.2643 102.38H45.9729C46.1269 102.382 46.2791 102.347 46.4169 102.279C46.5547 102.211 46.674 102.112 46.7651 101.989L48.9172 99.1996C48.9221 99.1944 48.9281 99.1903 48.9347 99.1876C48.9413 99.1848 48.9484 99.1833 48.9556 99.1833C48.9628 99.1833 48.9699 99.1848 48.9765 99.1876C48.9831 99.1903 48.9891 99.1944 48.994 99.1996L51.4535 102.345C51.4624 102.357 51.4739 102.367 51.4872 102.375C51.5005 102.382 51.5153 102.386 51.5304 102.386H53.7652C53.7737 102.379 53.7796 102.37 53.7817 102.359C53.7839 102.349 53.7822 102.337 53.777 102.328Z" fill="#287AF3"/>
<path d="M53.777 133.593L50.1292 128.95C50.1233 128.942 50.1202 128.932 50.1202 128.921C50.1202 128.911 50.1233 128.901 50.1292 128.892L53.2685 124.828C53.2738 124.82 53.2768 124.811 53.2774 124.802C53.278 124.793 53.2761 124.783 53.2719 124.775C53.2677 124.767 53.2614 124.76 53.2535 124.755C53.2456 124.75 53.2365 124.747 53.2271 124.746H51.5836C51.4291 124.747 51.2769 124.782 51.1385 124.85C51.0001 124.918 50.8794 125.017 50.7854 125.138L49.0118 127.418C49.0068 127.423 49.0008 127.428 48.9942 127.43C48.9876 127.433 48.9805 127.435 48.9733 127.435C48.9662 127.435 48.959 127.433 48.9524 127.43C48.9458 127.428 48.9399 127.423 48.9349 127.418L46.8538 124.775C46.8446 124.764 46.8329 124.755 46.8196 124.749C46.8062 124.743 46.7916 124.74 46.7769 124.74H44.6013C44.5919 124.741 44.5828 124.744 44.5749 124.749C44.567 124.754 44.5607 124.761 44.5565 124.769C44.5523 124.778 44.5504 124.787 44.551 124.796C44.5516 124.805 44.5546 124.814 44.5599 124.822L47.7702 128.915C47.7785 128.924 47.7831 128.935 47.7831 128.947C47.7831 128.959 47.7785 128.971 47.7702 128.98L44.2229 133.564C44.2176 133.572 44.2146 133.581 44.214 133.59C44.2134 133.599 44.2153 133.608 44.2195 133.617C44.2237 133.625 44.2301 133.632 44.2379 133.637C44.2458 133.642 44.2549 133.645 44.2643 133.646H45.9729C46.1269 133.647 46.2791 133.613 46.4169 133.545C46.5547 133.476 46.674 133.377 46.7651 133.254L48.9172 130.465C48.9221 130.46 48.9281 130.456 48.9347 130.453C48.9413 130.45 48.9484 130.449 48.9556 130.449C48.9628 130.449 48.9699 130.45 48.9765 130.453C48.9831 130.456 48.9891 130.46 48.994 130.465L51.4535 133.611C51.4624 133.623 51.4739 133.633 51.4872 133.64C51.5005 133.647 51.5153 133.651 51.5304 133.652H53.7652C53.7737 133.645 53.7796 133.635 53.7817 133.624C53.7839 133.614 53.7822 133.603 53.777 133.593Z" fill="#287AF3"/>
</svg>
