<svg width="111" height="41" viewBox="0 0 111 41" fill="none" xmlns="http://www.w3.org/2000/svg">
<path d="M9.59898 8.87619L5.95116 4.23344C5.94723 4.22963 5.94411 4.22508 5.94197 4.22006C5.93984 4.21504 5.93874 4.20965 5.93874 4.2042C5.93874 4.19876 5.93984 4.19337 5.94197 4.18835C5.94411 4.18333 5.94723 4.17878 5.95116 4.17497L9.08463 0.0818618C9.08973 0.0745398 9.09288 0.0660565 9.09377 0.0572051C9.09467 0.0483537 9.09328 0.0394242 9.08973 0.031248C9.08619 0.0230718 9.08061 0.0159169 9.07351 0.0104524C9.06642 0.00498798 9.05803 0.0013917 9.04915 0H7.376C7.22247 0.00111454 7.07123 0.0370051 6.9339 0.104917C6.79657 0.172829 6.67679 0.270955 6.58377 0.391768L4.81011 2.67221C4.80036 2.68084 4.78773 2.68562 4.77464 2.68562C4.76155 2.68562 4.74892 2.68084 4.73916 2.67221L2.66399 0.0584721C2.65481 0.0471223 2.64309 0.0380426 2.62975 0.0319529C2.6164 0.0258631 2.60181 0.0229323 2.58713 0.0233897H0.405529C0.396645 0.0247814 0.388264 0.0283777 0.381167 0.0338422C0.37407 0.0393066 0.368489 0.0464593 0.364946 0.0546355C0.361403 0.0628116 0.360013 0.0717434 0.360907 0.0805948C0.3618 0.0894462 0.364948 0.0979295 0.370055 0.105251L3.58037 4.19836C3.58608 4.20814 3.58909 4.21923 3.58909 4.23052C3.58909 4.24181 3.58608 4.2529 3.58037 4.26268L0.00941184 8.87035C0.00430435 8.87767 0.0011568 8.88615 0.000263256 8.895C-0.000630289 8.90385 0.00075933 8.91279 0.00430229 8.92096C0.00784524 8.92914 0.0134259 8.93629 0.0205229 8.94176C0.0276199 8.94722 0.0360016 8.95082 0.044885 8.95221H1.78307C1.93792 8.95382 2.09097 8.91916 2.22969 8.85107C2.36841 8.78298 2.48886 8.68339 2.58121 8.56044L4.73916 5.77128C4.74413 5.76615 4.7501 5.76207 4.7567 5.75928C4.76331 5.75649 4.77041 5.75505 4.77759 5.75505C4.78477 5.75505 4.79188 5.75649 4.79849 5.75928C4.80509 5.76207 4.81106 5.76615 4.81602 5.77128L7.26958 8.91713C7.27846 8.92922 7.28998 8.93919 7.30328 8.94627C7.31659 8.95336 7.33134 8.95739 7.34644 8.95806H9.58125C9.58866 8.95461 9.59517 8.94951 9.60026 8.94316C9.60535 8.93681 9.6089 8.92939 9.61061 8.92147C9.61233 8.91355 9.61217 8.90534 9.61016 8.89749C9.60814 8.88964 9.60432 8.88235 9.59898 8.87619Z" fill="#287AF3"/>
<path d="M43.1964 8.87591L39.5486 4.23316C39.5447 4.22935 39.5416 4.2248 39.5394 4.21978C39.5373 4.21476 39.5362 4.20937 39.5362 4.20392C39.5362 4.19848 39.5373 4.19309 39.5394 4.18807C39.5416 4.18305 39.5447 4.1785 39.5486 4.17469L42.6821 0.0815788C42.6896 0.0750786 42.6949 0.0663766 42.6971 0.0567236C42.6994 0.0470706 42.6984 0.036964 42.6945 0.0278623C42.6906 0.0187606 42.6838 0.0111321 42.6752 0.00607413C42.6666 0.00101612 42.6566 -0.00120956 42.6466 -0.000282987H40.9734C40.82 0.00126637 40.6689 0.0373468 40.5316 0.105225C40.3944 0.173103 40.2745 0.270997 40.1812 0.391485L38.4371 2.67193C38.4321 2.67706 38.4262 2.68114 38.4196 2.68393C38.413 2.68672 38.4059 2.68816 38.3987 2.68816C38.3915 2.68816 38.3844 2.68672 38.3778 2.68393C38.3712 2.68114 38.3652 2.67706 38.3603 2.67193L36.2851 0.0348016C36.2759 0.0234518 36.2642 0.0143721 36.2508 0.00828239C36.2375 0.00219266 36.2229 -0.000740434 36.2082 -0.000282987H34.0089C33.9995 0.00020785 33.9904 0.00315165 33.9825 0.00824893C33.9747 0.0133462 33.9683 0.0204148 33.9641 0.0287345C33.9599 0.0370541 33.958 0.0463277 33.9586 0.0556106C33.9592 0.0648934 33.9623 0.0738534 33.9675 0.0815788L37.1778 4.17469C37.1861 4.18337 37.1908 4.19488 37.1908 4.20685C37.1908 4.21881 37.1861 4.23032 37.1778 4.23901L33.6305 8.82329C33.6254 8.83061 33.6223 8.83909 33.6214 8.84794C33.6205 8.85679 33.6219 8.86573 33.6254 8.8739C33.6289 8.88208 33.6345 8.88923 33.6416 8.8947C33.6487 8.90016 33.6571 8.90376 33.666 8.90515H35.3628C35.5178 8.90772 35.6712 8.87348 35.81 8.80531C35.9489 8.73714 36.0692 8.63704 36.1609 8.51338L38.313 5.72422C38.3179 5.71909 38.3239 5.71501 38.3305 5.71222C38.3371 5.70943 38.3442 5.70799 38.3514 5.70799C38.3586 5.70799 38.3657 5.70943 38.3723 5.71222C38.3789 5.71501 38.3849 5.71909 38.3898 5.72422L40.8434 8.87006C40.8534 8.88231 40.866 8.89229 40.8803 8.89935C40.8946 8.90641 40.9102 8.91038 40.9261 8.911H43.1669C43.1741 8.90772 43.1806 8.90287 43.1857 8.89679C43.1908 8.89072 43.1945 8.88358 43.1964 8.87591Z" fill="#287AF3"/>
<path d="M76.7957 8.87591L73.1479 4.23316C73.1412 4.22486 73.1375 4.21455 73.1375 4.20392C73.1375 4.19329 73.1412 4.18298 73.1479 4.17469L76.2813 0.0815788C76.2889 0.0750786 76.2942 0.0663766 76.2964 0.0567236C76.2986 0.0470706 76.2977 0.036964 76.2938 0.0278623C76.2898 0.0187606 76.2831 0.0111321 76.2744 0.00607413C76.2658 0.00101612 76.2558 -0.00120956 76.2459 -0.000282987H74.5727C74.4193 0.00126637 74.2682 0.0373468 74.1309 0.105225C73.9936 0.173103 73.8738 0.270997 73.7805 0.391485L72.0068 2.67193C72.0019 2.67706 71.9959 2.68114 71.9893 2.68393C71.9827 2.68672 71.9756 2.68816 71.9684 2.68816C71.9612 2.68816 71.9541 2.68672 71.9475 2.68393C71.9409 2.68114 71.9349 2.67706 71.93 2.67193L69.8548 0.0348016C69.8456 0.0234518 69.8339 0.0143721 69.8205 0.00828239C69.8072 0.00219266 69.7926 -0.000740434 69.7779 -0.000282987H67.6022C67.5928 0.00020785 67.5838 0.00315165 67.5759 0.00824893C67.568 0.0133462 67.5617 0.0204148 67.5575 0.0287345C67.5532 0.0370541 67.5513 0.0463277 67.5519 0.0556106C67.5525 0.0648934 67.5556 0.0738534 67.5609 0.0815788L70.7712 4.17469C70.7795 4.18337 70.7841 4.19488 70.7841 4.20685C70.7841 4.21881 70.7795 4.23032 70.7712 4.23901L67.2239 8.82329C67.2186 8.83101 67.2155 8.83998 67.215 8.84926C67.2144 8.85854 67.2163 8.86781 67.2205 8.87613C67.2247 8.88445 67.231 8.89152 67.2389 8.89662C67.2468 8.90172 67.2559 8.90466 67.2652 8.90515H68.968C69.123 8.90772 69.2763 8.87348 69.4152 8.80531C69.5541 8.73714 69.6744 8.63704 69.7661 8.51338L71.9181 5.72422C71.9231 5.71909 71.9291 5.71501 71.9357 5.71222C71.9423 5.70943 71.9494 5.70799 71.9566 5.70799C71.9637 5.70799 71.9709 5.70943 71.9775 5.71222C71.9841 5.71501 71.99 5.71909 71.995 5.72422L74.4486 8.87006C74.4586 8.88231 74.4712 8.89229 74.4855 8.89935C74.4998 8.90641 74.5154 8.91038 74.5313 8.911H76.7661C76.7734 8.90772 76.7798 8.90287 76.785 8.89679C76.7901 8.89072 76.7938 8.88358 76.7957 8.87591Z" fill="#287AF3"/>
<path d="M110.398 40.1413L106.75 35.4986C106.744 35.4899 106.741 35.4797 106.741 35.4693C106.741 35.4589 106.744 35.4488 106.75 35.4401L109.89 31.347C109.895 31.3393 109.898 31.3303 109.899 31.321C109.899 31.3117 109.897 31.3025 109.893 31.2942C109.889 31.2858 109.882 31.2788 109.875 31.2737C109.867 31.2686 109.858 31.2656 109.848 31.2651H108.205C108.05 31.2658 107.898 31.3015 107.76 31.3694C107.621 31.4373 107.5 31.5356 107.407 31.6569L105.633 33.9374C105.628 33.9425 105.622 33.9466 105.615 33.9494C105.609 33.9521 105.602 33.9536 105.594 33.9536C105.587 33.9536 105.58 33.9521 105.574 33.9494C105.567 33.9466 105.561 33.9425 105.556 33.9374L103.475 31.3236C103.466 31.3123 103.454 31.3032 103.441 31.2971C103.427 31.291 103.413 31.2881 103.398 31.2885H101.222C101.213 31.289 101.204 31.292 101.196 31.2971C101.188 31.3022 101.182 31.3092 101.178 31.3175C101.173 31.3259 101.171 31.3351 101.172 31.3444C101.173 31.3537 101.176 31.3627 101.181 31.3704L104.391 35.4635C104.4 35.4722 104.404 35.4837 104.404 35.4957C104.404 35.5076 104.4 35.5191 104.391 35.5278L100.844 40.1121C100.839 40.1198 100.836 40.1288 100.835 40.1381C100.834 40.1473 100.836 40.1566 100.841 40.1649C100.845 40.1733 100.851 40.1803 100.859 40.1854C100.867 40.1905 100.876 40.1935 100.885 40.194H102.594C102.748 40.1956 102.9 40.1609 103.038 40.0928C103.176 40.0246 103.295 39.925 103.386 39.8022L105.538 37.013C105.543 37.0079 105.549 37.0038 105.556 37.001C105.562 36.9982 105.57 36.9968 105.577 36.9968C105.584 36.9968 105.591 36.9982 105.598 37.001C105.604 37.0038 105.61 37.0079 105.615 37.013L108.075 40.1589C108.083 40.171 108.095 40.1809 108.108 40.188C108.122 40.1951 108.136 40.1991 108.151 40.1998H110.386C110.395 40.1929 110.401 40.1833 110.403 40.1727C110.405 40.162 110.403 40.1509 110.398 40.1413Z" fill="#287AF3"/>
</svg>
