<svg width="111" height="72" viewBox="0 0 111 72" fill="none" xmlns="http://www.w3.org/2000/svg">
<path d="M9.57534 8.8764L5.92751 4.23365C5.92358 4.22984 5.92046 4.22529 5.91832 4.22027C5.91619 4.21525 5.91509 4.20986 5.91509 4.20441C5.91509 4.19897 5.91619 4.19358 5.91832 4.18856C5.92046 4.18354 5.92358 4.17899 5.92751 4.17517L9.06098 0.0820671C9.06853 0.0755669 9.0738 0.0668649 9.07603 0.0572119C9.07827 0.0475589 9.07735 0.0374523 9.0734 0.0283506C9.06946 0.0192488 9.0627 0.0116204 9.05409 0.00656241C9.04548 0.00150441 9.03547 -0.000721278 9.0255 0.000205294H7.35235C7.1989 0.00175465 7.04781 0.0378351 6.91054 0.105713C6.77328 0.173592 6.65344 0.271485 6.56012 0.391973L4.81602 2.67242C4.81106 2.67755 4.80509 2.68163 4.79849 2.68442C4.79188 2.68721 4.78477 2.68865 4.77759 2.68865C4.77041 2.68865 4.76331 2.68721 4.7567 2.68442C4.7501 2.68163 4.74413 2.67755 4.73917 2.67242L2.66399 0.0352899C2.65481 0.0239401 2.64309 0.0148604 2.62975 0.00877067C2.6164 0.00268094 2.60181 -0.000252153 2.58713 0.000205294H0.387791C0.378399 0.000696131 0.369306 0.00363993 0.361439 0.00873721C0.353573 0.0138345 0.347213 0.0209031 0.343007 0.0292227C0.338801 0.0375424 0.3369 0.046816 0.337497 0.0560988C0.338094 0.0653817 0.341168 0.0743417 0.346406 0.0820671L3.55673 4.17517C3.56504 4.18386 3.56968 4.19537 3.56968 4.20733C3.56968 4.2193 3.56504 4.23081 3.55673 4.2395L0.00941082 8.82377C0.00430333 8.8311 0.00115678 8.83958 0.000263231 8.84843C-0.000630315 8.85728 0.000759556 8.86621 0.00430251 8.87439C0.00784547 8.88257 0.0134258 8.88972 0.0205228 8.89519C0.0276198 8.90065 0.0360014 8.90425 0.0448848 8.90564H1.74168C1.8967 8.90821 2.05008 8.87397 2.18895 8.8058C2.32783 8.73763 2.44815 8.63752 2.53983 8.51387L4.69187 5.72471C4.69683 5.71958 4.7028 5.7155 4.7094 5.71271C4.71601 5.70992 4.72312 5.70848 4.7303 5.70848C4.73748 5.70848 4.74458 5.70992 4.75119 5.71271C4.75779 5.7155 4.76376 5.71958 4.76872 5.72471L7.22228 8.87055C7.23235 8.8828 7.24494 8.89278 7.25921 8.89984C7.27348 8.9069 7.28911 8.91087 7.30505 8.91148H9.54577C9.55305 8.90821 9.55948 8.90335 9.5646 8.89728C9.56972 8.89121 9.57339 8.88407 9.57534 8.8764Z" fill="#0076FC"/>
<path d="M9.57534 40.142L5.92751 35.4992C5.92358 35.4954 5.92046 35.4909 5.91832 35.4858C5.91619 35.4808 5.91509 35.4754 5.91509 35.47C5.91509 35.4645 5.91619 35.4591 5.91832 35.4541C5.92046 35.4491 5.92358 35.4446 5.92751 35.4407L9.06098 31.3476C9.06853 31.3411 9.0738 31.3324 9.07603 31.3228C9.07826 31.3131 9.07735 31.303 9.0734 31.2939C9.06946 31.2848 9.06269 31.2772 9.05409 31.2721C9.04548 31.2671 9.03547 31.2648 9.0255 31.2658H7.35235C7.1989 31.2673 7.04781 31.3034 6.91054 31.3713C6.77328 31.4392 6.65344 31.537 6.56012 31.6575L4.78646 33.938C4.78149 33.9431 4.77553 33.9472 4.76893 33.95C4.76232 33.9528 4.75521 33.9542 4.74803 33.9542C4.74085 33.9542 4.73374 33.9528 4.72714 33.95C4.72054 33.9472 4.71457 33.9431 4.7096 33.938L2.64034 31.3242C2.63116 31.3129 2.61944 31.3038 2.6061 31.2977C2.59275 31.2916 2.57816 31.2887 2.56348 31.2892H0.387791C0.378399 31.2896 0.369306 31.2926 0.361439 31.2977C0.353573 31.3028 0.347213 31.3099 0.343007 31.3182C0.338801 31.3265 0.3369 31.3358 0.337497 31.3451C0.338094 31.3543 0.341167 31.3633 0.346405 31.371L3.55673 35.4641C3.56504 35.4728 3.56968 35.4843 3.56968 35.4963C3.56968 35.5083 3.56504 35.5198 3.55673 35.5284L0.00941081 40.1127C0.00430333 40.1201 0.00115678 40.1285 0.000263231 40.1374C-0.000630315 40.1462 0.000759556 40.1552 0.00430251 40.1633C0.00784547 40.1715 0.0134258 40.1787 0.0205228 40.1841C0.0276198 40.1896 0.0360014 40.1932 0.0448848 40.1946H1.74168C1.8967 40.1972 2.05008 40.1629 2.18895 40.0948C2.32783 40.0266 2.44815 39.9265 2.53983 39.8028L4.69187 37.0137C4.69683 37.0085 4.7028 37.0045 4.7094 37.0017C4.71601 36.9989 4.72312 36.9974 4.7303 36.9974C4.73748 36.9974 4.74458 36.9989 4.75119 37.0017C4.75779 37.0045 4.76376 37.0085 4.76872 37.0137L7.22228 40.1595C7.23235 40.1718 7.24494 40.1817 7.25921 40.1888C7.27348 40.1959 7.28911 40.1998 7.30505 40.2004H9.54577C9.55665 40.1954 9.56548 40.1869 9.57085 40.1763C9.57621 40.1657 9.5778 40.1536 9.57534 40.142Z" fill="#0076FC"/>
<path d="M76.777 40.1419L73.1292 35.4992C73.1233 35.4905 73.1202 35.4803 73.1202 35.4699C73.1202 35.4595 73.1233 35.4493 73.1292 35.4407L76.2685 31.3476C76.2738 31.3399 76.2768 31.3309 76.2774 31.3216C76.278 31.3123 76.2761 31.3031 76.2719 31.2947C76.2677 31.2864 76.2614 31.2793 76.2535 31.2742C76.2456 31.2691 76.2365 31.2662 76.2271 31.2657H74.5836C74.4291 31.2664 74.2769 31.302 74.1385 31.3699C74.0001 31.4379 73.8794 31.5362 73.7854 31.6575L72.0118 33.9379C72.0068 33.9431 72.0008 33.9471 71.9942 33.9499C71.9876 33.9527 71.9805 33.9542 71.9733 33.9542C71.9662 33.9542 71.959 33.9527 71.9524 33.9499C71.9458 33.9471 71.9399 33.9431 71.9349 33.9379L69.8538 31.3242C69.8446 31.3128 69.8329 31.3038 69.8196 31.2977C69.8062 31.2916 69.7916 31.2886 69.7769 31.2891H67.6013C67.5919 31.2896 67.5828 31.2925 67.5749 31.2976C67.567 31.3027 67.5607 31.3098 67.5565 31.3181C67.5523 31.3264 67.5504 31.3357 67.551 31.345C67.5516 31.3543 67.5546 31.3632 67.5599 31.371L70.7702 35.4641C70.7785 35.4728 70.7831 35.4843 70.7831 35.4962C70.7831 35.5082 70.7785 35.5197 70.7702 35.5284L67.2229 40.1127C67.2176 40.1204 67.2146 40.1294 67.214 40.1386C67.2134 40.1479 67.2153 40.1572 67.2195 40.1655C67.2237 40.1738 67.2301 40.1809 67.2379 40.186C67.2458 40.1911 67.2549 40.194 67.2643 40.1945H68.9729C69.1269 40.1962 69.2791 40.1615 69.4169 40.0934C69.5547 40.0252 69.674 39.9256 69.7651 39.8028L71.9172 37.0136C71.9221 37.0085 71.9281 37.0044 71.9347 37.0016C71.9413 36.9988 71.9484 36.9974 71.9556 36.9974C71.9628 36.9974 71.9699 36.9988 71.9765 37.0016C71.9831 37.0044 71.9891 37.0085 71.994 37.0136L74.4535 40.1595C74.4624 40.1716 74.4739 40.1815 74.4872 40.1886C74.5005 40.1957 74.5153 40.1997 74.5304 40.2004H76.7652C76.7737 40.1935 76.7796 40.1839 76.7817 40.1733C76.7839 40.1626 76.7822 40.1515 76.777 40.1419Z" fill="#0076FC"/>
<path d="M110.374 40.1419L106.726 35.4992C106.72 35.4905 106.717 35.4803 106.717 35.4699C106.717 35.4595 106.72 35.4493 106.726 35.4407L109.865 31.3476C109.871 31.3399 109.874 31.3309 109.874 31.3216C109.875 31.3123 109.873 31.3031 109.869 31.2947C109.865 31.2864 109.858 31.2793 109.85 31.2742C109.842 31.2691 109.833 31.2662 109.824 31.2657H108.157C108.002 31.2672 107.85 31.3033 107.712 31.3711C107.574 31.439 107.453 31.5369 107.359 31.6575L105.585 33.9379C105.58 33.9431 105.574 33.9471 105.567 33.9499C105.561 33.9527 105.554 33.9542 105.546 33.9542C105.539 33.9542 105.532 33.9527 105.526 33.9499C105.519 33.9471 105.513 33.9431 105.508 33.9379L103.439 31.3242C103.43 31.3128 103.418 31.3038 103.405 31.2977C103.391 31.2916 103.377 31.2886 103.362 31.2891H101.186C101.177 31.2896 101.168 31.2925 101.16 31.2976C101.152 31.3027 101.146 31.3098 101.141 31.3181C101.137 31.3264 101.135 31.3357 101.136 31.345C101.137 31.3543 101.14 31.3632 101.145 31.371L104.355 35.4641C104.363 35.4728 104.368 35.4843 104.368 35.4962C104.368 35.5082 104.363 35.5197 104.355 35.5284L100.808 40.1127C100.803 40.1204 100.8 40.1294 100.799 40.1386C100.798 40.1479 100.8 40.1572 100.804 40.1655C100.809 40.1738 100.815 40.1809 100.823 40.186C100.831 40.1911 100.84 40.194 100.849 40.1945H102.558C102.712 40.1962 102.864 40.1615 103.002 40.0934C103.14 40.0252 103.259 39.9256 103.35 39.8028L105.502 37.0136C105.507 37.0085 105.513 37.0044 105.52 37.0016C105.526 36.9988 105.533 36.9974 105.541 36.9974C105.548 36.9974 105.555 36.9988 105.561 37.0016C105.568 37.0044 105.574 37.0085 105.579 37.0136L108.038 40.1595C108.047 40.1716 108.059 40.1815 108.072 40.1886C108.085 40.1957 108.1 40.1997 108.115 40.2004H110.35C110.361 40.1953 110.369 40.1865 110.373 40.1757C110.378 40.1649 110.378 40.1528 110.374 40.1419Z" fill="#0076FC"/>
<path d="M43.1746 71.4074L39.5268 66.7647C39.5201 66.7564 39.5164 66.746 39.5164 66.7354C39.5164 66.7248 39.5201 66.7145 39.5268 66.7062L42.6602 62.6423C42.6678 62.6358 42.6731 62.6271 42.6753 62.6175C42.6775 62.6078 42.6766 62.5977 42.6727 62.5886C42.6687 62.5795 42.662 62.5719 42.6534 62.5668C42.6447 62.5618 42.6347 62.5595 42.6248 62.5604H40.9516C40.7982 62.562 40.6471 62.5981 40.5098 62.666C40.3725 62.7338 40.2527 62.8317 40.1594 62.9522L38.3857 65.2327C38.3808 65.2378 38.3748 65.2419 38.3682 65.2447C38.3616 65.2475 38.3545 65.2489 38.3473 65.2489C38.3401 65.2489 38.333 65.2475 38.3264 65.2447C38.3198 65.2419 38.3138 65.2378 38.3089 65.2327L36.2337 62.5955C36.2245 62.5842 36.2128 62.5751 36.1994 62.569C36.1861 62.5629 36.1715 62.56 36.1568 62.5604H33.9811C33.9718 62.5609 33.9627 62.5639 33.9548 62.569C33.9469 62.5741 33.9406 62.5811 33.9364 62.5895C33.9322 62.5978 33.9303 62.6071 33.9309 62.6163C33.9314 62.6256 33.9345 62.6346 33.9398 62.6423L37.1501 66.7354C37.1584 66.7441 37.163 66.7556 37.163 66.7676C37.163 66.7795 37.1584 66.791 37.1501 66.7997L33.6028 71.384C33.5975 71.3917 33.5945 71.4007 33.5939 71.41C33.5933 71.4193 33.5952 71.4285 33.5994 71.4369C33.6036 71.4452 33.6099 71.4522 33.6178 71.4573C33.6257 71.4624 33.6348 71.4654 33.6442 71.4659H35.3469C35.5018 71.4707 35.6557 71.4388 35.7957 71.3726C35.9356 71.3065 36.0574 71.2081 36.1509 71.0858L38.303 68.2966C38.3079 68.2915 38.3139 68.2874 38.3205 68.2846C38.3271 68.2819 38.3342 68.2804 38.3414 68.2804C38.3486 68.2804 38.3557 68.2819 38.3623 68.2846C38.3689 68.2874 38.3748 68.2915 38.3798 68.2966L40.8334 71.4425C40.8434 71.4547 40.856 71.4647 40.8703 71.4718C40.8846 71.4788 40.9002 71.4828 40.9161 71.4834H43.151C43.1579 71.4804 43.1642 71.4759 43.1692 71.4702C43.1743 71.4646 43.1781 71.458 43.1803 71.4508C43.1826 71.4435 43.1832 71.4359 43.1822 71.4285C43.1812 71.421 43.1786 71.4138 43.1746 71.4074Z" fill="#0076FC"/>
</svg>
