<svg width="77" height="165" viewBox="0 0 77 165" fill="none" xmlns="http://www.w3.org/2000/svg">
<path d="M9.58677 39.805L5.93894 35.1623C5.93223 35.154 5.92857 35.1436 5.92857 35.133C5.92857 35.1224 5.93223 35.1121 5.93894 35.1038L9.06649 31.0399C9.07554 31.0366 9.08335 31.0306 9.08887 31.0228C9.09438 31.0149 9.09733 31.0056 9.09733 30.9961C9.09733 30.9865 9.09438 30.9772 9.08887 30.9694C9.08335 30.9615 9.07554 30.9555 9.06649 30.9522H7.39334C7.23988 30.9538 7.0888 30.9898 6.95154 31.0577C6.81427 31.1256 6.69444 31.2235 6.60111 31.344L4.82745 33.6244C4.82249 33.6295 4.81652 33.6336 4.80992 33.6364C4.80331 33.6392 4.7962 33.6406 4.78902 33.6406C4.78184 33.6406 4.77473 33.6392 4.76813 33.6364C4.76152 33.6336 4.75556 33.6295 4.75059 33.6244L2.65177 30.9873C2.64146 30.9742 2.62782 30.964 2.61223 30.9579C2.59665 30.9517 2.57968 30.9497 2.56308 30.9522H0.387396C0.378004 30.9527 0.368912 30.9556 0.361045 30.9607C0.353178 30.9658 0.346816 30.9729 0.34261 30.9812C0.338404 30.9895 0.336505 30.9988 0.337102 31.0081C0.337699 31.0174 0.340773 31.0263 0.346011 31.0341L3.55633 35.1272C3.56465 35.1359 3.56928 35.1474 3.56928 35.1593C3.56928 35.1713 3.56465 35.1828 3.55633 35.1915L0.00901598 39.7758C0.00377797 39.7835 0.00070455 39.7925 0.000107463 39.8017C-0.000489624 39.811 0.00140899 39.8203 0.00561496 39.8286C0.00982093 39.8369 0.016183 39.844 0.02405 39.8491C0.0319169 39.8542 0.0410094 39.8571 0.0504011 39.8576H1.75311C1.90807 39.8648 2.0625 39.8351 2.20344 39.771C2.34438 39.7069 2.46772 39.6103 2.56308 39.4893L4.71512 36.7001C4.72009 36.695 4.72605 36.6909 4.73266 36.6881C4.73926 36.6853 4.74637 36.6839 4.75355 36.6839C4.76073 36.6839 4.76784 36.6853 4.77444 36.6881C4.78105 36.6909 4.78701 36.695 4.79198 36.7001L7.24554 39.8459C7.2556 39.8582 7.26819 39.8682 7.28247 39.8752C7.29674 39.8823 7.31236 39.8863 7.32831 39.8869H9.56311C9.571 39.884 9.57809 39.8794 9.58381 39.8733C9.58953 39.8672 9.59372 39.8599 9.59602 39.8519C9.59833 39.8439 9.59869 39.8355 9.59708 39.8274C9.59547 39.8192 9.59194 39.8115 9.58677 39.805Z" fill="#0076FC"/>
<path d="M43.1901 71.0704L39.5422 66.4277C39.5364 66.419 39.5333 66.4088 39.5333 66.3984C39.5333 66.388 39.5364 66.3778 39.5422 66.3692L42.6816 62.2761C42.6869 62.2684 42.6899 62.2594 42.6905 62.2501C42.6911 62.2408 42.6892 62.2316 42.685 62.2232C42.6808 62.2149 42.6745 62.2078 42.6666 62.2027C42.6587 62.1976 42.6496 62.1947 42.6402 62.1942H40.9966C40.8422 62.1949 40.6899 62.2305 40.5516 62.2984C40.4132 62.3664 40.2924 62.4647 40.1985 62.586L38.4248 64.8664C38.4199 64.8716 38.4139 64.8756 38.4073 64.8784C38.4007 64.8812 38.3936 64.8827 38.3864 64.8827C38.3792 64.8827 38.3721 64.8812 38.3655 64.8784C38.3589 64.8756 38.353 64.8716 38.348 64.8664L36.2669 62.2527C36.2577 62.2413 36.246 62.2323 36.2327 62.2262C36.2193 62.2201 36.2047 62.2171 36.19 62.2176H34.0144C34.005 62.2181 33.9959 62.221 33.988 62.2261C33.9801 62.2312 33.9738 62.2383 33.9696 62.2466C33.9654 62.2549 33.9635 62.2642 33.9641 62.2735C33.9647 62.2828 33.9677 62.2917 33.973 62.2995L37.1833 66.3926C37.1916 66.4013 37.1962 66.4128 37.1962 66.4247C37.1962 66.4367 37.1916 66.4482 37.1833 66.4569L33.636 71.0412C33.6307 71.0489 33.6277 71.0579 33.6271 71.0671C33.6265 71.0764 33.6284 71.0857 33.6326 71.094C33.6368 71.1023 33.6431 71.1094 33.651 71.1145C33.6589 71.1196 33.668 71.1225 33.6774 71.123H35.386C35.54 71.1247 35.6922 71.09 35.83 71.0219C35.9677 70.9537 36.0871 70.8541 36.1782 70.7313L38.3303 67.9421C38.3352 67.937 38.3412 67.9329 38.3478 67.9301C38.3544 67.9273 38.3615 67.9259 38.3687 67.9259C38.3759 67.9259 38.383 67.9273 38.3896 67.9301C38.3962 67.9329 38.4021 67.937 38.4071 67.9421L40.8666 71.088C40.8755 71.1 40.887 71.11 40.9003 71.1171C40.9136 71.1242 40.9283 71.1282 40.9434 71.1289H43.1782C43.1868 71.122 43.1926 71.1124 43.1948 71.1018C43.197 71.0911 43.1953 71.08 43.1901 71.0704Z" fill="#0076FC"/>
<path d="M9.58959 102.336L5.94177 97.6931C5.93505 97.6848 5.93139 97.6745 5.93139 97.6639C5.93139 97.6533 5.93505 97.643 5.94177 97.6347L9.07523 93.5416C9.07536 93.5334 9.07332 93.5253 9.06932 93.5182H7.39617C7.24271 93.5197 7.09163 93.5558 6.95436 93.6237C6.8171 93.6915 6.69726 93.7894 6.60394 93.9099L4.83028 96.1904C4.82531 96.1955 4.81934 96.1996 4.81274 96.2024C4.80614 96.2052 4.79903 96.2066 4.79185 96.2066C4.78467 96.2066 4.77756 96.2052 4.77095 96.2024C4.76435 96.1996 4.75838 96.1955 4.75342 96.1904L2.65459 93.5182C2.64542 93.5068 2.63369 93.4977 2.62035 93.4916C2.60701 93.4856 2.59242 93.4826 2.57773 93.4831H0.402044C0.392652 93.4836 0.383564 93.4865 0.375697 93.4916C0.36783 93.4967 0.361468 93.5038 0.357262 93.5121C0.353056 93.5204 0.351153 93.5297 0.35175 93.539C0.352347 93.5483 0.355421 93.5572 0.360659 93.5649L3.57098 97.658C3.57929 97.6667 3.58393 97.6782 3.58393 97.6902C3.58393 97.7022 3.57929 97.7137 3.57098 97.7224L0.0236642 102.307C0.0184262 102.314 0.0153528 102.323 0.0147557 102.333C0.0141586 102.342 0.0160618 102.351 0.0202677 102.359C0.0244737 102.368 0.0308313 102.375 0.0386982 102.38C0.0465652 102.385 0.0556577 102.388 0.0650494 102.389H1.76776C1.92278 102.391 2.07616 102.357 2.21503 102.289C2.35391 102.221 2.47423 102.12 2.56591 101.997L4.71795 99.2076C4.72291 99.2025 4.72888 99.1984 4.73548 99.1956C4.74209 99.1928 4.74919 99.1914 4.75638 99.1914C4.76356 99.1914 4.77066 99.1928 4.77727 99.1956C4.78387 99.1984 4.78983 99.2025 4.7948 99.2076L7.24836 102.353C7.25843 102.366 7.27102 102.376 7.28529 102.383C7.29956 102.39 7.31519 102.394 7.33113 102.394H9.56594C9.57573 102.388 9.58332 102.38 9.58758 102.369C9.59184 102.358 9.59255 102.347 9.58959 102.336Z" fill="#0076FC"/>
<path d="M9.58769 133.601L5.93987 128.959C5.93315 128.95 5.92949 128.94 5.92949 128.929C5.92949 128.919 5.93315 128.908 5.93987 128.9L9.07332 124.836C9.08088 124.83 9.08616 124.821 9.08839 124.811C9.09062 124.802 9.0897 124.792 9.08576 124.783C9.08181 124.773 9.07505 124.766 9.06644 124.761C9.05783 124.756 9.04782 124.753 9.03785 124.754H7.36471C7.21125 124.756 7.06016 124.792 6.9229 124.86C6.78563 124.928 6.6658 125.026 6.57247 125.146L4.79881 127.427C4.79385 127.432 4.78788 127.436 4.78127 127.439C4.77467 127.441 4.76756 127.443 4.76038 127.443C4.7532 127.443 4.7461 127.441 4.73949 127.439C4.73289 127.436 4.72692 127.432 4.72196 127.427L2.64678 124.789C2.6376 124.778 2.62588 124.769 2.61253 124.763C2.59919 124.757 2.5846 124.754 2.56992 124.754H0.394232C0.38484 124.755 0.375748 124.758 0.367881 124.763C0.360014 124.768 0.353652 124.775 0.349446 124.783C0.34524 124.792 0.343341 124.801 0.343938 124.81C0.344535 124.82 0.347609 124.828 0.352847 124.836L3.56317 128.929C3.57148 128.938 3.57612 128.95 3.57612 128.961C3.57612 128.973 3.57148 128.985 3.56317 128.994L0.0158519 133.578C0.0106139 133.586 0.00754049 133.595 0.0069434 133.604C0.00634631 133.613 0.00824492 133.622 0.0124509 133.631C0.0166569 133.639 0.023019 133.646 0.0308859 133.651C0.0387528 133.656 0.0478453 133.659 0.0572371 133.66H1.75995C1.91493 133.665 2.06884 133.633 2.20874 133.567C2.34865 133.5 2.47048 133.402 2.564 133.28L4.71604 130.491C4.72101 130.485 4.72697 130.481 4.73358 130.479C4.74018 130.476 4.74729 130.474 4.75447 130.474C4.76165 130.474 4.76876 130.476 4.77537 130.479C4.78197 130.481 4.78793 130.485 4.7929 130.491L7.24646 133.636C7.25652 133.649 7.26912 133.659 7.28339 133.666C7.29766 133.673 7.31328 133.677 7.32923 133.677H9.56404C9.57101 133.674 9.57725 133.67 9.58231 133.664C9.58738 133.659 9.59117 133.652 9.59341 133.645C9.59565 133.637 9.5963 133.63 9.59531 133.622C9.59433 133.615 9.59173 133.608 9.58769 133.601Z" fill="#0076FC"/>
<path d="M9.58677 8.85301L5.93894 4.21026C5.93223 4.20196 5.92857 4.19165 5.92857 4.18102C5.92857 4.17039 5.93223 4.16009 5.93894 4.15179L9.06649 0.0820673C9.07404 0.0755671 9.07932 0.0668629 9.08155 0.0572099C9.08378 0.0475569 9.08286 0.037457 9.07891 0.0283553C9.07497 0.0192536 9.06821 0.0116162 9.0596 0.00655821C9.05099 0.00150021 9.04099 -0.000721013 9.03102 0.000205559H7.35787C7.20441 0.00175491 7.05332 0.0378332 6.91606 0.105711C6.7788 0.17359 6.65896 0.271485 6.56563 0.391973L4.79198 2.67241C4.78701 2.67754 4.78105 2.68163 4.77444 2.68442C4.76784 2.6872 4.76073 2.68864 4.75355 2.68864C4.74637 2.68864 4.73926 2.6872 4.73266 2.68442C4.72605 2.68163 4.72009 2.67754 4.71512 2.67241L2.63994 0.0352879C2.63076 0.0239381 2.61904 0.0148607 2.6057 0.00877093C2.59236 0.00268121 2.57777 -0.000251888 2.56308 0.000205559H0.387396C0.378004 0.000696396 0.368912 0.00363796 0.361045 0.00873524C0.353178 0.0138325 0.346816 0.0209012 0.34261 0.0292208C0.338404 0.0375404 0.336505 0.0468118 0.337102 0.0560946C0.337699 0.0653775 0.340773 0.0743419 0.346011 0.0820673L3.55633 4.17517C3.56465 4.18386 3.56928 4.19537 3.56928 4.20733C3.56928 4.21929 3.56465 4.23081 3.55633 4.23949L0.00901598 8.82377C0.00377797 8.8315 0.00070455 8.84046 0.000107463 8.84974C-0.000489624 8.85903 0.00140899 8.8683 0.00561496 8.87662C0.00982093 8.88494 0.016183 8.89201 0.02405 8.8971C0.0319169 8.9022 0.0410094 8.90514 0.0504011 8.90563H1.75311C1.90813 8.9082 2.06151 8.87397 2.20038 8.8058C2.33926 8.73764 2.45958 8.63752 2.55126 8.51387L4.7033 5.7247C4.70826 5.71957 4.71423 5.71549 4.72083 5.7127C4.72744 5.70991 4.73454 5.70848 4.74172 5.70848C4.7489 5.70848 4.75601 5.70991 4.76262 5.7127C4.76922 5.71549 4.77519 5.71957 4.78015 5.7247L7.23371 8.87055C7.24378 8.8828 7.25637 8.89279 7.27064 8.89984C7.28491 8.9069 7.30054 8.91087 7.31648 8.91149H9.55129C9.56326 8.90749 9.5734 8.89941 9.5799 8.8887C9.5864 8.87799 9.58883 8.86533 9.58677 8.85301Z" fill="#0076FC"/>
<path d="M43.1901 164.855L39.5422 160.212C39.5364 160.204 39.5333 160.194 39.5333 160.183C39.5333 160.173 39.5364 160.163 39.5422 160.154L42.6816 156.09C42.6869 156.082 42.6899 156.073 42.6905 156.064C42.6911 156.055 42.6892 156.046 42.685 156.037C42.6808 156.029 42.6745 156.022 42.6666 156.017C42.6587 156.012 42.6496 156.009 42.6402 156.008H40.9966C40.8422 156.009 40.6899 156.044 40.5516 156.112C40.4132 156.18 40.2924 156.279 40.1985 156.4L38.4248 158.68C38.4199 158.686 38.4139 158.69 38.4073 158.692C38.4007 158.695 38.3936 158.697 38.3864 158.697C38.3792 158.697 38.3721 158.695 38.3655 158.692C38.3589 158.69 38.353 158.686 38.348 158.68L36.2669 156.049C36.2577 156.038 36.246 156.029 36.2327 156.023C36.2193 156.017 36.2047 156.014 36.19 156.014H34.0144C34.005 156.015 33.9959 156.017 33.988 156.023C33.9801 156.028 33.9738 156.035 33.9696 156.043C33.9654 156.051 33.9635 156.061 33.9641 156.07C33.9647 156.079 33.9677 156.088 33.973 156.096L37.1833 160.189C37.1916 160.198 37.1962 160.209 37.1962 160.221C37.1962 160.233 37.1916 160.245 37.1833 160.253L33.636 164.838C33.6307 164.845 33.6277 164.854 33.6271 164.864C33.6265 164.873 33.6284 164.882 33.6326 164.89C33.6368 164.899 33.6431 164.906 33.651 164.911C33.6589 164.916 33.668 164.919 33.6774 164.919H35.386C35.54 164.921 35.6922 164.886 35.83 164.818C35.9677 164.75 36.0871 164.651 36.1782 164.528L38.3303 161.739C38.3352 161.733 38.3412 161.729 38.3478 161.727C38.3544 161.724 38.3615 161.722 38.3687 161.722C38.3759 161.722 38.383 161.724 38.3896 161.727C38.3962 161.729 38.4021 161.733 38.4071 161.739L40.8666 164.884C40.8755 164.896 40.887 164.906 40.9003 164.914C40.9136 164.921 40.9283 164.925 40.9434 164.925H43.1782C43.1841 164.922 43.1891 164.917 43.193 164.912C43.1968 164.906 43.1994 164.9 43.2005 164.893C43.2016 164.886 43.2013 164.879 43.1995 164.873C43.1977 164.866 43.1945 164.86 43.1901 164.855Z" fill="#0076FC"/>
<path d="M76.7869 164.855L73.139 160.212C73.1332 160.204 73.1301 160.194 73.1301 160.183C73.1301 160.173 73.1332 160.163 73.139 160.154L76.2784 156.09C76.2836 156.082 76.2867 156.073 76.2873 156.064C76.2879 156.055 76.286 156.046 76.2818 156.037C76.2776 156.029 76.2712 156.022 76.2634 156.017C76.2555 156.012 76.2464 156.009 76.237 156.008H74.5698C74.4155 156.01 74.2635 156.046 74.1253 156.114C73.9871 156.181 73.8662 156.279 73.7716 156.4L71.998 158.68C71.993 158.686 71.9871 158.69 71.9804 158.692C71.9738 158.695 71.9667 158.697 71.9596 158.697C71.9524 158.697 71.9453 158.695 71.9387 158.692C71.9321 158.69 71.9261 158.686 71.9211 158.68L69.8459 156.043C69.8368 156.032 69.825 156.023 69.8117 156.017C69.7984 156.011 69.7838 156.008 69.7691 156.008H67.5993C67.5899 156.009 67.5808 156.012 67.573 156.017C67.5651 156.022 67.5587 156.029 67.5545 156.037C67.5503 156.046 67.5484 156.055 67.549 156.064C67.5496 156.073 67.5527 156.082 67.5579 156.09L70.7682 160.183C70.7766 160.192 70.7812 160.203 70.7812 160.215C70.7812 160.227 70.7766 160.239 70.7682 160.248L67.2209 164.832C67.2157 164.84 67.2126 164.848 67.212 164.858C67.2114 164.867 67.2133 164.876 67.2175 164.885C67.2217 164.893 67.2281 164.9 67.236 164.905C67.2438 164.91 67.2529 164.913 67.2623 164.914H68.9709C69.125 164.915 69.2772 164.881 69.4149 164.812C69.5527 164.744 69.6721 164.645 69.7632 164.522L71.9152 161.733C71.9202 161.728 71.9261 161.724 71.9328 161.721C71.9394 161.718 71.9465 161.717 71.9536 161.717C71.9608 161.717 71.9679 161.718 71.9745 161.721C71.9811 161.724 71.9871 161.728 71.9921 161.733L74.4515 164.879C74.4604 164.891 74.4719 164.901 74.4852 164.908C74.4986 164.915 74.5133 164.919 74.5284 164.92H76.7632C76.7692 164.917 76.7746 164.913 76.779 164.909C76.7835 164.904 76.787 164.898 76.7892 164.892C76.7914 164.886 76.7923 164.88 76.7919 164.874C76.7915 164.867 76.7898 164.861 76.7869 164.855Z" fill="#0076FC"/>
</svg>
