<svg width="77" height="119" viewBox="0 0 77 119" fill="none" xmlns="http://www.w3.org/2000/svg">
<path d="M67.2052 79.1203L70.853 83.763C70.8598 83.7713 70.8634 83.7816 70.8634 83.7923C70.8634 83.8029 70.8598 83.8132 70.853 83.8215L67.7255 87.8854C67.7164 87.8887 67.7086 87.8947 67.7031 87.9025C67.6976 87.9104 67.6947 87.9197 67.6947 87.9292C67.6947 87.9388 67.6976 87.9481 67.7031 87.9559C67.7086 87.9638 67.7164 87.9698 67.7255 87.9731L69.3987 87.9731C69.5521 87.9715 69.7032 87.9355 69.8405 87.8676C69.9777 87.7997 70.0976 87.7018 70.1909 87.5813L71.9645 85.3009C71.9695 85.2957 71.9755 85.2917 71.9821 85.2889C71.9887 85.2861 71.9958 85.2846 72.003 85.2846C72.0102 85.2846 72.0173 85.2861 72.0239 85.2889C72.0305 85.2917 72.0364 85.2957 72.0414 85.3009L74.1402 87.938C74.1505 87.9511 74.1642 87.9613 74.1798 87.9674C74.1953 87.9736 74.2123 87.9755 74.2289 87.9731L76.4046 87.9731C76.414 87.9726 76.4231 87.9697 76.4309 87.9646C76.4388 87.9595 76.4452 87.9524 76.4494 87.9441C76.4536 87.9358 76.4555 87.9265 76.4549 87.9172C76.4543 87.9079 76.4512 87.899 76.446 87.8912L73.2357 83.7981C73.2273 83.7894 73.2227 83.7779 73.2227 83.766C73.2227 83.754 73.2273 83.7425 73.2357 83.7338L76.783 79.1495C76.7882 79.1418 76.7913 79.1328 76.7919 79.1236C76.7925 79.1143 76.7906 79.105 76.7864 79.0967C76.7822 79.0884 76.7758 79.0813 76.7679 79.0762C76.7601 79.0711 76.751 79.0681 76.7416 79.0677L75.0389 79.0677C74.8839 79.0605 74.7295 79.0902 74.5885 79.1543C74.4476 79.2184 74.3243 79.315 74.2289 79.436L72.0769 82.2252C72.0719 82.2303 72.0659 82.2344 72.0593 82.2372C72.0527 82.24 72.0456 82.2414 72.0384 82.2414C72.0313 82.2414 72.0242 82.24 72.0175 82.2372C72.0109 82.2344 72.005 82.2303 72 82.2252L69.5465 79.0794C69.5364 79.0671 69.5238 79.0571 69.5095 79.0501C69.4953 79.043 69.4796 79.039 69.4637 79.0384L67.2289 79.0384C67.221 79.0413 67.2139 79.0459 67.2082 79.052C67.2025 79.0581 67.1983 79.0654 67.196 79.0734C67.1937 79.0814 67.1933 79.0898 67.1949 79.0979C67.1965 79.1061 67.2 79.1137 67.2052 79.1203Z" fill="#287AF3"/>
<path d="M33.6019 47.8548L37.2497 52.4975C37.2556 52.5062 37.2587 52.5163 37.2587 52.5268C37.2587 52.5372 37.2556 52.5473 37.2497 52.556L34.1104 56.6491C34.1051 56.6568 34.1021 56.6658 34.1015 56.6751C34.1009 56.6843 34.1028 56.6936 34.107 56.7019C34.1112 56.7103 34.1175 56.7173 34.1254 56.7224C34.1333 56.7275 34.1424 56.7305 34.1518 56.731L35.7953 56.731C35.9498 56.7303 36.1021 56.6946 36.2404 56.6267C36.3788 56.5588 36.4996 56.4605 36.5935 56.3392L38.3672 54.0587C38.3721 54.0536 38.3781 54.0495 38.3847 54.0467C38.3913 54.044 38.3984 54.0425 38.4056 54.0425C38.4128 54.0425 38.4199 54.044 38.4265 54.0467C38.4331 54.0495 38.439 54.0536 38.444 54.0587L40.5251 56.6725C40.5343 56.6838 40.546 56.6929 40.5593 56.699C40.5727 56.7051 40.5873 56.708 40.602 56.7076L42.7776 56.7076C42.787 56.7071 42.7961 56.7041 42.804 56.699C42.8119 56.6939 42.8182 56.6869 42.8224 56.6785C42.8266 56.6702 42.8285 56.661 42.8279 56.6517C42.8273 56.6424 42.8243 56.6334 42.819 56.6257L39.6087 52.5326C39.6004 52.5239 39.5958 52.5124 39.5958 52.5004C39.5958 52.4885 39.6004 52.477 39.6087 52.4683L43.156 47.884C43.1613 47.8763 43.1643 47.8673 43.1649 47.858C43.1655 47.8487 43.1636 47.8395 43.1594 47.8312C43.1552 47.8228 43.1489 47.8158 43.141 47.8107C43.1331 47.8056 43.124 47.8026 43.1146 47.8021L41.406 47.8021C41.252 47.8005 41.0998 47.8352 40.962 47.9033C40.8243 47.9714 40.7049 48.0711 40.6138 48.1939L38.4617 50.9831C38.4568 50.9882 38.4508 50.9923 38.4442 50.9951C38.4376 50.9979 38.4305 50.9993 38.4233 50.9993C38.4161 50.9993 38.409 50.9979 38.4024 50.9951C38.3958 50.9923 38.3899 50.9882 38.3849 50.9831L35.9254 47.8372C35.9165 47.8251 35.905 47.8152 35.8917 47.8081C35.8784 47.801 35.8636 47.797 35.8486 47.7963L33.6137 47.7963C33.6052 47.8032 33.5993 47.8127 33.5972 47.8234C33.595 47.8341 33.5967 47.8452 33.6019 47.8548Z" fill="#287AF3"/>
<path d="M67.2024 16.5895L70.8502 21.2323C70.8569 21.2406 70.8606 21.2509 70.8606 21.2615C70.8606 21.2722 70.8569 21.2825 70.8502 21.2908L67.7168 25.3839C67.7166 25.392 67.7187 25.4001 67.7227 25.4073L69.3958 25.4073C69.5493 25.4057 69.7004 25.3696 69.8376 25.3017C69.9749 25.2339 70.0947 25.136 70.1881 25.0155L71.9617 22.735C71.9667 22.7299 71.9726 22.7258 71.9793 22.723C71.9859 22.7203 71.993 22.7188 72.0001 22.7188C72.0073 22.7188 72.0144 22.7203 72.021 22.723C72.0276 22.7258 72.0336 22.7299 72.0386 22.735L74.1374 25.4073C74.1466 25.4186 74.1583 25.4277 74.1716 25.4338C74.185 25.4399 74.1996 25.4428 74.2143 25.4423L76.3899 25.4423C76.3993 25.4418 76.4084 25.4389 76.4163 25.4338C76.4242 25.4287 76.4305 25.4216 76.4347 25.4133C76.4389 25.405 76.4408 25.3957 76.4402 25.3864C76.4396 25.3772 76.4366 25.3682 76.4313 25.3605L73.221 21.2674C73.2127 21.2587 73.2081 21.2472 73.2081 21.2352C73.2081 21.2232 73.2127 21.2117 73.221 21.203L76.7683 16.6188C76.7736 16.611 76.7766 16.6021 76.7772 16.5928C76.7778 16.5835 76.7759 16.5742 76.7717 16.5659C76.7675 16.5576 76.7612 16.5505 76.7533 16.5454C76.7454 16.5403 76.7363 16.5374 76.7269 16.5369L75.0242 16.5369C74.8692 16.5343 74.7158 16.5686 74.577 16.6367C74.4381 16.7049 74.3178 16.805 74.2261 16.9287L72.074 19.7178C72.0691 19.723 72.0631 19.727 72.0565 19.7298C72.0499 19.7326 72.0428 19.7341 72.0356 19.7341C72.0284 19.7341 72.0213 19.7326 72.0147 19.7298C72.0081 19.727 72.0022 19.723 71.9972 19.7178L69.5436 16.572C69.5336 16.5597 69.521 16.5498 69.5067 16.5427C69.4924 16.5356 69.4768 16.5317 69.4609 16.5311L67.2261 16.5311C67.2163 16.537 67.2087 16.5459 67.2044 16.5564C67.2001 16.5669 67.1994 16.5786 67.2024 16.5895Z" fill="#287AF3"/>
<path d="M67.2052 110.072L70.853 114.715C70.8598 114.723 70.8634 114.734 70.8634 114.744C70.8634 114.755 70.8598 114.765 70.853 114.774L67.7255 118.843C67.7179 118.85 67.7127 118.858 67.7104 118.868C67.7082 118.878 67.7091 118.888 67.7131 118.897C67.717 118.906 67.7238 118.914 67.7324 118.919C67.741 118.924 67.751 118.926 67.761 118.925L69.4341 118.925C69.5876 118.924 69.7387 118.887 69.8759 118.82C70.0132 118.752 70.133 118.654 70.2264 118.533L72 116.253C72.005 116.248 72.0109 116.244 72.0175 116.241C72.0242 116.238 72.0313 116.237 72.0384 116.237C72.0456 116.237 72.0527 116.238 72.0593 116.241C72.0659 116.244 72.0719 116.248 72.0769 116.253L74.1521 118.89C74.1612 118.901 74.173 118.91 74.1863 118.917C74.1996 118.923 74.2142 118.926 74.2289 118.925L76.4046 118.925C76.414 118.925 76.4231 118.922 76.4309 118.917C76.4388 118.911 76.4452 118.904 76.4494 118.896C76.4536 118.888 76.4555 118.878 76.4549 118.869C76.4543 118.86 76.4512 118.851 76.446 118.843L73.2357 114.75C73.2273 114.741 73.2227 114.73 73.2227 114.718C73.2227 114.706 73.2273 114.694 73.2357 114.686L76.783 110.102C76.7882 110.094 76.7913 110.085 76.7919 110.076C76.7925 110.066 76.7906 110.057 76.7864 110.049C76.7822 110.04 76.7758 110.033 76.7679 110.028C76.7601 110.023 76.751 110.02 76.7416 110.02L75.0389 110.02C74.8839 110.017 74.7305 110.051 74.5916 110.119C74.4527 110.188 74.3324 110.288 74.2407 110.411L72.0887 113.201C72.0837 113.206 72.0778 113.21 72.0712 113.213C72.0646 113.215 72.0575 113.217 72.0503 113.217C72.0431 113.217 72.036 113.215 72.0294 113.213C72.0228 113.21 72.0168 113.206 72.0118 113.201L69.5583 110.055C69.5482 110.042 69.5356 110.033 69.5214 110.025C69.5071 110.018 69.4915 110.014 69.4755 110.014L67.2407 110.014C67.2287 110.018 67.2186 110.026 67.2121 110.037C67.2056 110.047 67.2032 110.06 67.2052 110.072Z" fill="#287AF3"/>
</svg>
