<svg width="24" height="24" viewBox="0 0 24 24" fill="none" xmlns="http://www.w3.org/2000/svg">
<path d="M12.6093 19.865C8.9713 19.865 5.68653 17.7459 4.80353 13.9383C4.78587 13.8521 4.83885 13.7832 4.92715 13.7832H23.8764C23.947 13.7832 24 13.7315 24 13.6626V12.1637C24 5.46159 19.6027 0 12.3267 0C4.92715 0 0 5.59943 0 12.0603C0 17.5564 4.00883 24 12.3797 24C16.8653 24 20.3444 21.9842 22.6402 19.2103C22.6932 19.1586 22.6755 19.0725 22.6225 19.0208L20.7506 17.6942C20.0088 17.1601 18.9845 17.1945 18.2958 17.7803C16.6711 19.1586 14.7991 19.865 12.6093 19.865ZM12.3974 4.29002C16.3355 4.29002 18.8433 7.44293 19.2318 9.82053C19.2495 9.88945 19.1788 9.95836 19.1082 9.95836H4.90949C4.82119 9.95836 4.76821 9.88945 4.78587 9.8033C5.70419 6.09907 9.1479 4.29002 12.3974 4.29002Z" fill="#0076FC"/>
</svg>
