<svg width="24" height="24" viewBox="0 0 24 24" fill="none" xmlns="http://www.w3.org/2000/svg">
<path d="M6.5904 2.70708C5.8392 2.29188 4.9572 2.30148 4.2108 2.71308L12.9588 10.7831L15.8976 7.84428L6.5904 2.70708Z" fill="black"/>
<path d="M3.336 3.53848C3.1224 3.88768 3 4.28728 3 4.71088V19.2861C3 19.6965 3.1116 20.0877 3.3132 20.4297L12.1104 11.6325L3.336 3.53848Z" fill="black"/>
<path d="M19.794 9.99448L16.9908 8.44768L13.8408 11.5965L17.7012 15.1569L19.7952 14.0013C20.5488 13.5837 21 12.8349 21 11.9973C20.9988 11.1597 20.5488 10.4109 19.794 9.99448Z" fill="black"/>
<path d="M12.9924 12.4461L4.1712 21.2673C4.554 21.4857 4.974 21.6009 5.3964 21.6009C5.8044 21.6009 6.2148 21.4977 6.5904 21.2901L16.5948 15.7689L12.9924 12.4461Z" fill="black"/>
</svg>
