<svg width="158" height="56" viewBox="0 0 158 56" fill="none" xmlns="http://www.w3.org/2000/svg">
<path d="M0.5 14C0.5 6.26801 6.76801 0 14.5 0H143.5C151.232 0 157.5 6.26801 157.5 14V42C157.5 49.732 151.232 56 143.5 56H14.5C6.76801 56 0.5 49.732 0.5 42V14Z" fill="white"/>
<path d="M26.9262 33.2609C26.9507 33.2406 26.9581 33.2069 26.9452 33.1778C25.2474 29.5534 23.1309 26.1381 20.6385 23.0009C20.6385 23.0009 18.6573 24.8705 18.7977 26.7469C18.8652 27.6212 19.2783 28.4333 19.9464 29.0053C21.6746 30.6812 25.8596 32.7965 26.8333 33.275C26.8638 33.2919 26.9025 33.2858 26.9269 33.2615L26.9262 33.2609ZM26.2796 34.6951C26.2732 34.6766 26.2611 34.6606 26.245 34.6492C26.229 34.6379 26.2098 34.6317 26.1901 34.6317V34.6303L19.2218 34.872C19.977 36.2124 21.2573 37.2532 22.5757 36.934C23.4903 36.7065 25.5638 35.2682 26.2396 34.7829V34.7809C26.2918 34.7336 26.2735 34.6958 26.2735 34.6958L26.2796 34.6951ZM26.3848 34.0722C26.4187 34.0182 26.3577 33.9709 26.3577 33.9709L26.3583 33.9682C23.3051 31.9164 17.3668 28.7623 17.3668 28.7623C17.0457 29.7507 17.1135 30.8235 17.5564 31.7642C17.9992 32.705 18.7843 33.4436 19.7531 33.8312C20.1786 33.999 20.6286 34.0974 21.0857 34.1228C21.1901 34.143 25.23 34.1248 26.3115 34.1201C26.342 34.1167 26.3692 34.0985 26.3834 34.0715L26.3848 34.0722ZM26.8475 20.0081C26.5436 20.0351 25.7253 20.22 25.7253 20.22C24.6444 20.4941 23.7827 21.3033 23.4441 22.3596C23.2529 23.0805 23.2562 23.8388 23.4536 24.558C24.0691 27.2754 27.0999 31.7422 27.75 32.6791C27.7961 32.7249 27.8341 32.7081 27.8341 32.7081C27.8734 32.6986 27.9006 32.6622 27.8985 32.6217H27.8999C28.9014 22.6506 26.8482 20 26.8482 20L26.8475 20.0081ZM29.1531 32.7054C29.1911 32.7209 29.2345 32.7047 29.2535 32.6683H29.2542C29.9232 31.7058 32.9351 27.2639 33.5471 24.558C33.7303 23.8371 33.7344 23.0825 33.5586 22.3596C33.3898 21.8374 33.0897 21.3667 32.6867 20.9922C32.2836 20.6178 31.7911 20.352 31.2558 20.22C31.2558 20.22 30.7232 20.0864 30.1586 20.0074C30.1586 20.0074 28.0933 22.6519 29.0975 32.6291H29.0988C29.0995 32.6629 29.1205 32.6932 29.1531 32.7047V32.7054ZM30.8019 34.6378C30.8019 34.6378 30.734 34.6459 30.7232 34.6904C30.715 34.7242 30.7252 34.7606 30.7503 34.7849C31.4152 35.2608 33.4372 36.6748 34.4142 36.94C34.4142 36.94 36.2157 37.5502 37.7796 34.8774L30.8032 34.6344L30.8019 34.6378ZM39.636 28.7468C39.636 28.7468 33.7127 31.9083 30.6492 33.9642C30.6338 33.9756 30.6223 33.9914 30.6161 34.0095C30.6099 34.0275 30.6094 34.047 30.6146 34.0654C30.6146 34.0654 30.6438 34.1174 30.6865 34.1174V34.1187L36.0372 34.1052C36.4486 34.073 36.8529 33.9802 37.2368 33.8299C38.2376 33.4397 39.043 32.673 39.48 31.6956C39.89 30.7639 39.9455 29.7155 39.636 28.7461V28.7468ZM30.0894 33.2683C30.1166 33.2885 30.1539 33.2912 30.1844 33.275C31.1818 32.7796 35.3363 30.6785 37.0563 29.0113C37.7243 28.435 38.1368 27.6198 38.2044 26.7428C38.3299 24.8023 36.3724 23.0069 36.3724 23.0069C33.885 26.1359 31.772 29.5422 30.0759 33.1569H30.0779C30.0596 33.194 30.067 33.2379 30.0969 33.2676" fill="black"/>
<path d="M48.66 21L50.532 15.24H51.736L53.608 21H52.74L51.016 15.744H51.232L49.528 21H48.66ZM49.632 19.7V18.916H52.64V19.7H49.632ZM56.6151 21L54.7431 15.24H55.6111L57.2071 20.156L58.8231 15.24H59.6911L57.8191 21H56.6151ZM60.8319 21L62.7039 15.24H63.9079L65.7799 21H64.9119L63.1879 15.744H63.4039L61.6999 21H60.8319ZM61.8039 19.7V18.916H64.8119V19.7H61.8039ZM68.0775 21V15.24H68.9135V21H68.0775ZM71.6947 21V15.24H72.5307V20.212H75.1387V21H71.6947ZM76.9178 21L78.7898 15.24H79.9938L81.8658 21H80.9978L79.2738 15.744H79.4898L77.7858 21H76.9178ZM77.8898 19.7V18.916H80.8978V19.7H77.8898ZM84.0834 21V15.24H86.3474C86.7128 15.24 87.0194 15.3147 87.2674 15.464C87.5154 15.6133 87.7021 15.8067 87.8274 16.044C87.9528 16.2787 88.0154 16.5267 88.0154 16.788C88.0154 17.1053 87.9368 17.3773 87.7794 17.604C87.6248 17.8307 87.4154 17.9853 87.1514 18.068L87.1434 17.872C87.5114 17.9627 87.7941 18.14 87.9914 18.404C88.1888 18.6653 88.2874 18.9707 88.2874 19.32C88.2874 19.6587 88.2194 19.9533 88.0834 20.204C87.9501 20.4547 87.7541 20.6507 87.4954 20.792C87.2394 20.9307 86.9288 21 86.5634 21H84.0834ZM84.9314 20.204H86.4354C86.6248 20.204 86.7941 20.168 86.9434 20.096C87.0954 20.024 87.2141 19.9213 87.2994 19.788C87.3874 19.652 87.4314 19.4907 87.4314 19.304C87.4314 19.1307 87.3928 18.9747 87.3154 18.836C87.2408 18.6947 87.1314 18.584 86.9874 18.504C86.8461 18.4213 86.6794 18.38 86.4874 18.38H84.9314V20.204ZM84.9314 17.592H86.3354C86.4901 17.592 86.6288 17.5613 86.7514 17.5C86.8768 17.436 86.9754 17.3453 87.0474 17.228C87.1221 17.108 87.1594 16.964 87.1594 16.796C87.1594 16.572 87.0848 16.388 86.9354 16.244C86.7861 16.1 86.5861 16.028 86.3354 16.028H84.9314V17.592ZM90.6634 21V15.24H91.4994V20.212H94.1074V21H90.6634ZM96.2866 21V15.24H99.9666V16.028H97.1226V17.644H99.4866V18.432H97.1226V20.212H99.9666V21H96.2866ZM107.933 21.12C107.357 21.12 106.866 20.9947 106.461 20.744C106.055 20.4907 105.745 20.1387 105.529 19.688C105.315 19.2373 105.209 18.7147 105.209 18.12C105.209 17.5253 105.315 17.0027 105.529 16.552C105.745 16.1013 106.055 15.7507 106.461 15.5C106.866 15.2467 107.357 15.12 107.933 15.12C108.506 15.12 108.995 15.2467 109.401 15.5C109.809 15.7507 110.119 16.1013 110.333 16.552C110.546 17.0027 110.653 17.5253 110.653 18.12C110.653 18.7147 110.546 19.2373 110.333 19.688C110.119 20.1387 109.809 20.4907 109.401 20.744C108.995 20.9947 108.506 21.12 107.933 21.12ZM107.933 20.324C108.341 20.3293 108.679 20.24 108.949 20.056C109.221 19.8693 109.425 19.6107 109.561 19.28C109.697 18.9467 109.765 18.56 109.765 18.12C109.765 17.68 109.697 17.296 109.561 16.968C109.425 16.6373 109.221 16.38 108.949 16.196C108.679 16.012 108.341 15.9187 107.933 15.916C107.525 15.9107 107.185 16 106.913 16.184C106.643 16.368 106.441 16.6267 106.305 16.96C106.169 17.2933 106.099 17.68 106.097 18.12C106.094 18.56 106.161 18.9453 106.297 19.276C106.433 19.604 106.637 19.86 106.909 20.044C107.183 20.228 107.525 20.3213 107.933 20.324ZM112.951 21V15.24H113.799L116.635 19.52V15.24H117.483V21H116.635L113.799 16.716V21H112.951ZM124.637 21V16.028H122.721V15.24H127.389V16.028H125.473V21H124.637ZM129.529 21V15.24H130.365V17.724H133.245V15.24H134.085V21H133.245V18.512H130.365V21H129.529ZM136.708 21V15.24H140.388V16.028H137.544V17.644H139.908V18.432H137.544V20.212H140.388V21H136.708Z" fill="black"/>
<path d="M48.78 39L52.154 28.92H53.89L57.264 39H55.969L52.812 29.648H53.204L50.075 39H48.78ZM50.404 36.641V35.472H55.64V36.641H50.404ZM61.9891 39.21C61.2798 39.21 60.6824 39.035 60.1971 38.685C59.7118 38.3303 59.3431 37.852 59.0911 37.25C58.8438 36.6433 58.7201 35.9643 58.7201 35.213C58.7201 34.4523 58.8438 33.771 59.0911 33.169C59.3431 32.567 59.7118 32.0933 60.1971 31.748C60.6871 31.4027 61.2868 31.23 61.9961 31.23C62.6961 31.23 63.2981 31.405 63.8021 31.755C64.3108 32.1003 64.7004 32.574 64.9711 33.176C65.2418 33.778 65.3771 34.457 65.3771 35.213C65.3771 35.969 65.2418 36.648 64.9711 37.25C64.7004 37.852 64.3108 38.3303 63.8021 38.685C63.2981 39.035 62.6938 39.21 61.9891 39.21ZM58.5101 42.36V31.44H59.6231V37.005H59.7631V42.36H58.5101ZM61.8351 38.069C62.3344 38.069 62.7474 37.943 63.0741 37.691C63.4008 37.439 63.6458 37.0983 63.8091 36.669C63.9724 36.235 64.0541 35.7497 64.0541 35.213C64.0541 34.681 63.9724 34.2003 63.8091 33.771C63.6504 33.3417 63.4031 33.001 63.0671 32.749C62.7358 32.497 62.3134 32.371 61.8001 32.371C61.3101 32.371 60.9041 32.4923 60.5821 32.735C60.2601 32.973 60.0198 33.3067 59.8611 33.736C59.7024 34.1607 59.6231 34.653 59.6231 35.213C59.6231 35.7637 59.7001 36.256 59.8541 36.69C60.0128 37.1193 60.2554 37.4577 60.5821 37.705C60.9088 37.9477 61.3264 38.069 61.8351 38.069ZM70.3836 39.21C69.6743 39.21 69.077 39.035 68.5916 38.685C68.1063 38.3303 67.7376 37.852 67.4856 37.25C67.2383 36.6433 67.1146 35.9643 67.1146 35.213C67.1146 34.4523 67.2383 33.771 67.4856 33.169C67.7376 32.567 68.1063 32.0933 68.5916 31.748C69.0816 31.4027 69.6813 31.23 70.3906 31.23C71.0906 31.23 71.6926 31.405 72.1966 31.755C72.7053 32.1003 73.095 32.574 73.3656 33.176C73.6363 33.778 73.7716 34.457 73.7716 35.213C73.7716 35.969 73.6363 36.648 73.3656 37.25C73.095 37.852 72.7053 38.3303 72.1966 38.685C71.6926 39.035 71.0883 39.21 70.3836 39.21ZM66.9046 42.36V31.44H68.0176V37.005H68.1576V42.36H66.9046ZM70.2296 38.069C70.729 38.069 71.142 37.943 71.4686 37.691C71.7953 37.439 72.0403 37.0983 72.2036 36.669C72.367 36.235 72.4486 35.7497 72.4486 35.213C72.4486 34.681 72.367 34.2003 72.2036 33.771C72.045 33.3417 71.7976 33.001 71.4616 32.749C71.1303 32.497 70.708 32.371 70.1946 32.371C69.7046 32.371 69.2986 32.4923 68.9766 32.735C68.6546 32.973 68.4143 33.3067 68.2556 33.736C68.097 34.1607 68.0176 34.653 68.0176 35.213C68.0176 35.7637 68.0946 36.256 68.2486 36.69C68.4073 37.1193 68.65 37.4577 68.9766 37.705C69.3033 37.9477 69.721 38.069 70.2296 38.069ZM79.3872 39.21C78.6965 39.21 78.0665 39.0887 77.4972 38.846C76.9278 38.6033 76.4378 38.2557 76.0272 37.803C75.6165 37.3457 75.2992 36.795 75.0752 36.151C74.8558 35.5023 74.7462 34.772 74.7462 33.96C74.7462 32.8867 74.9375 31.958 75.3202 31.174C75.7028 30.39 76.2418 29.7857 76.9372 29.361C77.6325 28.9317 78.4492 28.717 79.3872 28.717C80.5165 28.717 81.4265 28.9807 82.1172 29.508C82.8078 30.0307 83.2838 30.747 83.5452 31.657L82.2852 31.916C82.0752 31.3047 81.7298 30.817 81.2492 30.453C80.7685 30.089 80.1688 29.907 79.4502 29.907C78.6988 29.9023 78.0735 30.0703 77.5742 30.411C77.0795 30.747 76.7062 31.2207 76.4542 31.832C76.2022 32.4433 76.0738 33.1527 76.0692 33.96C76.0645 34.7627 76.1882 35.4673 76.4402 36.074C76.6922 36.6807 77.0678 37.1567 77.5672 37.502C78.0712 37.8427 78.6988 38.0153 79.4502 38.02C80.0988 38.0247 80.6448 37.901 81.0882 37.649C81.5315 37.397 81.8745 37.033 82.1172 36.557C82.3598 36.081 82.5068 35.5093 82.5582 34.842H80.4162V33.813H83.8742C83.8882 33.9063 83.8952 34.0183 83.8952 34.149C83.8998 34.275 83.9022 34.3613 83.9022 34.408C83.9022 35.3273 83.7295 36.151 83.3842 36.879C83.0435 37.6023 82.5372 38.1717 81.8652 38.587C81.1978 39.0023 80.3718 39.21 79.3872 39.21ZM87.4493 39.21C86.8846 39.21 86.411 39.1073 86.0283 38.902C85.6503 38.692 85.3633 38.4167 85.1673 38.076C84.976 37.7353 84.8803 37.362 84.8803 36.956C84.8803 36.5593 84.955 36.2163 85.1043 35.927C85.2583 35.633 85.473 35.3903 85.7483 35.199C86.0236 35.003 86.3526 34.849 86.7353 34.737C87.0946 34.639 87.496 34.555 87.9393 34.485C88.3873 34.4103 88.84 34.3427 89.2973 34.282C89.7546 34.2213 90.1816 34.163 90.5783 34.107L90.1303 34.366C90.1443 33.694 90.009 33.197 89.7243 32.875C89.4443 32.553 88.959 32.392 88.2683 32.392C87.811 32.392 87.4096 32.497 87.0643 32.707C86.7236 32.9123 86.4833 33.2483 86.3433 33.715L85.1603 33.358C85.3423 32.6953 85.6946 32.175 86.2173 31.797C86.74 31.419 87.4283 31.23 88.2823 31.23C88.9683 31.23 89.5563 31.3537 90.0463 31.601C90.541 31.8437 90.8956 32.2123 91.1103 32.707C91.2176 32.9403 91.2853 33.1947 91.3133 33.47C91.3413 33.7407 91.3553 34.0253 91.3553 34.324V39H90.2493V37.187L90.5083 37.355C90.2236 37.9663 89.8246 38.4283 89.3113 38.741C88.8026 39.0537 88.182 39.21 87.4493 39.21ZM87.6383 38.167C88.0863 38.167 88.4736 38.0877 88.8003 37.929C89.1316 37.7657 89.3976 37.5533 89.5983 37.292C89.799 37.026 89.9296 36.7367 89.9903 36.424C90.0603 36.1907 90.0976 35.9317 90.1023 35.647C90.1116 35.3577 90.1163 35.136 90.1163 34.982L90.5503 35.171C90.1443 35.227 89.7453 35.2807 89.3533 35.332C88.9613 35.3833 88.5903 35.4393 88.2403 35.5C87.8903 35.556 87.5753 35.6237 87.2953 35.703C87.09 35.7683 86.8963 35.8523 86.7143 35.955C86.537 36.0577 86.3923 36.1907 86.2803 36.354C86.173 36.5127 86.1193 36.711 86.1193 36.949C86.1193 37.1543 86.1706 37.3503 86.2733 37.537C86.3806 37.7237 86.544 37.8753 86.7633 37.992C86.9873 38.1087 87.279 38.167 87.6383 38.167ZM93.3153 39V28.71H94.5613V39H93.3153ZM96.8016 39V28.71H98.0476V39H96.8016ZM103.424 39.21C102.682 39.21 102.033 39.0467 101.478 38.72C100.927 38.3887 100.498 37.929 100.19 37.341C99.882 36.7483 99.728 36.0577 99.728 35.269C99.728 34.443 99.8796 33.729 100.183 33.127C100.486 32.5203 100.909 32.0537 101.45 31.727C101.996 31.3957 102.635 31.23 103.368 31.23C104.129 31.23 104.775 31.405 105.307 31.755C105.844 32.105 106.245 32.6043 106.511 33.253C106.782 33.9017 106.898 34.674 106.861 35.57H105.601V35.122C105.587 34.1933 105.398 33.5003 105.034 33.043C104.67 32.581 104.129 32.35 103.41 32.35C102.64 32.35 102.054 32.5973 101.653 33.092C101.252 33.5867 101.051 34.296 101.051 35.22C101.051 36.1113 101.252 36.802 101.653 37.292C102.054 37.782 102.626 38.027 103.368 38.027C103.867 38.027 104.301 37.9127 104.67 37.684C105.039 37.4553 105.328 37.1263 105.538 36.697L106.735 37.11C106.441 37.7773 105.998 38.2953 105.405 38.664C104.817 39.028 104.157 39.21 103.424 39.21ZM100.631 35.57V34.569H106.217V35.57H100.631ZM108.419 39V31.44H109.532V33.267L109.35 33.029C109.439 32.7957 109.553 32.581 109.693 32.385C109.838 32.189 109.999 32.028 110.176 31.902C110.372 31.7433 110.594 31.622 110.841 31.538C111.089 31.454 111.341 31.405 111.597 31.391C111.854 31.3723 112.094 31.3887 112.318 31.44V32.609C112.057 32.539 111.77 32.5203 111.457 32.553C111.145 32.5857 110.855 32.7 110.589 32.896C110.347 33.0687 110.158 33.2787 110.022 33.526C109.892 33.7733 109.801 34.0417 109.749 34.331C109.698 34.6157 109.672 34.9073 109.672 35.206V39H108.419ZM114.555 42.36L116.018 38.384L116.039 39.56L112.735 31.44H114.044L116.634 37.971H116.186L118.615 31.44H119.882L115.766 42.36H114.555Z" fill="black"/>
</svg>
