<svg width="24" height="24" viewBox="0 0 24 24" fill="none" xmlns="http://www.w3.org/2000/svg">
<path d="M15.9502 1.46328C14.8268 1.54099 13.5137 2.26012 12.7484 3.19656C12.0504 4.04607 11.4761 5.30783 11.7 6.53403C12.9276 6.57223 14.1959 5.83598 14.9308 4.88373C15.6183 3.99734 16.1386 2.74348 15.9502 1.46328Z" fill="black"/>
<path d="M20.3902 8.53331C19.3115 7.18067 17.7956 6.39569 16.3639 6.39569C14.4739 6.39569 13.6744 7.30052 12.3613 7.30052C11.0073 7.30052 9.9787 6.39833 8.3442 6.39833C6.73869 6.39833 5.02912 7.37955 3.94517 9.0575C2.42131 11.4203 2.68209 15.8628 5.15161 19.6468C6.03537 21.0008 7.21547 22.5233 8.75908 22.5365C10.1328 22.5496 10.52 21.6553 12.381 21.6461C14.2421 21.6356 14.5951 22.5483 15.9661 22.5338C17.5111 22.522 18.7557 20.8348 19.6395 19.4809C20.273 18.5102 20.5087 18.0215 21 16.9257C17.4268 15.5652 16.8538 10.4839 20.3902 8.53331Z" fill="black"/>
</svg>
