<svg width="162" height="56" viewBox="0 0 162 56" fill="none" xmlns="http://www.w3.org/2000/svg">
<path d="M0.5 14C0.5 6.26801 6.76801 0 14.5 0H147.5C155.232 0 161.5 6.26801 161.5 14V42C161.5 49.732 155.232 56 147.5 56H14.5C6.76801 56 0.5 49.732 0.5 42V14Z" fill="white"/>
<path d="M32.4507 17.4634C31.3273 17.5411 30.0141 18.2602 29.2489 19.1967C28.5509 20.0462 27.9766 21.3079 28.2005 22.5341C29.428 22.5723 30.6964 21.8361 31.4313 20.8838C32.1188 19.9974 32.6391 18.7436 32.4507 17.4634Z" fill="black"/>
<path d="M36.8902 24.5334C35.8115 23.1807 34.2956 22.3958 32.8639 22.3958C30.9739 22.3958 30.1744 23.3006 28.8613 23.3006C27.5073 23.3006 26.4787 22.3984 24.8442 22.3984C23.2387 22.3984 21.5291 23.3796 20.4452 25.0576C18.9213 27.4204 19.1821 31.8629 21.6516 35.6469C22.5354 37.0008 23.7155 38.5234 25.2591 38.5365C26.6328 38.5497 27.02 37.6554 28.881 37.6462C30.7421 37.6357 31.0951 38.5484 32.4661 38.5339C34.0111 38.522 35.2557 36.8349 36.1395 35.4809C36.773 34.5102 37.0087 34.0216 37.5 32.9258C33.9268 31.5652 33.3538 26.484 36.8902 24.5334Z" fill="black"/>
<path d="M49.06 21V15.24H50.864C50.9173 15.24 51.016 15.2413 51.16 15.244C51.3067 15.2467 51.4467 15.2573 51.58 15.276C52.0307 15.332 52.4093 15.4933 52.716 15.76C53.0253 16.0267 53.2587 16.3653 53.416 16.776C53.5733 17.184 53.652 17.632 53.652 18.12C53.652 18.6107 53.5733 19.0613 53.416 19.472C53.2587 19.88 53.0253 20.2173 52.716 20.484C52.4093 20.748 52.0307 20.908 51.58 20.964C51.4467 20.9827 51.3067 20.9933 51.16 20.996C51.016 20.9987 50.9173 21 50.864 21H49.06ZM49.916 20.204H50.864C50.9547 20.204 51.0627 20.2013 51.188 20.196C51.3133 20.1907 51.424 20.18 51.52 20.164C51.8133 20.108 52.0507 19.9813 52.232 19.784C52.416 19.584 52.5507 19.3387 52.636 19.048C52.7213 18.7573 52.764 18.448 52.764 18.12C52.764 17.7813 52.72 17.468 52.632 17.18C52.544 16.8893 52.408 16.6467 52.224 16.452C52.0427 16.2547 51.808 16.1293 51.52 16.076C51.424 16.0573 51.312 16.0467 51.184 16.044C51.0587 16.0387 50.952 16.036 50.864 16.036H49.916V20.204ZM58.4874 21.12C57.9114 21.12 57.4208 20.9947 57.0154 20.744C56.6101 20.4907 56.2994 20.1387 56.0834 19.688C55.8701 19.2373 55.7634 18.7147 55.7634 18.12C55.7634 17.5253 55.8701 17.0027 56.0834 16.552C56.2994 16.1013 56.6101 15.7507 57.0154 15.5C57.4208 15.2467 57.9114 15.12 58.4874 15.12C59.0608 15.12 59.5501 15.2467 59.9554 15.5C60.3634 15.7507 60.6741 16.1013 60.8874 16.552C61.1008 17.0027 61.2074 17.5253 61.2074 18.12C61.2074 18.7147 61.1008 19.2373 60.8874 19.688C60.6741 20.1387 60.3634 20.4907 59.9554 20.744C59.5501 20.9947 59.0608 21.12 58.4874 21.12ZM58.4874 20.324C58.8954 20.3293 59.2341 20.24 59.5034 20.056C59.7754 19.8693 59.9794 19.6107 60.1154 19.28C60.2514 18.9467 60.3194 18.56 60.3194 18.12C60.3194 17.68 60.2514 17.296 60.1154 16.968C59.9794 16.6373 59.7754 16.38 59.5034 16.196C59.2341 16.012 58.8954 15.9187 58.4874 15.916C58.0794 15.9107 57.7394 16 57.4674 16.184C57.1981 16.368 56.9954 16.6267 56.8594 16.96C56.7234 17.2933 56.6541 17.68 56.6514 18.12C56.6488 18.56 56.7154 18.9453 56.8514 19.276C56.9874 19.604 57.1914 19.86 57.4634 20.044C57.7381 20.228 58.0794 20.3213 58.4874 20.324ZM64.4831 21L62.8111 15.24H63.6871L64.8991 19.596L66.1111 15.244L66.9911 15.24L68.2031 19.596L69.4151 15.24H70.2951L68.6191 21H67.7871L66.5511 16.692L65.3151 21H64.4831ZM72.4663 21V15.24H73.3143L76.1503 19.52V15.24H76.9983V21H76.1503L73.3143 16.716V21H72.4663ZM79.6947 21V15.24H80.5307V20.212H83.1387V21H79.6947ZM87.5656 21.12C86.9896 21.12 86.4989 20.9947 86.0936 20.744C85.6882 20.4907 85.3776 20.1387 85.1616 19.688C84.9482 19.2373 84.8416 18.7147 84.8416 18.12C84.8416 17.5253 84.9482 17.0027 85.1616 16.552C85.3776 16.1013 85.6882 15.7507 86.0936 15.5C86.4989 15.2467 86.9896 15.12 87.5656 15.12C88.1389 15.12 88.6282 15.2467 89.0336 15.5C89.4416 15.7507 89.7522 16.1013 89.9656 16.552C90.1789 17.0027 90.2856 17.5253 90.2856 18.12C90.2856 18.7147 90.1789 19.2373 89.9656 19.688C89.7522 20.1387 89.4416 20.4907 89.0336 20.744C88.6282 20.9947 88.1389 21.12 87.5656 21.12ZM87.5656 20.324C87.9736 20.3293 88.3122 20.24 88.5816 20.056C88.8536 19.8693 89.0576 19.6107 89.1936 19.28C89.3296 18.9467 89.3976 18.56 89.3976 18.12C89.3976 17.68 89.3296 17.296 89.1936 16.968C89.0576 16.6373 88.8536 16.38 88.5816 16.196C88.3122 16.012 87.9736 15.9187 87.5656 15.916C87.1576 15.9107 86.8176 16 86.5456 16.184C86.2762 16.368 86.0736 16.6267 85.9376 16.96C85.8016 17.2933 85.7322 17.68 85.7296 18.12C85.7269 18.56 85.7936 18.9453 85.9296 19.276C86.0656 19.604 86.2696 19.86 86.5416 20.044C86.8162 20.228 87.1576 20.3213 87.5656 20.324ZM92.0272 21L93.8992 15.24H95.1032L96.9752 21H96.1072L94.3832 15.744H94.5992L92.8952 21H92.0272ZM92.9992 19.7V18.916H96.0072V19.7H92.9992ZM99.1928 21V15.24H100.997C101.05 15.24 101.149 15.2413 101.293 15.244C101.439 15.2467 101.579 15.2573 101.713 15.276C102.163 15.332 102.542 15.4933 102.849 15.76C103.158 16.0267 103.391 16.3653 103.549 16.776C103.706 17.184 103.785 17.632 103.785 18.12C103.785 18.6107 103.706 19.0613 103.549 19.472C103.391 19.88 103.158 20.2173 102.849 20.484C102.542 20.748 102.163 20.908 101.713 20.964C101.579 20.9827 101.439 20.9933 101.293 20.996C101.149 20.9987 101.05 21 100.997 21H99.1928ZM100.049 20.204H100.997C101.087 20.204 101.195 20.2013 101.321 20.196C101.446 20.1907 101.557 20.18 101.653 20.164C101.946 20.108 102.183 19.9813 102.365 19.784C102.549 19.584 102.683 19.3387 102.769 19.048C102.854 18.7573 102.897 18.448 102.897 18.12C102.897 17.7813 102.853 17.468 102.765 17.18C102.677 16.8893 102.541 16.6467 102.357 16.452C102.175 16.2547 101.941 16.1293 101.653 16.076C101.557 16.0573 101.445 16.0467 101.317 16.044C101.191 16.0387 101.085 16.036 100.997 16.036H100.049V20.204ZM111.722 21.12C111.146 21.12 110.655 20.9947 110.25 20.744C109.844 20.4907 109.534 20.1387 109.318 19.688C109.104 19.2373 108.998 18.7147 108.998 18.12C108.998 17.5253 109.104 17.0027 109.318 16.552C109.534 16.1013 109.844 15.7507 110.25 15.5C110.655 15.2467 111.146 15.12 111.722 15.12C112.295 15.12 112.784 15.2467 113.19 15.5C113.598 15.7507 113.908 16.1013 114.122 16.552C114.335 17.0027 114.442 17.5253 114.442 18.12C114.442 18.7147 114.335 19.2373 114.122 19.688C113.908 20.1387 113.598 20.4907 113.19 20.744C112.784 20.9947 112.295 21.12 111.722 21.12ZM111.722 20.324C112.13 20.3293 112.468 20.24 112.738 20.056C113.01 19.8693 113.214 19.6107 113.35 19.28C113.486 18.9467 113.554 18.56 113.554 18.12C113.554 17.68 113.486 17.296 113.35 16.968C113.214 16.6373 113.01 16.38 112.738 16.196C112.468 16.012 112.13 15.9187 111.722 15.916C111.314 15.9107 110.974 16 110.702 16.184C110.432 16.368 110.23 16.6267 110.094 16.96C109.958 17.2933 109.888 17.68 109.886 18.12C109.883 18.56 109.95 18.9453 110.086 19.276C110.222 19.604 110.426 19.86 110.698 20.044C110.972 20.228 111.314 20.3213 111.722 20.324ZM116.74 21V15.24H117.588L120.424 19.52V15.24H121.272V21H120.424L117.588 16.716V21H116.74ZM128.426 21V16.028H126.51V15.24H131.178V16.028H129.262V21H128.426ZM133.318 21V15.24H134.154V17.724H137.034V15.24H137.874V21H137.034V18.512H134.154V21H133.318ZM140.498 21V15.24H144.178V16.028H141.334V17.644H143.698V18.432H141.334V20.212H144.178V21H140.498Z" fill="black"/>
<path d="M48.78 39L52.154 28.92H53.89L57.264 39H55.969L52.812 29.648H53.204L50.075 39H48.78ZM50.404 36.641V35.472H55.64V36.641H50.404ZM61.9891 39.21C61.2798 39.21 60.6824 39.035 60.1971 38.685C59.7118 38.3303 59.3431 37.852 59.0911 37.25C58.8438 36.6433 58.7201 35.9643 58.7201 35.213C58.7201 34.4523 58.8438 33.771 59.0911 33.169C59.3431 32.567 59.7118 32.0933 60.1971 31.748C60.6871 31.4027 61.2868 31.23 61.9961 31.23C62.6961 31.23 63.2981 31.405 63.8021 31.755C64.3108 32.1003 64.7004 32.574 64.9711 33.176C65.2418 33.778 65.3771 34.457 65.3771 35.213C65.3771 35.969 65.2418 36.648 64.9711 37.25C64.7004 37.852 64.3108 38.3303 63.8021 38.685C63.2981 39.035 62.6938 39.21 61.9891 39.21ZM58.5101 42.36V31.44H59.6231V37.005H59.7631V42.36H58.5101ZM61.8351 38.069C62.3344 38.069 62.7474 37.943 63.0741 37.691C63.4008 37.439 63.6458 37.0983 63.8091 36.669C63.9724 36.235 64.0541 35.7497 64.0541 35.213C64.0541 34.681 63.9724 34.2003 63.8091 33.771C63.6504 33.3417 63.4031 33.001 63.0671 32.749C62.7358 32.497 62.3134 32.371 61.8001 32.371C61.3101 32.371 60.9041 32.4923 60.5821 32.735C60.2601 32.973 60.0198 33.3067 59.8611 33.736C59.7024 34.1607 59.6231 34.653 59.6231 35.213C59.6231 35.7637 59.7001 36.256 59.8541 36.69C60.0128 37.1193 60.2554 37.4577 60.5821 37.705C60.9088 37.9477 61.3264 38.069 61.8351 38.069ZM70.3836 39.21C69.6743 39.21 69.077 39.035 68.5916 38.685C68.1063 38.3303 67.7376 37.852 67.4856 37.25C67.2383 36.6433 67.1146 35.9643 67.1146 35.213C67.1146 34.4523 67.2383 33.771 67.4856 33.169C67.7376 32.567 68.1063 32.0933 68.5916 31.748C69.0816 31.4027 69.6813 31.23 70.3906 31.23C71.0906 31.23 71.6926 31.405 72.1966 31.755C72.7053 32.1003 73.095 32.574 73.3656 33.176C73.6363 33.778 73.7716 34.457 73.7716 35.213C73.7716 35.969 73.6363 36.648 73.3656 37.25C73.095 37.852 72.7053 38.3303 72.1966 38.685C71.6926 39.035 71.0883 39.21 70.3836 39.21ZM66.9046 42.36V31.44H68.0176V37.005H68.1576V42.36H66.9046ZM70.2296 38.069C70.729 38.069 71.142 37.943 71.4686 37.691C71.7953 37.439 72.0403 37.0983 72.2036 36.669C72.367 36.235 72.4486 35.7497 72.4486 35.213C72.4486 34.681 72.367 34.2003 72.2036 33.771C72.045 33.3417 71.7976 33.001 71.4616 32.749C71.1303 32.497 70.708 32.371 70.1946 32.371C69.7046 32.371 69.2986 32.4923 68.9766 32.735C68.6546 32.973 68.4143 33.3067 68.2556 33.736C68.097 34.1607 68.0176 34.653 68.0176 35.213C68.0176 35.7637 68.0946 36.256 68.2486 36.69C68.4073 37.1193 68.65 37.4577 68.9766 37.705C69.3033 37.9477 69.721 38.069 70.2296 38.069ZM81.6859 39.21C80.9719 39.21 80.3279 39.0887 79.7539 38.846C79.1846 38.6033 78.7132 38.258 78.3399 37.81C77.9712 37.3573 77.7309 36.823 77.6189 36.207L78.9069 36.004C79.0702 36.6387 79.4086 37.1357 79.9219 37.495C80.4399 37.8497 81.0489 38.027 81.7489 38.027C82.2016 38.027 82.6099 37.957 82.9739 37.817C83.3426 37.6723 83.6342 37.467 83.8489 37.201C84.0636 36.935 84.1709 36.62 84.1709 36.256C84.1709 36.032 84.1312 35.8407 84.0519 35.682C83.9772 35.5187 83.8722 35.381 83.7369 35.269C83.6062 35.1523 83.4569 35.0543 83.2889 34.975C83.1209 34.8957 82.9459 34.8303 82.7639 34.779L80.1949 34.016C79.9149 33.932 79.6442 33.827 79.3829 33.701C79.1216 33.5703 78.8882 33.4093 78.6829 33.218C78.4776 33.022 78.3142 32.7887 78.1929 32.518C78.0716 32.2427 78.0109 31.9183 78.0109 31.545C78.0109 30.9477 78.1649 30.439 78.4729 30.019C78.7856 29.5943 79.2079 29.27 79.7399 29.046C80.2719 28.822 80.8716 28.7123 81.5389 28.717C82.2156 28.7217 82.8199 28.843 83.3519 29.081C83.8886 29.3143 84.3319 29.6503 84.6819 30.089C85.0366 30.5277 85.2746 31.0527 85.3959 31.664L84.0729 31.895C84.0029 31.4843 83.8466 31.132 83.6039 30.838C83.3659 30.5393 83.0672 30.3107 82.7079 30.152C82.3486 29.9887 81.9542 29.9047 81.5249 29.9C81.1142 29.8953 80.7432 29.9607 80.4119 30.096C80.0806 30.2313 79.8169 30.4203 79.6209 30.663C79.4249 30.901 79.3269 31.1763 79.3269 31.489C79.3269 31.797 79.4156 32.0467 79.5929 32.238C79.7702 32.4247 79.9872 32.574 80.2439 32.686C80.5052 32.7933 80.7596 32.882 81.0069 32.952L82.9249 33.505C83.1442 33.5657 83.3962 33.6497 83.6809 33.757C83.9702 33.8643 84.2502 34.016 84.5209 34.212C84.7916 34.4033 85.0156 34.66 85.1929 34.982C85.3702 35.2993 85.4589 35.7007 85.4589 36.186C85.4589 36.6713 85.3609 37.103 85.1649 37.481C84.9736 37.859 84.7052 38.1763 84.3599 38.433C84.0146 38.685 83.6132 38.8763 83.1559 39.007C82.6986 39.1423 82.2086 39.21 81.6859 39.21ZM91.1483 39C90.7003 39.0887 90.2569 39.1237 89.8183 39.105C89.3843 39.091 88.9969 39.0047 88.6563 38.846C88.3156 38.6827 88.0566 38.4307 87.8793 38.09C87.7299 37.7913 87.6483 37.4903 87.6343 37.187C87.6249 36.879 87.6203 36.5313 87.6203 36.144V29.34H88.8663V36.088C88.8663 36.396 88.8686 36.6597 88.8733 36.879C88.8826 37.0983 88.9316 37.2873 89.0203 37.446C89.1883 37.7447 89.4543 37.9197 89.8183 37.971C90.1869 38.0223 90.6303 38.0083 91.1483 37.929V39ZM86.0873 32.469V31.44H91.1483V32.469H86.0873ZM95.5887 39.21C94.8373 39.21 94.1887 39.0397 93.6427 38.699C93.1013 38.3583 92.6837 37.887 92.3897 37.285C92.0957 36.683 91.9487 35.9923 91.9487 35.213C91.9487 34.4197 92.098 33.7243 92.3967 33.127C92.6953 32.5297 93.1177 32.0653 93.6637 31.734C94.2097 31.398 94.8513 31.23 95.5887 31.23C96.3447 31.23 96.9957 31.4003 97.5417 31.741C98.0877 32.077 98.5053 32.546 98.7947 33.148C99.0887 33.7453 99.2357 34.4337 99.2357 35.213C99.2357 36.0017 99.0887 36.697 98.7947 37.299C98.5007 37.8963 98.0807 38.3653 97.5347 38.706C96.9887 39.042 96.34 39.21 95.5887 39.21ZM95.5887 38.027C96.3727 38.027 96.956 37.7657 97.3387 37.243C97.7213 36.7203 97.9127 36.0437 97.9127 35.213C97.9127 34.359 97.719 33.68 97.3317 33.176C96.9443 32.6673 96.3633 32.413 95.5887 32.413C95.0613 32.413 94.6273 32.532 94.2867 32.77C93.946 33.008 93.6917 33.337 93.5237 33.757C93.3557 34.177 93.2717 34.6623 93.2717 35.213C93.2717 36.0623 93.4677 36.7437 93.8597 37.257C94.2517 37.7703 94.828 38.027 95.5887 38.027ZM100.777 39V31.44H101.89V33.267L101.708 33.029C101.797 32.7957 101.911 32.581 102.051 32.385C102.196 32.189 102.357 32.028 102.534 31.902C102.73 31.7433 102.952 31.622 103.199 31.538C103.446 31.454 103.698 31.405 103.955 31.391C104.212 31.3723 104.452 31.3887 104.676 31.44V32.609C104.415 32.539 104.128 32.5203 103.815 32.553C103.502 32.5857 103.213 32.7 102.947 32.896C102.704 33.0687 102.515 33.2787 102.38 33.526C102.249 33.7733 102.158 34.0417 102.107 34.331C102.056 34.6157 102.03 34.9073 102.03 35.206V39H100.777ZM109.139 39.21C108.397 39.21 107.748 39.0467 107.193 38.72C106.642 38.3887 106.213 37.929 105.905 37.341C105.597 36.7483 105.443 36.0577 105.443 35.269C105.443 34.443 105.594 33.729 105.898 33.127C106.201 32.5203 106.623 32.0537 107.165 31.727C107.711 31.3957 108.35 31.23 109.083 31.23C109.843 31.23 110.49 31.405 111.022 31.755C111.558 32.105 111.96 32.6043 112.226 33.253C112.496 33.9017 112.613 34.674 112.576 35.57H111.316V35.122C111.302 34.1933 111.113 33.5003 110.749 33.043C110.385 32.581 109.843 32.35 109.125 32.35C108.355 32.35 107.769 32.5973 107.368 33.092C106.966 33.5867 106.766 34.296 106.766 35.22C106.766 36.1113 106.966 36.802 107.368 37.292C107.769 37.782 108.341 38.027 109.083 38.027C109.582 38.027 110.016 37.9127 110.385 37.684C110.753 37.4553 111.043 37.1263 111.253 36.697L112.45 37.11C112.156 37.7773 111.712 38.2953 111.12 38.664C110.532 39.028 109.871 39.21 109.139 39.21ZM106.346 35.57V34.569H111.932V35.57H106.346Z" fill="black"/>
</svg>
