<svg width="142" height="56" viewBox="0 0 142 56" fill="none" xmlns="http://www.w3.org/2000/svg">
<path d="M0.5 19.18C0.5 14.3609 0.5 11.9514 1.08698 9.98866C2.43786 5.4716 5.9716 1.93786 10.4887 0.586979C12.4514 0 14.8609 0 19.68 0H122.32C127.139 0 129.549 0 131.511 0.586979C136.028 1.93786 139.562 5.4716 140.913 9.98866C141.5 11.9514 141.5 14.3609 141.5 19.18V36.82C141.5 41.6391 141.5 44.0486 140.913 46.0113C139.562 50.5284 136.028 54.0621 131.511 55.413C129.549 56 127.139 56 122.32 56H19.68C14.8609 56 12.4514 56 10.4887 55.413C5.9716 54.0621 2.43786 50.5284 1.08698 46.0113C0.5 44.0486 0.5 41.6391 0.5 36.82V19.18Z" fill="white"/>
<path d="M23.0905 18.707C22.3393 18.2918 21.4573 18.3014 20.7109 18.713L29.4589 26.783L32.3977 23.8442L23.0905 18.707Z" fill="black"/>
<path d="M19.836 19.5383C19.6224 19.8875 19.5 20.2871 19.5 20.7107V35.2859C19.5 35.6963 19.6116 36.0875 19.8132 36.4295L28.6104 27.6323L19.836 19.5383Z" fill="black"/>
<path d="M36.294 25.9943L33.4908 24.4475L30.3408 27.5963L34.2012 31.1567L36.2952 30.0011C37.0488 29.5835 37.5 28.8347 37.5 27.9971C37.4988 27.1595 37.0488 26.4107 36.294 25.9943Z" fill="black"/>
<path d="M29.4921 28.446L20.6709 37.2672C21.0537 37.4856 21.4737 37.6008 21.8961 37.6008C22.3041 37.6008 22.7145 37.4976 23.0901 37.29L33.0945 31.7688L29.4921 28.446Z" fill="black"/>
<path d="M51.416 21.12C51.976 21.12 52.4507 21.0013 52.84 20.764C53.232 20.524 53.5307 20.1947 53.736 19.776C53.9413 19.3573 54.044 18.8813 54.044 18.348C54.044 18.3267 54.0427 18.2773 54.04 18.2C54.0373 18.1227 54.0333 18.0587 54.028 18.008H52.02V18.68H53.14C53.0813 19.2133 52.9107 19.6227 52.628 19.908C52.3453 20.1907 51.9573 20.3293 51.464 20.324C50.8533 20.3187 50.3933 20.1147 50.084 19.712C49.7773 19.3093 49.6253 18.7787 49.628 18.12C49.6307 17.68 49.6987 17.2947 49.832 16.964C49.968 16.6307 50.172 16.372 50.444 16.188C50.716 16.004 51.056 15.9133 51.464 15.916C51.8613 15.9187 52.1907 16.0227 52.452 16.228C52.7133 16.4333 52.9013 16.708 53.016 17.052L53.864 16.9C53.7173 16.3453 53.4413 15.9107 53.036 15.596C52.6333 15.2813 52.0933 15.124 51.416 15.124C50.8907 15.124 50.4267 15.2453 50.024 15.488C49.6213 15.728 49.3067 16.072 49.08 16.52C48.8533 16.9653 48.74 17.4987 48.74 18.12C48.74 18.7493 48.856 19.288 49.088 19.736C49.32 20.184 49.6373 20.5267 50.04 20.764C50.4427 21.0013 50.9013 21.12 51.416 21.12ZM56.3413 21H60.0213V20.212H57.1773V18.432H59.5413V17.644H57.1773V16.028H60.0213V15.24H56.3413V21ZM63.9179 21H64.7539V16.028H66.6699V15.24H62.0019V16.028H63.9179V21ZM71.7494 21H72.5854V15.24H71.7494V21ZM76.7226 21H77.5586V16.028H79.4746V15.24H74.8066V16.028H76.7226V21ZM86.8781 21.12C87.4541 21.12 87.9447 20.9933 88.3501 20.74C88.7554 20.4867 89.0647 20.136 89.2781 19.688C89.4914 19.2373 89.5981 18.7147 89.5981 18.12C89.5981 17.5253 89.4914 17.004 89.2781 16.556C89.0647 16.1053 88.7554 15.7533 88.3501 15.5C87.9447 15.2467 87.4541 15.12 86.8781 15.12C86.3021 15.12 85.8114 15.2467 85.4061 15.5C85.0007 15.7533 84.6901 16.1053 84.4741 16.556C84.2607 17.004 84.1541 17.5253 84.1541 18.12C84.1541 18.7147 84.2607 19.2373 84.4741 19.688C84.6901 20.136 85.0007 20.4867 85.4061 20.74C85.8114 20.9933 86.3021 21.12 86.8781 21.12ZM86.8781 20.324C86.2674 20.3187 85.8074 20.1147 85.4981 19.712C85.1914 19.3093 85.0394 18.7787 85.0421 18.12C85.0447 17.68 85.1127 17.2947 85.2461 16.964C85.3821 16.6307 85.5861 16.372 85.8581 16.188C86.1301 16.0013 86.4701 15.9107 86.8781 15.916C87.4914 15.9187 87.9501 16.1213 88.2541 16.524C88.5581 16.9267 88.7101 17.4587 88.7101 18.12C88.7101 18.56 88.6421 18.9467 88.5061 19.28C88.3727 19.6107 88.1701 19.868 87.8981 20.052C87.6261 20.236 87.2861 20.3267 86.8781 20.324ZM91.8959 21H92.7439V16.716L95.5799 21H96.4279V15.24H95.5799V19.52L92.7439 15.24H91.8959V21Z" fill="black"/>
<path d="M53.561 39.21C54.5457 39.21 55.3717 39.0023 56.039 38.587C56.711 38.1717 57.2173 37.6023 57.558 36.879C57.9033 36.151 58.076 35.3273 58.076 34.408C58.076 34.366 58.0737 34.282 58.069 34.156C58.0643 34.0253 58.0573 33.911 58.048 33.813H54.59V34.842H56.732C56.6573 35.8453 56.3633 36.627 55.85 37.187C55.3413 37.747 54.5993 38.0247 53.624 38.02C52.8727 38.0153 52.245 37.8427 51.741 37.502C51.2417 37.1613 50.866 36.6877 50.614 36.081C50.362 35.4697 50.2383 34.7627 50.243 33.96C50.2477 33.1527 50.3737 32.4457 50.621 31.839C50.873 31.2277 51.2487 30.7517 51.748 30.411C52.2473 30.0703 52.8727 29.9023 53.624 29.907C54.3427 29.9117 54.94 30.096 55.416 30.46C55.8967 30.8193 56.2443 31.3047 56.459 31.916L57.719 31.657C57.4577 30.7517 56.9817 30.0353 56.291 29.508C55.6003 28.9807 54.6903 28.717 53.561 28.717C52.623 28.717 51.8063 28.9317 51.111 29.361C50.4157 29.7857 49.8767 30.39 49.494 31.174C49.1113 31.958 48.92 32.8867 48.92 33.96C48.92 35.0427 49.1137 35.976 49.501 36.76C49.8883 37.544 50.4297 38.1483 51.125 38.573C51.825 38.9977 52.637 39.21 53.561 39.21ZM62.6941 39.21C63.4455 39.21 64.0918 39.042 64.6331 38.706C65.1791 38.37 65.5991 37.901 65.8931 37.299C66.1918 36.697 66.3411 36.0017 66.3411 35.213C66.3411 34.4337 66.1941 33.7453 65.9001 33.148C65.6108 32.546 65.1931 32.077 64.6471 31.741C64.1011 31.4003 63.4501 31.23 62.6941 31.23C61.9568 31.23 61.3151 31.398 60.7691 31.734C60.2231 32.0653 59.8008 32.5297 59.5021 33.127C59.2035 33.7243 59.0541 34.4197 59.0541 35.213C59.0541 35.9923 59.1988 36.683 59.4881 37.285C59.7821 37.887 60.2021 38.3583 60.7481 38.699C61.2941 39.0397 61.9428 39.21 62.6941 39.21ZM62.6941 38.027C61.9335 38.027 61.3571 37.7727 60.9651 37.264C60.5731 36.7507 60.3771 36.067 60.3771 35.213C60.3771 34.387 60.5661 33.715 60.9441 33.197C61.3221 32.6743 61.9055 32.413 62.6941 32.413C63.4688 32.413 64.0498 32.6673 64.4371 33.176C64.8245 33.6847 65.0181 34.3637 65.0181 35.213C65.0181 36.0437 64.8245 36.7203 64.4371 37.243C64.0545 37.7657 63.4735 38.027 62.6941 38.027ZM71.1023 39.21C71.8537 39.21 72.5 39.042 73.0413 38.706C73.5873 38.37 74.0073 37.901 74.3013 37.299C74.6 36.697 74.7493 36.0017 74.7493 35.213C74.7493 34.4337 74.6023 33.7453 74.3083 33.148C74.019 32.546 73.6013 32.077 73.0553 31.741C72.5093 31.4003 71.8583 31.23 71.1023 31.23C70.365 31.23 69.7233 31.398 69.1773 31.734C68.6313 32.0653 68.209 32.5297 67.9103 33.127C67.6117 33.7243 67.4623 34.4197 67.4623 35.213C67.4623 35.9923 67.607 36.683 67.8963 37.285C68.1903 37.887 68.6103 38.3583 69.1563 38.699C69.7023 39.0397 70.351 39.21 71.1023 39.21ZM71.1023 38.027C70.3417 38.027 69.7653 37.7727 69.3733 37.264C68.9813 36.7507 68.7853 36.067 68.7853 35.213C68.7853 34.387 68.9743 33.715 69.3523 33.197C69.7303 32.6743 70.3137 32.413 71.1023 32.413C71.877 32.413 72.458 32.6673 72.8453 33.176C73.2327 33.6847 73.4263 34.3637 73.4263 35.213C73.4263 36.0437 73.2327 36.7203 72.8453 37.243C72.4627 37.7657 71.8817 38.027 71.1023 38.027ZM79.2585 39.21C79.7252 39.21 80.1429 39.1307 80.5115 38.972C80.8849 38.8133 81.2069 38.5917 81.4775 38.307V39.035C81.4915 40.589 80.7845 41.366 79.3565 41.366C78.9879 41.366 78.6332 41.282 78.2925 41.114C77.9519 40.946 77.6882 40.6777 77.5015 40.309L76.3605 40.911C76.6779 41.4757 77.1072 41.8933 77.6485 42.164C78.1899 42.4347 78.7569 42.57 79.3495 42.57C80.2549 42.57 80.9922 42.3763 81.5615 41.989C82.1355 41.6063 82.4949 41.0137 82.6395 40.211C82.6769 40.0243 82.7002 39.8353 82.7095 39.644C82.7235 39.4573 82.7305 39.259 82.7305 39.049V31.44H81.6245V32.287C81.3492 31.9557 81.0132 31.6967 80.6165 31.51C80.2199 31.3233 79.7649 31.23 79.2515 31.23C78.5515 31.23 77.9495 31.405 77.4455 31.755C76.9415 32.1003 76.5519 32.574 76.2765 33.176C76.0059 33.778 75.8705 34.457 75.8705 35.213C75.8705 35.969 76.0059 36.648 76.2765 37.25C76.5472 37.852 76.9345 38.3303 77.4385 38.685C77.9472 39.035 78.5539 39.21 79.2585 39.21ZM79.4125 38.069C78.9179 38.069 78.5049 37.943 78.1735 37.691C77.8469 37.439 77.6019 37.0983 77.4385 36.669C77.2752 36.235 77.1935 35.7497 77.1935 35.213C77.1935 34.681 77.2729 34.2003 77.4315 33.771C77.5949 33.3417 77.8422 33.001 78.1735 32.749C78.5095 32.497 78.9342 32.371 79.4475 32.371C80.1849 32.371 80.7309 32.637 81.0855 33.169C81.4449 33.6963 81.6245 34.3777 81.6245 35.213C81.6245 36.0437 81.4472 36.7273 81.0925 37.264C80.7379 37.8007 80.1779 38.069 79.4125 38.069ZM84.8251 39H86.0711V28.71H84.8251V39ZM91.4474 39.21C92.1801 39.21 92.8404 39.028 93.4284 38.664C94.0164 38.2953 94.4597 37.7773 94.7584 37.11L93.5614 36.697C93.1274 37.5837 92.4041 38.027 91.3914 38.027C90.6961 38.027 90.1501 37.8147 89.7534 37.39C89.3614 36.9607 89.1397 36.354 89.0884 35.57H94.8844C94.9217 34.674 94.8051 33.9017 94.5344 33.253C94.2684 32.6043 93.8671 32.105 93.3304 31.755C92.7984 31.405 92.1521 31.23 91.3914 31.23C90.6587 31.23 90.0194 31.3957 89.4734 31.727C88.9274 32.0537 88.5027 32.5203 88.1994 33.127C87.9007 33.729 87.7514 34.443 87.7514 35.269C87.7514 36.0577 87.9031 36.7483 88.2064 37.341C88.5144 37.929 88.9461 38.3887 89.5014 38.72C90.0567 39.0467 90.7054 39.21 91.4474 39.21ZM91.4334 32.35C92.7167 32.35 93.4354 33.0897 93.5894 34.569H89.1094C89.1981 33.8503 89.4384 33.302 89.8304 32.924C90.2224 32.5413 90.7567 32.35 91.4334 32.35ZM99.2456 39H100.492V35.276H103.229C103.322 35.276 103.436 35.2713 103.572 35.262C103.707 35.2527 103.84 35.2387 103.971 35.22C104.783 35.094 105.401 34.744 105.826 34.17C106.25 33.5913 106.463 32.9007 106.463 32.098C106.463 31.2953 106.25 30.607 105.826 30.033C105.406 29.4543 104.787 29.102 103.971 28.976C103.84 28.9527 103.707 28.9387 103.572 28.934C103.441 28.9247 103.327 28.92 103.229 28.92H99.2456V39ZM100.492 34.093V30.103H103.187C103.275 30.103 103.376 30.1077 103.488 30.117C103.604 30.1263 103.714 30.1427 103.817 30.166C104.302 30.2733 104.652 30.5183 104.867 30.901C105.081 31.279 105.189 31.678 105.189 32.098C105.189 32.518 105.081 32.9193 104.867 33.302C104.652 33.68 104.302 33.9227 103.817 34.03C103.714 34.0533 103.604 34.0697 103.488 34.079C103.376 34.0883 103.275 34.093 103.187 34.093H100.492ZM107.999 39H109.245V28.71H107.999V39ZM113.494 39.21C114.754 39.21 115.688 38.748 116.294 37.824V39H117.4V34.324C117.4 34.0253 117.386 33.7407 117.358 33.47C117.33 33.1947 117.263 32.9403 117.155 32.707C116.941 32.2123 116.586 31.8437 116.091 31.601C115.597 31.3537 115.009 31.23 114.327 31.23C113.473 31.23 112.783 31.419 112.255 31.797C111.733 32.175 111.383 32.6953 111.205 33.358L112.388 33.715C112.524 33.253 112.764 32.917 113.109 32.707C113.455 32.497 113.856 32.392 114.313 32.392C114.967 32.392 115.436 32.539 115.72 32.833C116.01 33.1223 116.161 33.568 116.175 34.17C115.615 34.2493 115.027 34.3333 114.411 34.422C113.8 34.506 113.256 34.611 112.78 34.737C112.206 34.905 111.754 35.1687 111.422 35.528C111.091 35.8827 110.925 36.3587 110.925 36.956C110.925 37.362 111.021 37.7353 111.212 38.076C111.408 38.4167 111.695 38.692 112.073 38.902C112.456 39.1073 112.93 39.21 113.494 39.21ZM113.683 38.167C113.147 38.167 112.759 38.0433 112.521 37.796C112.283 37.544 112.164 37.2617 112.164 36.949C112.164 36.5943 112.281 36.3237 112.514 36.137C112.752 35.9457 113.028 35.801 113.34 35.703C113.709 35.6003 114.138 35.514 114.628 35.444C115.118 35.374 115.629 35.304 116.161 35.234C116.161 35.4067 116.152 35.6027 116.133 35.822C116.119 36.0413 116.087 36.242 116.035 36.424C115.947 36.8907 115.699 37.299 115.293 37.649C114.892 37.9943 114.355 38.167 113.683 38.167ZM119.846 42.36H121.057L125.173 31.44H123.906L121.694 37.39L119.335 31.44H118.026L121.092 38.972L119.846 42.36Z" fill="black"/>
</svg>
