<svg width="24" height="24" viewBox="0 0 24 24" fill="none" xmlns="http://www.w3.org/2000/svg">
<path d="M10.4259 17.2609C10.4503 17.2406 10.4578 17.2069 10.4449 17.1778C8.74708 13.5534 6.63058 10.1381 4.13819 7.00086C4.13819 7.00086 2.15695 8.87048 2.2974 10.7469C2.36486 11.6212 2.77793 12.4333 3.44612 13.0053C5.17427 14.6812 9.3593 16.7965 10.333 17.275C10.3635 17.2919 10.4022 17.2858 10.4266 17.2615L10.4259 17.2609ZM9.7793 18.6951C9.77283 18.6766 9.76073 18.6606 9.74468 18.6492C9.72864 18.6379 9.70943 18.6317 9.68974 18.6317V18.6303L2.72147 18.872C3.47665 20.2124 4.75699 21.2532 6.07533 20.934C6.98996 20.7065 9.06347 19.2682 9.73927 18.7829V18.7809C9.79151 18.7336 9.77319 18.6958 9.77319 18.6958L9.7793 18.6951ZM9.88447 18.0722C9.91839 18.0182 9.85733 17.9709 9.85733 17.9709L9.858 17.9682C6.80472 15.9164 0.866433 12.7623 0.866433 12.7623C0.545421 13.7507 0.613181 14.8235 1.05605 15.7642C1.49891 16.705 2.28392 17.4436 3.25274 17.8312C3.67831 17.999 4.12827 18.0974 4.58533 18.1228C4.68982 18.143 8.72965 18.1248 9.81119 18.1201C9.84172 18.1167 9.86886 18.0985 9.88311 18.0715L9.88447 18.0722ZM10.3472 4.0081C10.0432 4.0351 9.22496 4.22004 9.22496 4.22004C8.1441 4.49407 7.28239 5.30334 6.94382 6.35965C6.75258 7.0805 6.75586 7.83878 6.95332 8.55798C7.56872 11.2754 10.5996 15.7422 11.2496 16.6791C11.2958 16.7249 11.3338 16.7081 11.3338 16.7081C11.3731 16.6986 11.4003 16.6622 11.3982 16.6217H11.3996C12.401 6.65055 10.3479 4 10.3479 4L10.3472 4.0081ZM12.6528 16.7054C12.6908 16.7209 12.7342 16.7047 12.7532 16.6683H12.7539C13.4229 15.7058 16.4348 11.2639 17.0468 8.55798C17.23 7.83713 17.2341 7.08252 17.0583 6.35965C16.8895 5.83738 16.5894 5.36668 16.1863 4.99222C15.7833 4.61776 15.2908 4.35196 14.7555 4.22004C14.7555 4.22004 14.2228 4.0864 13.6583 4.00743C13.6583 4.00743 11.5929 6.6519 12.5971 16.6291H12.5985C12.5992 16.6629 12.6202 16.6932 12.6528 16.7047V16.7054ZM14.3015 18.6378C14.3015 18.6378 14.2337 18.6459 14.2228 18.6904C14.2147 18.7242 14.2249 18.7606 14.25 18.7849C14.9149 19.2608 16.9369 20.6748 17.9139 20.94C17.9139 20.94 19.7154 21.5502 21.2793 18.8774L14.3029 18.6344L14.3015 18.6378ZM23.1357 12.7468C23.1357 12.7468 17.2123 15.9083 14.1489 17.9642C14.1335 17.9756 14.122 17.9914 14.1158 18.0095C14.1096 18.0275 14.1091 18.047 14.1143 18.0654C14.1143 18.0654 14.1435 18.1174 14.1862 18.1174V18.1187L19.5369 18.1052C19.9483 18.073 20.3526 17.9802 20.7365 17.8298C21.7373 17.4397 22.5427 16.673 22.9796 15.6956C23.3897 14.7639 23.4452 13.7155 23.1357 12.7461V12.7468ZM13.5891 17.2683C13.6163 17.2885 13.6536 17.2912 13.6841 17.275C14.6815 16.7796 18.836 14.6785 20.556 13.0113C21.224 12.435 21.6365 11.6198 21.7041 10.7428C21.8296 8.80231 19.8721 7.00693 19.8721 7.00693C17.3847 10.1359 15.2716 13.5422 13.5755 17.1569H13.5776C13.5593 17.194 13.5667 17.2379 13.5966 17.2676" fill="black"/>
</svg>
