<svg width="71" height="106" viewBox="0 0 71 106" fill="none" xmlns="http://www.w3.org/2000/svg">
<path d="M0.684375 105.928L0.756375 92.536L45.9004 52.072C49.5484 48.856 52.0204 45.784 53.3164 42.856C54.6604 39.928 55.3324 37 55.3324 34.072C55.3324 30.376 54.5164 27.064 52.8844 24.136C51.2524 21.16 48.9964 18.808 46.1164 17.08C43.2364 15.352 39.9244 14.488 36.1804 14.488C32.3404 14.488 28.9084 15.4 25.8844 17.224C22.9084 19 20.5804 21.376 18.9004 24.352C17.2204 27.328 16.4044 30.544 16.4524 34H1.04438C1.04438 27.28 2.55638 21.4 5.58038 16.36C8.65238 11.272 12.8524 7.31199 18.1804 4.47999C23.5084 1.6 29.6044 0.159998 36.4684 0.159998C42.9964 0.159998 48.8524 1.648 54.0364 4.62399C59.2204 7.55199 63.3004 11.584 66.2764 16.72C69.3004 21.856 70.8124 27.712 70.8124 34.288C70.8124 39.04 70.1884 43.072 68.9404 46.384C67.6924 49.696 65.8204 52.768 63.3244 55.6C60.8284 58.432 57.7084 61.504 53.9644 64.816L19.1164 95.92L17.4604 91.6H70.8124V105.928H0.684375Z" fill="#BAD6FF"/>
</svg>
