<svg width="69" height="106" viewBox="0 0 69 106" fill="none" xmlns="http://www.w3.org/2000/svg">
<path d="M33.6898 105.944C28.5538 105.944 23.7298 104.984 19.2178 103.064C14.7058 101.096 10.7938 98.312 7.48175 94.712C4.21775 91.112 1.84175 86.864 0.35375 81.968L14.8978 77.936C16.2898 82.4 18.7138 85.832 22.1698 88.232C25.6258 90.584 29.4658 91.736 33.6898 91.688C37.4818 91.64 40.8178 90.752 43.6978 89.024C46.5778 87.296 48.8338 84.968 50.4658 82.04C52.0978 79.064 52.9138 75.656 52.9138 71.816C52.9138 66.056 51.1138 61.304 47.5138 57.56C43.9618 53.816 39.3058 51.944 33.5458 51.944C31.9138 51.944 30.2338 52.184 28.5058 52.664C26.8258 53.144 25.2418 53.768 23.7538 54.536L16.6978 42.656L53.2738 10.328L54.8578 14.648H4.45775V0.319996H66.8098V14.648L36.4258 43.88L36.2818 38.984C42.8098 38.984 48.4738 40.448 53.2738 43.376C58.0738 46.256 61.7698 50.192 64.3618 55.184C67.0018 60.128 68.3218 65.672 68.3218 71.816C68.3218 78.44 66.7618 84.32 63.6418 89.456C60.5698 94.592 56.4178 98.624 51.1858 101.552C46.0018 104.48 40.1698 105.944 33.6898 105.944Z" fill="#E6E9ED"/>
</svg>
