<svg width="24" height="24" viewBox="0 0 24 24" fill="none" xmlns="http://www.w3.org/2000/svg">
<path fill-rule="evenodd" clip-rule="evenodd" d="M12 1L21 5V11C21 13.38 20.29 15.69 19.08 17.65L16.18 14.75C17.46 12.81 17.25 10.17 15.54 8.46C13.59 6.51 10.42 6.51 8.47 8.46C6.52 10.41 6.52 13.58 8.47 15.53C10.18 17.24 12.82 17.46 14.76 16.17L17.88 19.29C16.33 21.1 14.3 22.44 12 23C6.84 21.74 3 16.55 3 11V5L12 1ZM15 12C15 13.6569 13.6569 15 12 15C10.3431 15 9 13.6569 9 12C9 10.3431 10.3431 9 12 9C13.6569 9 15 10.3431 15 12Z" fill="black"/>
</svg>
