<svg width="24" height="24" viewBox="0 0 24 24" fill="none" xmlns="http://www.w3.org/2000/svg">
<path fill-rule="evenodd" clip-rule="evenodd" d="M12 23C18.0751 23 23 18.0751 23 12C23 5.92487 18.0751 1 12 1C5.92487 1 1 5.92487 1 12C1 18.0751 5.92487 23 12 23ZM8.18182 16H6V10H8.18182V16ZM16.9091 9.5C17.5091 9.5 18 9.95 18 10.5V11.5C18 11.63 17.9727 11.75 17.9236 11.865L16.2764 15.39C16.1127 15.75 15.7255 16 15.2727 16H10.3636C9.76364 16 9.27273 15.55 9.27273 15V10C9.27273 9.725 9.39273 9.475 9.59455 9.295L13.1836 6L13.7618 6.525C13.9091 6.66 14.0018 6.85 14.0018 7.055L13.9855 7.215L13.4673 9.5H16.9091Z" fill="black"/>
</svg>
